<?xml version="1.0" encoding="iso-8859-1"?>
<!-- Generator: Adobe Illustrator 19.0.0, SVG Export Plug-In . SVG Version: 6.00 Build 0)  -->
<svg version="1.1" id="Layer_1" xmlns="http://www.w3.org/2000/svg" xmlns:xlink="http://www.w3.org/1999/xlink" x="0px" y="0px"
	 viewBox="0 0 512 512" style="enable-background:new 0 0 512 512;" xml:space="preserve">
<path style="fill:#F4B2B0;" d="M256.001,437.782L256.001,437.782c-48.283,0-87.425-39.141-87.425-87.425v-58.376h174.849v58.376
	C343.426,398.641,304.285,437.782,256.001,437.782z"/>
<g>
	<path style="fill:#B3404A;" d="M256.001,451.797c-55.934,0-101.44-45.507-101.44-101.441v-58.374
		c0-7.739,6.275-14.015,14.015-14.015h174.849c7.739,0,14.015,6.276,14.015,14.015v58.374
		C357.441,406.291,311.936,451.797,256.001,451.797z M182.59,305.997v44.359c0,40.48,32.931,73.411,73.41,73.411
		s73.41-32.931,73.41-73.411v-44.359L182.59,305.997L182.59,305.997z"/>
	<path style="fill:#B3404A;" d="M189.428,132.162h144.794c7.739,0,14.015-6.276,14.015-14.015s-6.276-14.015-14.015-14.015H193.065
		V56.919c0-15.93,12.96-28.889,28.891-28.889h68.092c15.93,0,28.889,12.96,28.889,28.889c0,7.739,6.276,14.015,14.015,14.015
		c7.739,0,14.015-6.276,14.015-14.015C346.968,25.534,321.434,0,290.048,0h-68.092c-31.387,0-56.921,25.534-56.921,56.919v55.393
		l-0.482,3.683c-11.415,70.658-50.149,110.244-81.973,131.599c-0.035,0-0.069-0.006-0.104-0.006H55.848
		c-22.926,0-41.579,18.653-41.579,41.579v83.624c0,7.739,6.275,14.015,14.015,14.015S42.3,380.53,42.3,372.791v-83.624
		c0-7.47,6.077-13.548,13.548-13.548h15.41v222.365c0,7.739,6.275,14.015,14.015,14.015h198.759c7.739,0,14.015-6.276,14.015-14.015
		c0-7.739-6.276-14.015-14.015-14.015H99.288V270.145C145.627,238.595,177.234,190.171,189.428,132.162z"/>
	<path style="fill:#B3404A;" d="M456.155,247.59h-26.629c-0.029,0-0.057,0.004-0.087,0.004
		c-28.594-19.213-51.177-46.009-65.492-77.838c-3.177-7.061-11.476-10.21-18.531-7.034c-7.059,3.176-10.209,11.471-7.034,18.531
		c16.29,36.222,41.899,66.81,74.332,88.892V483.97h-44.593c-7.739,0-14.015,6.276-14.015,14.015S360.381,512,368.121,512h58.608
		c7.739,0,14.015-6.276,14.015-14.015V275.62h15.41c7.47,0,13.547,6.078,13.547,13.548v83.624c0,7.739,6.276,14.015,14.015,14.015
		s14.015-6.276,14.015-14.015v-83.624C497.732,266.243,479.081,247.59,456.155,247.59z"/>
</g>
<g>
</g>
<g>
</g>
<g>
</g>
<g>
</g>
<g>
</g>
<g>
</g>
<g>
</g>
<g>
</g>
<g>
</g>
<g>
</g>
<g>
</g>
<g>
</g>
<g>
</g>
<g>
</g>
<g>
</g>
</svg>
