<?xml version="1.0" encoding="iso-8859-1"?>
<!-- Generator: Adobe Illustrator 19.0.0, SVG Export Plug-In . SVG Version: 6.00 Build 0)  -->
<svg version="1.1" id="Layer_1" xmlns="http://www.w3.org/2000/svg" xmlns:xlink="http://www.w3.org/1999/xlink" x="0px" y="0px"
	 viewBox="0 0 512 512" style="enable-background:new 0 0 512 512;" xml:space="preserve">
<path style="fill:#F4B2B0;" d="M366.533,256.117H145.535c3.95,76.534,34.39,113.449,34.39,150.841
	c0,23.844-27.861,79.055-33.376,89.749h218.97c-5.515-10.694-33.376-65.906-33.376-89.749
	C332.145,369.564,362.582,332.651,366.533,256.117z"/>
<path style="fill:#B3404A;" d="M347.679,401.744c0.113-1.262,0.275-2.537,0.463-3.823c1.6-10.961,5.79-22.871,10.817-37.127
	c10.378-29.427,23.293-66.049,23.293-121.183c0-19.038-2.49-50.798-6.056-77.233c-1.13-8.37-8.839-14.242-17.2-13.111
	c-8.37,1.129-14.241,8.829-13.111,17.2c3.796,28.139,5.782,58.096,5.782,73.144c0,0.408-0.008,0.806-0.009,1.211H160.41
	c-0.002-0.405-0.009-0.803-0.009-1.211c0-9.717,0.748-23.886,2.054-39.149c5.961,3.612,12.949,5.695,20.415,5.695
	c21.784,0,39.507-17.723,39.507-39.507v-39.236h92.789c8.446,0,15.293-6.848,15.293-15.293s-6.847-15.293-15.293-15.293H207.084
	c-8.446,0-15.293,6.848-15.293,15.293v54.529c0,4.92-4.002,8.92-8.92,8.92c-4.92,0-8.92-4.001-8.92-8.92v-54.529
	c0-7-4.709-12.889-11.129-14.704c-3.678-2.184-6.523-6.77-4.842-12.681c1.159-4.079,4.81-6.938,9.3-7.286
	c0.102-0.009,0.205-0.018,0.307-0.028c1.184-0.121,2.242,0.063,3.461,0.422c0.057,0.018,0.115,0.034,0.171,0.05
	c1.794,0.511,3.626,0.769,5.444,0.769c6.698,0,12.984-3.355,16.403-8.758c2.329-3.68,3.175-8.004,2.491-12.207
	c0.794-15.084,13.452-27.115,28.898-27.115c9.488,0,18.658,4.778,23.918,12.453c3.979,5.824,10.552,9.298,17.584,9.298
	c4.239,0,8.349-1.256,11.802-3.577c3.516-2.329,7.588-3.56,11.777-3.56c7.7,0,14.827,4.196,18.613,10.954
	c3.806,6.916,11.029,11.207,18.876,11.207c1.944,0,3.907-0.272,5.833-0.806c0.055-0.015,0.109-0.032,0.164-0.046
	c1.607-0.468,3.213-0.703,4.773-0.703c0.346,0,0.603,0.009,0.785,0.026c0.135,0.012,0.271,0.024,0.407,0.032
	c8.217,0.543,15.053,7.423,15.565,15.662c0.525,8.43,7.78,14.851,16.212,14.314c8.43-0.523,14.839-7.783,14.316-16.212
	c-1.467-23.613-20.312-42.611-43.873-44.272c-2.979-0.26-6.53-0.159-9.942,0.324c-9.72-13.135-25.172-21.066-41.727-21.066
	c-7.342,0-14.528,1.546-21.192,4.536C257.182,7.035,241.309,0,224.453,0c-28.569,0-52.501,20.12-58.222,46.864
	c-0.492,0.024-0.976,0.058-1.454,0.102c-17.061,1.378-31.605,13.18-36.217,29.404c-4.894,17.212,1.248,34.705,14.804,44.82v1.135
	c-7.893,28.572-13.548,89.104-13.548,117.288c0,55.133,12.915,91.756,23.293,121.183c5.027,14.256,9.217,26.167,10.817,37.127
	c0.188,1.285,0.35,2.562,0.463,3.823c0.029,0.318,0.044,0.633,0.069,0.951c0.107,1.433,0.174,2.854,0.174,4.262
	c0,1.372-0.144,2.955-0.419,4.719c-2.147,13.825-12.262,38.866-23.377,62.136c-2.601,5.446-5.256,10.797-7.879,15.882
	c-1.528,2.964-2.022,6.29-1.499,9.48c0.314,1.915,0.993,3.78,2.034,5.489c2.776,4.556,7.725,7.335,13.059,7.335h218.97
	c5.334,0,10.283-2.779,13.059-7.335c1.389-2.277,2.132-4.834,2.224-7.416c0.092-2.581-0.468-5.184-1.69-7.553
	c-2.623-5.085-5.278-10.436-7.879-15.882c-11.115-23.27-21.23-48.311-23.377-62.136c-0.274-1.765-0.419-3.348-0.419-4.719
	c0-1.408,0.067-2.831,0.174-4.262C347.635,402.377,347.65,402.062,347.679,401.744z M349.96,271.41
	c-2.756,25.172-8.471,45.615-14.304,63.174c-0.352,1.057-0.705,2.109-1.058,3.15c-0.083,0.243-0.164,0.482-0.246,0.723
	c-1.419,4.16-2.843,8.205-4.239,12.163c-5.116,14.51-9.716,27.596-11.906,40.764c-0.856,5.149-1.356,10.309-1.356,15.573l0,0l0,0
	c0,0.526,0.046,1.098,0.066,1.646c0.693,19.022,13.221,49.671,24.044,72.809H171.108c10.823-23.139,23.351-53.787,24.044-72.809
	c0.02-0.546,0.066-1.118,0.066-1.646l0,0l0,0c0-2.217-0.092-4.417-0.257-6.604c-0.009-0.121-0.012-0.243-0.021-0.362
	c-0.161-2.031-0.398-4.051-0.684-6.07c-0.04-0.275-0.069-0.551-0.11-0.826c-0.012-0.08-0.028-0.159-0.04-0.239
	c-2.081-13.666-6.845-27.185-12.15-42.237c-1.405-3.987-2.841-8.061-4.27-12.254c-0.066-0.191-0.13-0.382-0.196-0.575
	c-0.37-1.087-0.739-2.19-1.107-3.296c-5.824-17.541-11.525-37.956-14.276-63.086L349.96,271.41L349.96,271.41z"/>
<g>
</g>
<g>
</g>
<g>
</g>
<g>
</g>
<g>
</g>
<g>
</g>
<g>
</g>
<g>
</g>
<g>
</g>
<g>
</g>
<g>
</g>
<g>
</g>
<g>
</g>
<g>
</g>
<g>
</g>
</svg>
