<?xml version="1.0" encoding="iso-8859-1"?>
<!-- Generator: Adobe Illustrator 19.0.0, SVG Export Plug-In . SVG Version: 6.00 Build 0)  -->
<svg version="1.1" id="Layer_1" xmlns="http://www.w3.org/2000/svg" xmlns:xlink="http://www.w3.org/1999/xlink" x="0px" y="0px"
	 viewBox="0 0 512 512" style="enable-background:new 0 0 512 512;" xml:space="preserve">
<polygon style="fill:#F4B2B0;" points="65.346,327.257 65.346,429.745 132.596,496.995 328.201,496.995 395.453,429.745 
	395.453,327.257 "/>
<path style="fill:#B3404A;" d="M470.476,228.991h-60.019v-35.748c14.399-10.214,23.823-27,23.823-45.958
	c0-30.422-24.246-55.288-54.43-56.291c-2.983-16.921-10.997-32.609-23.179-45.058c-5.796-5.919-15.293-6.026-21.22-0.227
	c-5.921,5.796-6.024,15.296-0.227,21.218c9.738,9.951,15.38,23.079,15.886,36.972c0.353,9.575,8.151,17.076,17.752,17.076h9.097
	c14.51,0,26.313,11.803,26.313,26.311c0,14.51-11.803,26.314-26.313,26.314h-39.631c-8.286,0-15.005,6.719-15.005,15.005v36.676
	c0,10.325-8.398,18.725-18.72,18.725c-10.325,0-18.725-8.4-18.725-18.725v-36.676c0-8.286-6.719-15.005-15.005-15.005
	c-8.286,0-15.005,6.719-15.005,15.005v36.676c0,26.872,21.861,48.734,48.734,48.734c26.869,0,48.73-21.861,48.73-48.734V203.61
	h24.626c0.834,0,1.664-0.027,2.489-0.063v108.706H80.351V203.547c0.827,0.036,1.655,0.063,2.489,0.063h117.53
	c8.287,0,15.005-6.719,15.005-15.005c0-8.286-6.718-15.005-15.005-15.005H82.84c-14.508,0-26.311-11.804-26.311-26.314
	c0-14.508,11.803-26.311,26.311-26.311h9.094c9.605,0,17.404-7.501,17.755-17.082c1.098-30.14,25.601-53.747,55.784-53.747
	c7.313,0,14.424,1.395,21.134,4.146c7.637,3.13,16.366-0.494,19.541-8.112c4.093-9.824,13.612-16.171,24.251-16.171
	c10.638,0,20.158,6.346,24.251,16.169c3.189,7.651,11.975,11.263,19.622,8.079c7.65-3.187,11.267-11.972,8.079-19.622
	C273.58,13.596,253.19,0,230.4,0c-18.021,0-34.544,8.503-45.006,22.464c-6.49-1.547-13.152-2.327-19.92-2.327
	c-42.389,0-77.493,30.293-84.542,70.86c-30.175,1.01-54.412,25.871-54.412,56.289c0,18.957,9.423,35.745,23.822,45.957v134.014
	v102.489c0,3.979,1.582,7.797,4.395,10.61l67.25,67.249c2.813,2.813,6.629,4.395,10.61,4.395h195.606
	c3.979,0,7.795-1.582,10.61-4.395l67.249-67.249c2.813-2.815,4.395-6.631,4.395-10.61v-46.97h60.019
	c8.286,0,15.005-6.719,15.005-15.005V243.997C485.48,235.71,478.763,228.991,470.476,228.991z M380.447,423.53l-58.46,58.46H138.811
	l-58.46-58.46v-81.268h300.097v81.268H380.447z M455.471,352.767h-45.015v-25.51v-68.256h45.015V352.767z"/>
<g>
</g>
<g>
</g>
<g>
</g>
<g>
</g>
<g>
</g>
<g>
</g>
<g>
</g>
<g>
</g>
<g>
</g>
<g>
</g>
<g>
</g>
<g>
</g>
<g>
</g>
<g>
</g>
<g>
</g>
</svg>
