<?xml version="1.0" encoding="iso-8859-1"?>
<!-- Generator: Adobe Illustrator 19.0.0, SVG Export Plug-In . SVG Version: 6.00 Build 0)  -->
<svg version="1.1" id="Layer_1" xmlns="http://www.w3.org/2000/svg" xmlns:xlink="http://www.w3.org/1999/xlink" x="0px" y="0px"
	 viewBox="0 0 511.999 511.999" style="enable-background:new 0 0 511.999 511.999;" xml:space="preserve">
<path style="fill:#F4B2B0;" d="M256.001,497.458c-38.177,0-54.387-28.746-68.168-75.126c-3.237-10.903-6.33-22.653-9.606-35.092
	l-0.052-0.196c-6.506-24.686-13.878-52.664-24.347-81.007c-26.14-70.775-26.445-122.949-0.906-155.07
	c19.743-24.837,54.423-37.431,103.078-37.431c48.649,0,83.326,12.594,103.071,37.433c25.542,32.127,25.238,84.3-0.907,155.07
	c-10.454,28.292-17.813,56.225-24.308,80.869l-0.064,0.24c-8.952,34.005-16.068,59.485-26.153,77.704
	C295.494,486.793,278.603,497.458,256.001,497.458z"/>
<path style="fill:#B3404A;" d="M456.296,158.86c-4.397-6.72-13.41-8.601-20.131-4.202c-6.718,4.399-8.6,13.412-4.201,20.131
	c16.569,25.31,9.627,74.665-20.076,142.733c-9.376,21.497-17.142,41.688-24.651,61.214l-0.054,0.14
	c-28.606,74.424-41.929,98.823-66.981,98.822c-1.051,0-2.135-0.058-3.233-0.142c1.163-1.824,2.302-3.696,3.391-5.663
	c10.902-19.695,18.271-46.014,27.482-81.005l0.076-0.282c6.41-24.325,13.675-51.896,23.885-79.528
	c28.029-75.866,27.577-132.779-1.348-169.159c-20.528-25.824-54.099-40.106-99.915-42.547v-50.91l34.186-21.629
	c6.787-4.294,8.808-13.276,4.514-20.063s-13.276-8.808-20.063-4.514l-40.952,25.91c-4.213,2.665-6.766,7.303-6.766,12.289v58.918
	c-24.335,1.297-45.205,5.943-62.511,13.874c-0.208,0.012-0.413,0.009-0.621,0.029c-2.136,0.205-29.144,3.112-31.379,3.366
	c-33.981,3.852-71.395,11.879-91.247,42.221C32.867,193.748,38.674,249.45,73.45,329.151c9.157,20.991,16.814,40.905,24.218,60.163
	c14.712,38.26,26.213,66.869,40.28,86.652c14.706,20.68,32.375,30.819,53.817,30.819c2.702,0,5.468-0.161,8.29-0.483
	c6.187-0.699,17.072-3.948,18.292-4.316c0.129-0.039,0.25-0.093,0.377-0.135c10.101,6.408,22.289,10.149,37.276,10.149
	c14.038,0,26.482-3.401,37.26-10.149c0.115,0.038,0.223,0.087,0.339,0.122c0.486,0.147,11.963,3.611,18.337,4.328
	c2.828,0.323,5.593,0.484,8.299,0.484c21.442,0,39.111-10.14,53.815-30.814c14.082-19.798,25.577-48.406,40.279-86.655l0.052-0.137
	c7.396-19.233,15.045-39.118,24.162-60.025C473.327,249.447,479.134,193.744,456.296,158.86z M124.814,378.876
	c-7.519-19.554-15.293-39.773-24.708-61.354c-29.698-68.065-36.639-117.42-20.072-142.734c11.241-17.181,34.273-24.03,57.644-27.6
	c-25.017,36.501-24.199,91.577,2.51,163.888c10.218,27.667,17.494,55.268,23.934,79.707l0.052,0.196
	c3.302,12.539,6.419,24.382,9.72,35.496c5.503,18.517,12.038,36.447,21.385,51.074C167.93,479.818,154.732,456.682,124.814,378.876z
	 M201.774,418.193c-3.17-10.676-6.231-22.307-9.491-34.69l-0.058-0.217c-6.584-24.987-14.049-53.308-24.751-82.286
	c-24.26-65.68-25.324-113.113-3.166-140.983c16.846-21.193,47.696-31.938,91.695-31.938c43.993,0,74.841,10.746,91.69,31.941
	c22.161,27.875,21.097,75.308-3.167,140.981c-10.695,28.946-18.149,57.237-24.719,82.167l-0.076,0.279
	c-8.681,32.977-15.542,57.615-24.812,74.364c-9.611,17.364-21.613,25.107-38.916,25.107
	C229.835,482.916,216.151,466.585,201.774,418.193z"/>
<g>
</g>
<g>
</g>
<g>
</g>
<g>
</g>
<g>
</g>
<g>
</g>
<g>
</g>
<g>
</g>
<g>
</g>
<g>
</g>
<g>
</g>
<g>
</g>
<g>
</g>
<g>
</g>
<g>
</g>
</svg>
