<?xml version="1.0" encoding="iso-8859-1"?>
<!-- Generator: Adobe Illustrator 19.0.0, SVG Export Plug-In . SVG Version: 6.00 Build 0)  -->
<svg version="1.1" id="Layer_1" xmlns="http://www.w3.org/2000/svg" xmlns:xlink="http://www.w3.org/1999/xlink" x="0px" y="0px"
	 viewBox="0 0 511.999 511.999" style="enable-background:new 0 0 511.999 511.999;" xml:space="preserve">
<path style="fill:#B3404A;" d="M109.247,357.418c-8.354,0-15.126-6.774-15.126-15.126v-47.978c0-8.353,6.772-15.126,15.126-15.126
	s15.126,6.774,15.126,15.126v47.978C124.374,350.646,117.602,357.418,109.247,357.418z M109.247,249.091
	c-8.354,0-15.126-6.774-15.126-15.126v-5.424l-13.594-13.341c-8.375-8.22-22.083-26.096-19.778-53.477
	c2.505-29.874,26.701-55.705,56.282-60.085c3.406-0.502,6.83-0.758,10.177-0.758c11.774,0,22.975,3.031,33.29,9.008
	c7.229,4.188,9.693,13.443,5.504,20.672c-4.187,7.227-13.443,9.694-20.672,5.504c-7.306-4.234-15.315-5.763-23.875-4.499
	c-15.795,2.337-29.221,16.696-30.563,32.689c-1.204,14.302,5.22,23.856,10.82,29.351l18.126,17.788
	c2.898,2.845,4.532,6.736,4.532,10.797v11.773C124.374,242.318,117.602,249.091,109.247,249.091z"/>
<path style="fill:#F4B2B0;" d="M496.474,211.645c-4.282-51.069-44.176-93.688-94.875-101.187
	c-22.106-3.269-43.101,0.064-61.555,8.161c5.954,12.121,9.781,25.4,10.948,39.315c2.948,35.152-10.38,67.233-33.225,89.652v155.209
	H194.227v53.71H463.25V301.297C486.094,278.878,499.422,246.797,496.474,211.645z"/>
<path style="fill:#B3404A;" d="M511.546,210.38c-4.868-58.055-50.177-106.371-107.737-114.886c-6.309-0.933-12.7-1.407-18.997-1.407
	c-12.978,0-25.69,1.971-37.952,5.842c-19.365-30.567-51.39-52.653-88.534-58.145c-26.04-3.848-51.814,0.188-75.072,11.687
	c-23.254-11.501-49.029-15.536-75.076-11.687C50.627,50.299,5.322,98.614,0.456,156.665c-3.199,37.996,10.538,75.072,37.69,101.718
	c2.945,2.889,6.771,4.329,10.594,4.329c3.918,0,7.835-1.514,10.797-4.532c5.851-5.961,5.762-15.538-0.201-21.39
	c-20.703-20.318-31.175-48.598-28.735-77.595c3.707-44.213,38.194-81.006,82.004-87.486c22.077-3.263,43.881,0.885,63.064,12.001
	c4.691,2.717,10.475,2.718,15.164,0.002c19.192-11.116,41.001-15.27,63.066-12.003c31.653,4.682,58.433,25.185,72.263,52.875
	c0.1,0.233,0.189,0.472,0.301,0.7c2.612,5.318,4.706,10.796,6.279,16.389c0.029,0.104,0.06,0.209,0.089,0.313
	c0.333,1.198,0.632,2.404,0.915,3.611c0.059,0.25,0.124,0.496,0.18,0.746c0.245,1.08,0.458,2.166,0.664,3.254
	c0.067,0.351,0.144,0.7,0.206,1.053c0.185,1.041,0.339,2.089,0.487,3.136c0.054,0.381,0.122,0.759,0.172,1.142
	c0.18,1.384,0.33,2.771,0.448,4.164c0.003,0.035,0.008,0.068,0.011,0.103c0,0,0,0,0,0.002c0.455,5.436,0.457,10.847,0.023,16.185
	c-1.882,23.136-11.951,44.901-28.769,61.405c-1.812,1.779-3.13,3.965-3.863,6.347c-0.44,1.429-0.67,2.927-0.67,4.45v140.083H194.221
	H63.863v-70.414c0-8.353-6.772-15.126-15.126-15.126S33.61,308.9,33.61,317.253v85.541c0,8.353,6.772,15.126,15.126,15.126h130.358
	v38.584c0,8.353,6.772,15.126,15.126,15.126h269.024c8.353,0,15.126-6.774,15.126-15.126V307.414
	C502.511,281.201,514.551,246.204,511.546,210.38z M452.655,290.501c-2.9,2.845-4.532,6.736-4.532,10.797v140.083H209.352v-23.458
	h108.415c8.353,0,15.126-6.774,15.126-15.126V253.706c6.787-7.373,12.618-15.439,17.427-24.025
	c10.687-19.079,16.324-40.714,16.194-62.963c-0.02-3.338-0.169-6.689-0.451-10.048c-0.136-1.62-0.315-3.232-0.513-4.842
	c-0.05-0.401-0.101-0.8-0.156-1.2c-0.197-1.473-0.414-2.942-0.664-4.406c-0.023-0.133-0.041-0.268-0.064-0.401
	c-0.277-1.594-0.591-3.183-0.93-4.763c-0.077-0.36-0.159-0.717-0.239-1.075c-0.295-1.316-0.61-2.627-0.947-3.934
	c-0.077-0.298-0.148-0.599-0.228-0.895c-0.399-1.502-0.829-2.998-1.286-4.486c-0.127-0.417-0.266-0.83-0.398-1.246
	c-0.195-0.614-0.383-1.23-0.587-1.841c12.655-3.381,26.004-4.128,39.333-2.156c43.816,6.48,78.309,43.275,82.016,87.487
	C483.831,241.905,473.353,270.186,452.655,290.501z"/>
<g>
</g>
<g>
</g>
<g>
</g>
<g>
</g>
<g>
</g>
<g>
</g>
<g>
</g>
<g>
</g>
<g>
</g>
<g>
</g>
<g>
</g>
<g>
</g>
<g>
</g>
<g>
</g>
<g>
</g>
</svg>
