<?xml version="1.0" encoding="iso-8859-1"?>
<!-- Generator: Adobe Illustrator 19.0.0, SVG Export Plug-In . SVG Version: 6.00 Build 0)  -->
<svg version="1.1" id="Layer_1" xmlns="http://www.w3.org/2000/svg" xmlns:xlink="http://www.w3.org/1999/xlink" x="0px" y="0px"
	 viewBox="0 0 512 512" style="enable-background:new 0 0 512 512;" xml:space="preserve">
<path style="fill:#F4B2B0;" d="M387.224,163.468v309.667c-92.064-1.994-166.022-70.552-166.022-154.834
	S295.16,165.464,387.224,163.468z"/>
<path style="fill:#B3404A;" d="M386.921,149.506c-13.2,0.286-26.172,1.852-38.748,4.613v-37.334
	c0-22.075-17.96-40.035-40.035-40.035c-9.951,0-19.059,3.658-26.068,9.689c-7.011-6.03-16.118-9.689-26.07-9.689
	c-9.952,0-19.059,3.658-26.07,9.689c-7.011-6.03-16.118-9.689-26.068-9.689c-22.076,0-40.035,17.96-40.035,40.035v37.344
	c-8.202-1.802-16.579-3.093-25.085-3.852v-47.64c0-41.193,33.513-74.706,74.708-74.706h85.101c41.194,0,74.708,33.513,74.708,74.706
	c0,7.713,6.254,13.966,13.966,13.966c7.712,0,13.966-6.252,13.966-13.966C401.19,46.043,355.145,0,298.55,0h-85.101
	C156.855,0,110.81,46.043,110.81,102.638v60.83v1.293V435.1v38.035v24.899c0,7.713,6.254,13.966,13.966,13.966h262.448
	c7.712,0,13.966-6.252,13.966-13.966v-24.899V435.1V163.468c0-3.757-1.514-7.354-4.198-9.981
	C394.307,150.86,390.718,149.442,386.921,149.506z M216.296,447.063c-3.514-6.867-11.927-9.585-18.794-6.075
	c-18.041,9.227-38.116,15.109-58.76,17.281V435.1V178.322c38.337,3.977,73.394,20.518,99.021,46.772
	c-19.855,27.412-30.526,59.583-30.526,93.207c0,44.637,18.801,86.72,52.937,118.497c26.399,24.574,59.713,40.855,95.964,47.27
	h-200.58c19.143-3.385,37.667-9.518,54.666-18.213C217.089,462.344,219.808,453.931,216.296,447.063z M373.258,435.1v23.165
	c-77.349-8.191-138.091-68.45-138.091-139.964s60.744-131.773,138.091-139.964V435.1z M308.138,104.682
	c6.674,0,12.104,5.43,12.104,12.104v44.238c0,0.485,0.025,0.964,0.073,1.434c-8.377,3.209-16.491,6.991-24.279,11.325v-56.998
	C296.035,110.111,301.465,104.682,308.138,104.682z M191.758,162.42v-45.636c0-6.674,5.43-12.104,12.104-12.104
	c6.673,0,12.103,5.43,12.103,12.104v20.448c0,7.713,6.254,13.966,13.966,13.966c7.712,0,13.966-6.252,13.966-13.966v-20.448
	c0-6.674,5.43-12.104,12.104-12.104c6.674,0,12.104,5.43,12.104,12.104v72.153v3.92c-2.705,2.239-5.354,4.549-7.931,6.947
	c-1.42,1.323-2.804,2.669-4.172,4.026c-18.13-18.062-40.045-32.073-64.248-41.348C191.755,162.462,191.758,162.441,191.758,162.42z"
	/>
<g>
</g>
<g>
</g>
<g>
</g>
<g>
</g>
<g>
</g>
<g>
</g>
<g>
</g>
<g>
</g>
<g>
</g>
<g>
</g>
<g>
</g>
<g>
</g>
<g>
</g>
<g>
</g>
<g>
</g>
</svg>
