<?xml version="1.0" encoding="iso-8859-1"?>
<!-- Generator: Adobe Illustrator 19.0.0, SVG Export Plug-In . SVG Version: 6.00 Build 0)  -->
<svg version="1.1" id="Layer_1" xmlns="http://www.w3.org/2000/svg" xmlns:xlink="http://www.w3.org/1999/xlink" x="0px" y="0px"
	 viewBox="0 0 512.003 512.003" style="enable-background:new 0 0 512.003 512.003;" xml:space="preserve">
<g>
	<path style="fill:#F4B2B0;" d="M340.483,110.695c13.192,7.639,26.989,13.244,40.604,17.662c2.112-19.586,0.724-39.885-4.656-60.061
		c-16.5-61.897-47.277-35.986-94.727-7.051C297.938,78.467,316.906,97.045,340.483,110.695z"/>
	<path style="fill:#F4B2B0;" d="M171.225,401.777c-13.115-7.593-26.818-13.188-40.342-17.617
		c-2.053,19.471-0.655,39.637,4.69,59.685c16.447,61.693,46.997,35.885,94.136,6.906C213.521,433.698,194.63,415.33,171.225,401.777
		z"/>
	<path style="fill:#F4B2B0;" d="M453.929,358.97c-9.071-34.023-28.161-62.693-53.241-83.714c-7.346,3.4-14.927,6.231-22.668,8.518
		c-5.685,25.087-18.909,47.309-37.163,64.166c4.968,20.817,5.909,42.615,2.487,64.134C414.298,408.65,473.397,431.98,453.929,358.97
		z"/>
	<path style="fill:#F4B2B0;" d="M171.136,164.077c-5.002-20.941-5.931-42.877-2.441-64.522
		C97.7,103.152,38.592,80.099,58.075,153.172c9.056,33.964,28.095,62.591,53.11,83.603c7.386-3.425,15.015-6.276,22.802-8.575
		C139.678,203.13,152.895,180.926,171.136,164.077z"/>
</g>
<path style="fill:#B3404A;" d="M486.107,215.384c8.332-14.391,18.467-35.687,10.317-54.41
	c-9.281-21.325-35.081-27.226-67.744-34.695c-10.487-2.399-21.547-4.938-32.75-8.127c0.746-17.959-1.231-35.896-5.919-53.474
	c-3.19-11.965-12.897-48.377-44.78-48.377c-17.877,0-36.1,11.355-59.172,25.73c-0.625,0.389-1.275,0.793-1.907,1.186
	c-0.393-0.424-0.793-0.854-1.183-1.276c-22.925-24.752-41.044-44.299-64.267-41.71c-20.33,2.268-33.732,21.618-42.045,35.975
	c-9.08,15.682-15.627,32.413-19.59,49.663c-1.913,0.03-3.856,0.049-5.877,0.049c-9.428,0-18.515-0.319-27.303-0.625
	c-7.97-0.28-15.495-0.542-22.595-0.542c-20.583,0-41.237,2.09-52.886,17.252c-9.378,12.205-10.619,29.616-3.905,54.791
	c7.746,29.055,22.411,55.259,42.823,76.783c-25.181,15.37-46.29,36.862-61.405,62.966c-8.341,14.405-18.487,35.726-10.347,54.513
	c9.275,21.406,35.119,27.408,67.838,35.007c10.457,2.428,21.488,5,32.663,8.217c-0.715,17.87,1.265,35.712,5.923,53.191
	c3.18,11.931,12.859,48.24,44.59,48.247c0.003,0,0.006,0,0.008,0c17.844,0,36.012-11.404,59.009-25.841
	c0.585-0.367,1.19-0.746,1.781-1.116c0.431,0.462,0.868,0.93,1.297,1.39c21.801,23.383,39.021,41.854,60.597,41.854
	c22.485,0,37.073-20.705,46.091-36.277c9.126-15.764,15.696-32.587,19.654-49.934c1.525-0.02,3.073-0.031,4.669-0.031
	c9.881,0,19.389,0.364,28.583,0.717c8.284,0.318,16.108,0.617,23.452,0.617c20.137,0,40.364-2.071,51.909-17.099
	c9.341-12.159,10.574-29.522,3.876-54.641c-7.762-29.12-22.47-55.369-42.946-76.915
	C449.804,263.059,470.964,241.536,486.107,215.384z M345.229,44.406c2.545,0,10.288,0,17.623,27.511
	c3.217,12.068,4.924,24.329,5.11,36.633c-6.92-2.884-13.76-6.186-20.418-10.043c-16.586-9.603-30.805-21.897-43.556-34.533
	C320.562,53.666,335.962,44.406,345.229,44.406z M71.654,149.552c-5.456-20.464-2.946-27.847-0.964-30.427
	c4.317-5.62,19.53-6.269,30.597-6.269c6.606,0,13.896,0.256,21.611,0.526c9.029,0.316,18.366,0.644,28.287,0.644
	c0.583,0,1.162-0.001,1.737-0.003c-0.024,0.363-0.032,0.727-0.055,1.089c-0.063,1.061-0.115,2.123-0.16,3.187
	c-0.031,0.743-0.063,1.487-0.086,2.23c-0.025,0.868-0.034,1.737-0.046,2.605c-0.025,1.722-0.024,3.442,0,5.162
	c0.007,0.443,0.008,0.884,0.018,1.327c0.025,1.176,0.067,2.353,0.117,3.529c0.014,0.32,0.03,0.642,0.045,0.963
	c0.257,5.437,0.764,10.866,1.523,16.281c0.011,0.077,0.022,0.156,0.034,0.233c0.417,2.948,0.887,5.895,1.452,8.833
	c-15.737,16.309-27.148,35.993-33.426,57.659c-2.881,0.991-5.731,2.048-8.543,3.177C93.428,201.122,78.928,176.829,71.654,149.552z
	 M166.593,467.606c0,0-0.001,0-0.003,0c-6.729-0.001-12.596-9.213-17.439-27.379c-3.179-11.924-4.882-24.045-5.097-36.213
	c7.245,3.037,13.91,6.325,20.129,9.926c16.473,9.538,30.555,21.632,43.262,34.143C191.006,458.38,175.753,467.606,166.593,467.606z
	 M311.043,461.637c-8.308,14.351-16.039,22.255-21.766,22.255c-9.354,0-24.953-16.732-40.038-32.913
	c-18.331-19.662-41.144-44.132-70.951-61.391c-29.849-17.281-62.381-24.836-88.521-30.908
	c-22.008-5.111-44.766-10.395-48.407-18.802c-1.289-2.972-1.847-10.726,8.882-29.253c15.563-26.878,38.669-47.95,66.36-60.903
	c0.125-0.052,0.253-0.094,0.377-0.15c-0.1,2.142-0.149,4.288-0.149,6.434c0,76.74,62.432,139.172,139.172,139.172
	c26.752,0,52.592-7.62,74.782-21.784c0.07,0.818,0.129,1.636,0.186,2.454c0.034,0.486,0.069,0.972,0.098,1.459
	c0.062,1.034,0.118,2.069,0.159,3.104c0.007,0.187,0.01,0.372,0.017,0.559c0.073,2.083,0.103,4.165,0.089,6.25
	c-0.001,0.365-0.006,0.731-0.01,1.096c-0.048,3.481-0.214,6.962-0.506,10.442c-0.006,0.07-0.013,0.141-0.018,0.211
	c-0.311,3.637-0.753,7.271-1.329,10.898l0,0C326.587,427.905,320.423,445.435,311.043,461.637z M440.35,362.59
	c5.436,20.391,2.957,27.723,0.994,30.277c-4.699,6.116-23.456,6.116-29.62,6.116c-6.806,0-14.37-0.291-22.376-0.597
	c-9.458-0.363-19.239-0.736-29.658-0.736c-0.197,0-0.392,0-0.589,0c0.956-14.971,0.024-30.112-2.858-45.108
	c15.752-16.327,27.171-36.041,33.443-57.738c2.822-0.971,5.613-2.005,8.367-3.109C418.503,310.891,433.058,335.237,440.35,362.59z
	 M394.617,262.576c-0.589,0.271-1.195,0.523-1.79,0.788c-1.356,0.604-2.719,1.193-4.097,1.758c-0.845,0.346-1.698,0.68-2.552,1.012
	c-1.129,0.438-2.265,0.861-3.407,1.275c-0.949,0.343-1.894,0.689-2.851,1.013c-1.227,0.416-2.468,0.804-3.709,1.19
	c-0.725,0.226-1.442,0.468-2.171,0.684c-0.229,0.067-0.443,0.169-0.668,0.247c-0.277,0.097-0.555,0.191-0.824,0.305
	c-0.249,0.105-0.49,0.223-0.732,0.343c-0.271,0.134-0.538,0.274-0.798,0.424c-0.211,0.122-0.422,0.242-0.627,0.374
	c-0.344,0.222-0.673,0.461-0.992,0.71c-0.169,0.132-0.336,0.264-0.497,0.402c-0.333,0.284-0.652,0.582-0.954,0.894
	c-0.149,0.153-0.288,0.313-0.43,0.472c-0.23,0.26-0.451,0.528-0.661,0.804c-0.126,0.166-0.254,0.329-0.374,0.5
	c-0.295,0.424-0.571,0.861-0.818,1.315c-0.065,0.119-0.117,0.246-0.177,0.367c-0.193,0.382-0.37,0.772-0.528,1.171
	c-0.065,0.163-0.124,0.326-0.183,0.492c-0.159,0.45-0.297,0.906-0.41,1.372c-0.014,0.062-0.041,0.119-0.055,0.181
	c-4.964,21.908-16.369,41.599-32.987,56.946c-20.568,18.996-47.319,29.459-75.327,29.459c-61.242,0-111.065-49.823-111.065-111.065
	c0-8.322,0.929-16.629,2.757-24.695c0,0,0-0.001,0-0.003c4.968-21.891,16.371-41.57,32.979-56.908
	c0.004-0.004,0.008-0.01,0.014-0.014l0,0c20.567-18.987,47.315-29.446,75.315-29.446c16.272,0,31.974,3.477,46.252,10.009
	c-8.165,54.526-41.29,102.426-90.013,129.407c-6.789,3.759-9.246,12.312-5.485,19.101c2.565,4.633,7.361,7.249,12.307,7.249
	c2.303,0,4.639-0.568,6.796-1.762c52.744-29.207,89.691-79.612,101.992-137.669c5.805,4.945,11.16,10.526,15.958,16.711
	c4.758,6.133,13.59,7.246,19.717,2.487c6.133-4.758,7.246-13.585,2.489-19.718c-26.589-34.268-66.687-53.921-110.011-53.921
	c-26.751,0-52.586,7.616-74.776,21.781c-0.662-7.634-0.738-15.272-0.236-22.856c0.004-0.065,0.01-0.129,0.014-0.194
	c0.115-1.715,0.266-3.426,0.44-5.135c0.022-0.214,0.041-0.427,0.063-0.639c0.18-1.691,0.392-3.378,0.63-5.061
	c0.049-0.346,0.103-0.691,0.155-1.037c2.76-18.614,9.026-36.713,18.691-53.403c10.664-18.417,17.633-21.767,20.837-22.126
	c9.15-1.005,25.096,16.211,40.53,32.875c2.79,3.012,5.697,6.144,8.703,9.338c0.145,0.169,0.275,0.347,0.43,0.51
	c16.52,17.525,36.8,37.403,61.963,51.971c12.724,7.368,26.89,13.539,43.308,18.868c0.371,0.121,0.745,0.222,1.12,0.311
	c15.72,5.038,30.988,8.542,44.542,11.642c21.937,5.017,44.624,10.206,48.24,18.514c1.03,2.367,2.229,9.943-8.87,29.109
	C446.069,228.439,422.663,249.656,394.617,262.576z"/>
<g>
</g>
<g>
</g>
<g>
</g>
<g>
</g>
<g>
</g>
<g>
</g>
<g>
</g>
<g>
</g>
<g>
</g>
<g>
</g>
<g>
</g>
<g>
</g>
<g>
</g>
<g>
</g>
<g>
</g>
</svg>
