<?xml version="1.0" encoding="utf-8"?>
<!-- Generator: Adobe Illustrator 16.0.4, SVG Export Plug-In . SVG Version: 6.00 Build 0)  -->
<!DOCTYPE svg PUBLIC "-//W3C//DTD SVG 1.1//EN" "http://www.w3.org/Graphics/SVG/1.1/DTD/svg11.dtd">
<svg version="1.1" id="Calque_1" xmlns="http://www.w3.org/2000/svg" xmlns:xlink="http://www.w3.org/1999/xlink" x="0px" y="0px"
	 width="300px" height="300px" viewBox="0 0 300 300" enable-background="new 0 0 300 300" xml:space="preserve">
<g>
	<path fill="#A7C136" d="M128.36,66.077L89.887,55.768h-0.002c-0.801-0.176-1.674,0.042-2.296,0.664
		c-0.635,0.637-0.848,1.53-0.647,2.348l10.201,38.201c0,0,0.338,0.833,0.674,1.169c0.966,0.966,2.524,0.968,3.495,0.015h0.002
		l27.953-27.953v-0.005c0.013-0.013,0.027-0.02,0.04-0.032c0.971-0.971,0.971-2.544,0-3.515
		C129.029,66.383,128.703,66.194,128.36,66.077z"/>
	<path fill="#87B43D" d="M121.264,70.457l-24.289-6.51h-0.002c-0.505-0.11-1.056,0.027-1.451,0.419
		c-0.399,0.402-0.534,0.966-0.407,1.483l6.439,24.12c0,0,0.216,0.524,0.426,0.738c0.61,0.607,1.593,0.61,2.206,0.01h0.002
		l17.649-17.65v-0.002c0.007-0.01,0.017-0.015,0.024-0.022c0.613-0.613,0.613-1.605,0-2.218
		C121.688,70.65,121.482,70.53,121.264,70.457z"/>
	<path fill="#A7C136" d="M199.794,97.202l10.309-38.473v-0.002c0.177-0.802-0.042-1.674-0.664-2.297
		c-0.638-0.635-1.529-0.848-2.348-0.647L168.89,65.984c0,0-0.834,0.338-1.169,0.674c-0.966,0.966-0.969,2.524-0.016,3.495v0.002
		l27.954,27.954h0.005c0.012,0.012,0.02,0.027,0.031,0.039c0.971,0.971,2.545,0.971,3.516,0
		C199.487,97.871,199.676,97.545,199.794,97.202z"/>
	<path fill="#87B43D" d="M196.5,86.619l5.713-21.321v-0.002c0.098-0.443-0.022-0.926-0.367-1.272
		c-0.354-0.351-0.849-0.471-1.302-0.358l-21.169,5.652c0,0-0.464,0.189-0.649,0.375c-0.535,0.535-0.537,1.397-0.008,1.937l0,0
		l15.49,15.493h0.003c0.007,0.007,0.012,0.015,0.02,0.022c0.536,0.537,1.409,0.537,1.945,0
		C196.33,86.989,196.434,86.807,196.5,86.619z"/>
	<path fill="#464645" d="M294.877,256.393L162.958,27.9l-0.013,0.005c-2.924-4.586-8.024-7.647-13.862-7.647
		c-5.963,0-11.137,3.199-14.027,7.949L3.914,254.923c0,0-2.331,5.492-2.331,8.635c0,9.041,7.294,16.367,16.313,16.45l0.005,0.016
		h261.87l0.01-0.032c0.115,0,0.219,0.032,0.336,0.032c9.091,0,16.466-7.373,16.466-16.466
		C296.583,260.977,295.934,258.567,294.877,256.393z"/>
	<path fill="#A7C136" d="M294.877,256.393L162.958,27.9l-0.013,0.005c-2.924-4.586-8.024-7.647-13.862-7.647
		c-5.963,0-11.137,3.199-14.027,7.949L3.914,254.923c0,0-2.331,5.492-2.331,8.635c0,9.041,7.294,16.367,16.313,16.45l0.005,0.016
		h261.87l0.01-0.032c0.115,0,0.219,0.032,0.336,0.032c9.091,0,16.466-7.373,16.466-16.466
		C296.583,260.977,295.934,258.567,294.877,256.393z"/>
	<g>
		<g>
			<g>
				<path fill="#232323" d="M162.737,81.989c10.338-7.772,25.022-5.694,32.792,4.642c7.771,10.336,5.691,25.02-4.643,32.787
					c-10.333,7.779-25.02,5.696-32.786-4.637C150.321,104.442,152.404,89.758,162.737,81.989z"/>
			</g>
		</g>
		<g>
			<g>
				<path fill="#FFFFFF" d="M161.059,102.979c4.169-3.142,10.103-2.299,13.24,1.87c3.137,4.179,2.299,10.105-1.87,13.245
					c-4.179,3.137-10.113,2.296-13.245-1.875C156.044,112.05,156.882,106.116,161.059,102.979z"/>
			</g>
		</g>
	</g>
	<g>
		<g>
			<g>
				<path fill="#232323" d="M110.485,114.785c-7.774-10.336-5.696-25.024,4.64-32.792c10.336-7.772,25.02-5.694,32.79,4.642
					c7.779,10.333,5.696,25.022-4.64,32.789C132.936,127.202,118.252,125.119,110.485,114.785z"/>
			</g>
		</g>
		<g>
			<g>
				<path fill="#FFFFFF" d="M131.473,116.464c-3.142-4.169-2.299-10.101,1.87-13.238c4.179-3.137,10.105-2.304,13.245,1.873
					c3.137,4.171,2.296,10.105-1.873,13.245C140.539,121.481,134.61,120.638,131.473,116.464z"/>
			</g>
		</g>
	</g>
	<g>
		<g>
			
				<path fill="none" stroke="#87B43D" stroke-width="14.2074" stroke-linecap="round" stroke-linejoin="round" stroke-miterlimit="10" d="
				M116.367,141.592c3.404,6.603,10.294,11.115,18.235,11.115c11.329,0,20.508-9.179,20.508-20.508"/>
			
				<path fill="none" stroke="#87B43D" stroke-width="14.2074" stroke-linecap="round" stroke-linejoin="round" stroke-miterlimit="10" d="
				M151.546,132.199c0,11.329,9.185,20.508,20.513,20.508c7.941,0,14.831-4.518,18.237-11.123"/>
		</g>
		<path fill="#232323" d="M153.328,140.67c10.537,0,19.211-7.941,20.377-18.164c0-1.343,0.219-2.346-1.872-2.346
			c-7.772,0-35.539,0-36.618,0c-1.252,0-2.338,0.164-2.265,2.336C134.11,132.722,142.794,140.67,153.328,140.67z"/>
	</g>
	<polygon fill="#87B43D" points="33.754,203.334 98.995,227.525 98.995,184.858 45.559,182.928 	"/>
	<path fill="#87B43D" d="M65.468,254.633c-8.473-0.671-15.152-7.734-15.152-16.382c0-0.461,0.059-0.976,0.145-1.513l-38.24,3.826
		l-8.306,14.358c0,0-2.331,5.492-2.331,8.635c0,9.041,7.294,16.367,16.313,16.45l0.005,0.016h16.691L65.468,254.633z"/>
	<polygon fill="#87B43D" points="125.02,254.68 91.637,254.702 84.228,280.023 123.84,280.023 	"/>
	<polygon fill="#87B43D" points="194.679,254.636 167.171,254.653 179.056,280.023 211.07,280.023 	"/>
	<path fill="#87B43D" d="M296.583,263.558c0-2.581-0.649-4.99-1.706-7.165l-9.473-16.409l-33.263-2.645
		c0.013,0.27,0.049,0.534,0.049,0.807c0,8.52-6.473,15.527-14.767,16.378l32.987,25.5h9.36l0.01-0.032
		c0.115,0,0.219,0.032,0.336,0.032C289.208,280.023,296.583,272.65,296.583,263.558z"/>
	<polygon fill="#87B43D" points="252.752,183.43 233.061,200.803 244.276,220.227 268.247,210.268 	"/>
	<path fill="#87B43D" d="M234.093,155.155c-3.794-2.049-8.529-2.142-12.547,0.169c-4.747,2.729-6.997,8.005-6.193,13.105
		l15.093,1.998l4.586-14.772C234.355,155.212,234.093,155.155,234.093,155.155z"/>
	
		<path fill="none" stroke="#FFFFFF" stroke-width="7.1144" stroke-linecap="round" stroke-linejoin="round" stroke-miterlimit="10" d="
		M17.902,280.023"/>
	<polygon fill="#87B43D" points="99.936,244.78 149.191,241.016 148.563,225.329 101.818,220.31 	"/>
	
		<line fill="none" stroke="#87B43D" stroke-width="7.1144" stroke-linecap="round" stroke-linejoin="round" stroke-miterlimit="10" x1="99.309" y1="179.525" x2="99.309" y2="252.31"/>
	<polygon fill="#87B43D" points="150.446,208.702 202.211,193.016 202.838,224.702 151.387,220.623 	"/>
	
		<line fill="none" stroke="#87B43D" stroke-width="7.1144" stroke-linecap="round" stroke-linejoin="round" stroke-miterlimit="10" x1="150.759" y1="202.428" x2="150.759" y2="252.31"/>
	
		<line fill="none" stroke="#87B43D" stroke-width="7.1144" stroke-linecap="round" stroke-linejoin="round" stroke-miterlimit="10" x1="202.211" y1="188.623" x2="202.211" y2="252.31"/>
	
		<path fill="none" stroke="#87B43D" stroke-width="7.1144" stroke-linecap="round" stroke-linejoin="round" stroke-miterlimit="10" d="
		M234.093,155.155c-3.794-2.049-8.529-2.142-12.547,0.169c-5.801,3.334-7.955,10.479-5.245,16.449l34.185,59.208
		c1.056,2.174,1.705,4.583,1.705,7.164c0,9.093-7.375,16.466-16.465,16.466c-0.118,0-0.221-0.032-0.336-0.032l-0.01,0.032
		l-168.746,0.105l-0.005-0.015c-9.02-0.084-16.313-7.409-16.313-16.451c0-3.143,2.331-8.635,2.331-8.635"/>
</g>
</svg>
