<?xml version="1.0" encoding="utf-8"?>
<!-- Generator: Adobe Illustrator 16.0.4, SVG Export Plug-In . SVG Version: 6.00 Build 0)  -->
<!DOCTYPE svg PUBLIC "-//W3C//DTD SVG 1.1//EN" "http://www.w3.org/Graphics/SVG/1.1/DTD/svg11.dtd">
<svg version="1.1" id="Calque_1" xmlns="http://www.w3.org/2000/svg" xmlns:xlink="http://www.w3.org/1999/xlink" x="0px" y="0px"
	 width="300px" height="367.333px" viewBox="0 0 300 367.333" enable-background="new 0 0 300 367.333" xml:space="preserve">
<g>
	<g>
		<path fill="#606060" d="M129.026,149.514l-38.473-10.339H90.55c-0.801-0.177-1.674,0.042-2.296,0.666
			c-0.635,0.639-0.848,1.534-0.647,2.355l10.201,38.314c0,0,0.338,0.836,0.674,1.172c0.966,0.969,2.524,0.971,3.495,0.015h0.002
			l27.953-28.036v-0.005c0.013-0.012,0.027-0.02,0.04-0.032c0.971-0.974,0.971-2.552,0-3.525
			C129.695,149.821,129.369,149.632,129.026,149.514z"/>
		<path fill="#383838" d="M121.93,153.907l-24.289-6.529h-0.002c-0.505-0.11-1.056,0.027-1.451,0.42
			c-0.399,0.403-0.534,0.969-0.407,1.487l6.439,24.192c0,0,0.216,0.526,0.426,0.74c0.61,0.61,1.593,0.612,2.206,0.01h0.002
			l17.649-17.702v-0.002c0.007-0.01,0.017-0.015,0.024-0.022c0.613-0.615,0.613-1.61,0-2.225
			C122.354,154.101,122.148,153.98,121.93,153.907z"/>
		<path fill="#606060" d="M200.46,180.731l10.309-38.587v-0.002c0.177-0.804-0.042-1.679-0.664-2.304
			c-0.638-0.636-1.529-0.85-2.348-0.649l-38.201,10.231c0,0-0.834,0.339-1.169,0.676c-0.966,0.969-0.969,2.532-0.016,3.506v0.002
			l27.954,28.037h0.005c0.012,0.012,0.02,0.027,0.031,0.039c0.971,0.974,2.545,0.974,3.516,0
			C200.153,181.402,200.342,181.076,200.46,180.731z"/>
		<path fill="#383838" d="M197.166,170.117l5.713-21.385v-0.002c0.098-0.445-0.022-0.929-0.367-1.276
			c-0.354-0.352-0.849-0.472-1.302-0.359l-21.169,5.669c0,0-0.464,0.189-0.649,0.376c-0.535,0.536-0.537,1.401-0.008,1.942l0,0
			l15.49,15.539h0.003c0.007,0.007,0.012,0.015,0.02,0.022c0.536,0.539,1.409,0.539,1.945,0
			C196.996,170.488,197.1,170.306,197.166,170.117z"/>
		<path fill="#464645" d="M295.543,340.396L163.624,111.224l-0.013,0.005c-2.924-4.6-8.024-7.67-13.862-7.67
			c-5.963,0-11.137,3.208-14.027,7.972L4.58,338.92c0,0-2.331,5.51-2.331,8.661c0,9.068,7.294,16.416,16.313,16.5l0.005,0.015
			h261.87l0.01-0.032c0.115,0,0.219,0.032,0.336,0.032c9.091,0,16.466-7.395,16.466-16.515
			C297.249,344.993,296.6,342.577,295.543,340.396z"/>
		<path fill="#606060" d="M295.543,340.396L163.624,111.224l-0.013,0.005c-2.924-4.6-8.024-7.67-13.862-7.67
			c-5.963,0-11.137,3.208-14.027,7.972L4.58,338.92c0,0-2.331,5.51-2.331,8.661c0,9.068,7.294,16.416,16.313,16.5l0.005,0.015
			h261.87l0.01-0.032c0.115,0,0.219,0.032,0.336,0.032c9.091,0,16.466-7.395,16.466-16.515
			C297.249,344.993,296.6,342.577,295.543,340.396z"/>
		<g>
			<g>
				<g>
					<path fill="#232323" d="M163.403,165.473c10.338-7.795,25.022-5.711,32.792,4.656c7.771,10.367,5.691,25.094-4.643,32.884
						c-10.333,7.803-25.02,5.713-32.786-4.651C150.987,187.993,153.07,173.266,163.403,165.473z"/>
				</g>
			</g>
			<g>
				<g>
					<path fill="#FFFFFF" d="M161.725,186.526c4.169-3.152,10.103-2.307,13.24,1.875c3.137,4.191,2.299,10.136-1.87,13.285
						c-4.179,3.146-10.113,2.303-13.245-1.881C156.71,195.624,157.548,189.672,161.725,186.526z"/>
				</g>
			</g>
		</g>
		<g>
			<g>
				<g>
					<path fill="#232323" d="M111.151,198.367c-7.774-10.366-5.696-25.099,4.64-32.889c10.336-7.795,25.02-5.711,32.79,4.656
						c7.779,10.364,5.696,25.096-4.64,32.886C133.602,210.821,118.918,208.731,111.151,198.367z"/>
				</g>
			</g>
			<g>
				<g>
					<path fill="#FFFFFF" d="M132.139,200.051c-3.142-4.182-2.299-10.131,1.87-13.277c4.179-3.146,10.105-2.311,13.245,1.878
						c3.137,4.184,2.296,10.136-1.873,13.284C141.205,205.083,135.276,204.238,132.139,200.051z"/>
				</g>
			</g>
		</g>
		<g>
			<g>
				
					<path fill="none" stroke="#383838" stroke-width="14.2286" stroke-linecap="round" stroke-linejoin="round" stroke-miterlimit="10" d="
					M117.033,225.253c3.404,6.622,10.294,11.147,18.235,11.147c11.329,0,20.508-9.206,20.508-20.568"/>
				
					<path fill="none" stroke="#383838" stroke-width="14.2286" stroke-linecap="round" stroke-linejoin="round" stroke-miterlimit="10" d="
					M152.212,215.833c0,11.362,9.185,20.568,20.513,20.568c7.941,0,14.831-4.53,18.237-11.155"/>
			</g>
			<path fill="#232323" d="M153.994,224.329c10.537,0,19.211-7.965,20.377-18.218c0-1.348,0.219-2.353-1.872-2.353
				c-7.772,0-35.539,0-36.618,0c-1.252,0-2.338,0.164-2.265,2.343C134.776,216.357,143.46,224.329,153.994,224.329z"/>
		</g>
		<polygon fill="#383838" points="34.42,287.179 99.661,311.442 99.661,268.649 46.225,266.711 		"/>
		<path fill="#383838" d="M66.134,338.63c-8.473-0.673-15.152-7.758-15.152-16.431c0-0.462,0.059-0.979,0.145-1.517l-38.24,3.837
			l-8.306,14.4c0,0-2.331,5.51-2.331,8.661c0,9.068,7.294,16.416,16.313,16.5l0.005,0.015h16.691L66.134,338.63z"/>
		<polygon fill="#383838" points="125.686,338.677 92.303,338.7 84.894,364.096 124.506,364.096 		"/>
		<polygon fill="#383838" points="195.345,338.633 167.837,338.651 179.722,364.096 211.736,364.096 		"/>
		<path fill="#383838" d="M297.249,347.582c0-2.589-0.649-5.005-1.706-7.186l-9.473-16.458l-33.263-2.652
			c0.013,0.271,0.049,0.535,0.049,0.809c0,8.545-6.473,15.573-14.767,16.426l32.987,25.576h9.36l0.01-0.032
			c0.115,0,0.219,0.032,0.336,0.032C289.874,364.096,297.249,356.702,297.249,347.582z"/>
		<polygon fill="#383838" points="253.418,267.215 233.727,284.64 244.942,304.122 268.913,294.133 		"/>
		<path fill="#383838" d="M234.759,238.857c-3.794-2.055-8.529-2.148-12.547,0.17c-4.747,2.736-6.997,8.028-6.193,13.145
			l15.093,2.003l4.586-14.815C235.021,238.914,234.759,238.857,234.759,238.857z"/>
		
			<path fill="none" stroke="#FFFFFF" stroke-width="7.125" stroke-linecap="round" stroke-linejoin="round" stroke-miterlimit="10" d="
			M18.568,364.096"/>
		<polygon fill="#383838" points="100.602,328.749 149.857,324.972 149.229,309.24 102.484,304.206 		"/>
		
			<line fill="none" stroke="#383838" stroke-width="7.125" stroke-linecap="round" stroke-linejoin="round" stroke-miterlimit="10" x1="99.975" y1="263.299" x2="99.975" y2="336.3"/>
		<polygon fill="#383838" points="151.111,292.563 202.877,276.83 203.504,308.611 152.053,304.52 		"/>
		
			<line fill="none" stroke="#383838" stroke-width="7.125" stroke-linecap="round" stroke-linejoin="round" stroke-miterlimit="10" x1="151.426" y1="286.27" x2="151.426" y2="336.3"/>
		
			<line fill="none" stroke="#383838" stroke-width="7.125" stroke-linecap="round" stroke-linejoin="round" stroke-miterlimit="10" x1="202.877" y1="272.424" x2="202.877" y2="336.3"/>
		
			<path fill="none" stroke="#383838" stroke-width="7.125" stroke-linecap="round" stroke-linejoin="round" stroke-miterlimit="10" d="
			M234.759,238.857c-3.794-2.055-8.529-2.148-12.547,0.17c-5.801,3.343-7.955,10.509-5.245,16.497l34.185,59.385
			c1.056,2.181,1.705,4.597,1.705,7.186c0,9.12-7.375,16.515-16.465,16.515c-0.118,0-0.221-0.032-0.336-0.032l-0.01,0.032
			L67.3,338.714l-0.005-0.015c-9.02-0.084-16.313-7.432-16.313-16.5c0-3.151,2.331-8.66,2.331-8.66"/>
	</g>
	<g>
		<g>
			<g>
				<g>
					<polygon fill="#FFFFFF" stroke="#E89700" stroke-width="2.5135" stroke-miterlimit="10" points="178.144,134.238 
						65.705,97.627 57.519,71.117 83.943,62.902 					"/>
					<polygon fill="#E89700" points="84.318,63.177 83.943,62.902 57.519,71.117 65.705,97.627 66.791,98.011 89.727,90.764 					
						"/>
				</g>
				<g>
					<polygon fill="#FFFFFF" stroke="#E89700" stroke-width="2.5135" stroke-miterlimit="10" points="120.732,136.126 
						236.827,97.627 245.014,71.117 218.59,62.902 					"/>
					<polygon fill="#E89700" points="236.845,97.573 245.014,71.117 218.59,62.902 208.523,87.199 					"/>
				</g>
				<g>
					<polygon fill="#FFFFFF" stroke="#A7C136" stroke-width="2.5135" stroke-miterlimit="10" points="165.124,139.273 
						76.715,63.644 78.925,35.981 106.504,38.194 					"/>
					<polygon fill="#A7C136" points="107.242,39.374 106.504,38.194 78.925,35.981 76.715,63.644 77.354,64.207 106.876,70.208 
											"/>
				</g>
				<g>
					<polygon fill="#FFFFFF" stroke="#A7C136" stroke-width="2.5135" stroke-miterlimit="10" points="136.575,138.329 
						225.817,63.644 223.606,35.981 196.028,38.194 					"/>
					<polygon fill="#A7C136" points="225.369,64.038 225.817,63.644 223.606,35.981 196.028,38.194 194.72,66.432 					"/>
				</g>
				<g>
					<polygon fill="#FFFFFF" stroke="#C7421C" stroke-width="2.5135" stroke-miterlimit="10" points="151.791,139.43 97.083,37.154 
						109.754,12.48 134.35,25.185 					"/>
					<polygon fill="#C7421C" points="134.536,26.306 134.35,25.185 109.754,12.48 97.083,37.154 98.472,39.998 122.562,52.167 					
						"/>
				</g>
				<g>
					<polygon fill="#FFFFFF" stroke="#C7421C" stroke-width="2.5135" stroke-miterlimit="10" points="151.947,139.745 
						205.45,37.154 192.778,12.48 168.183,25.185 					"/>
					<polygon fill="#C7421C" points="192.778,12.48 168.543,24.998 178.616,54.893 205.45,37.154 205.45,37.154 					"/>
				</g>
				<g>
					<polygon fill="#FFFFFF" stroke="#5194E8" stroke-width="2.5135" stroke-miterlimit="10" points="151.791,138.958 
						132.043,23.574 151.611,3.95 171.173,23.574 					"/>
					<polygon fill="#5194E8" points="151.611,3.95 132.043,23.574 132.198,24.636 151.845,48.811 170.889,25.526 171.173,23.574 
											"/>
				</g>
			</g>
			<path fill="#E8B52F" d="M186.771,146.982v-25.377c0-3.94-3.187-7.136-7.115-7.136h-61.483c-3.931,0-7.115,3.196-7.115,7.136
				v25.377H186.771z"/>
			
				<ellipse fill="#FFFFFF" stroke="#5194E8" stroke-width="2.5135" stroke-miterlimit="10" cx="151.32" cy="130.934" rx="17.882" ry="17.936"/>
		</g>
		<ellipse fill="#5194E8" cx="143.006" cy="125.271" rx="5.02" ry="5.035"/>
		<ellipse fill="#5194E8" cx="159.477" cy="125.271" rx="5.02" ry="5.035"/>
		<path fill="#FFFFFF" stroke="#5194E8" stroke-width="3.5625" stroke-linecap="round" stroke-miterlimit="10" d="M140.67,135.025
			c1.645,4.307,5.777,7.377,10.65,7.377c4.872,0,9.005-3.07,10.651-7.377"/>
	</g>
</g>
</svg>
