<?xml version="1.0" encoding="utf-8"?>
<!-- Generator: Adobe Illustrator 16.0.4, SVG Export Plug-In . SVG Version: 6.00 Build 0)  -->
<!DOCTYPE svg PUBLIC "-//W3C//DTD SVG 1.1//EN" "http://www.w3.org/Graphics/SVG/1.1/DTD/svg11.dtd">
<svg version="1.1" id="Calque_1" xmlns="http://www.w3.org/2000/svg" xmlns:xlink="http://www.w3.org/1999/xlink" x="0px" y="0px"
	 width="300px" height="300px" viewBox="0 0 300 300" enable-background="new 0 0 300 300" xml:space="preserve">
<g>
	<path fill="#606060" d="M129.026,66.077L90.553,55.768h-0.002c-0.802-0.176-1.674,0.042-2.297,0.664
		c-0.635,0.637-0.848,1.529-0.647,2.348l10.201,38.201c0,0,0.338,0.833,0.673,1.169c0.966,0.966,2.525,0.968,3.496,0.015h0.002
		l27.953-27.953v-0.005c0.013-0.012,0.027-0.02,0.04-0.032c0.97-0.971,0.97-2.544,0-3.515
		C129.695,66.383,129.369,66.194,129.026,66.077z"/>
	<path fill="#383838" d="M121.931,70.457l-24.29-6.51h-0.002c-0.505-0.11-1.057,0.027-1.451,0.419
		c-0.4,0.402-0.535,0.965-0.407,1.482l6.439,24.12c0,0,0.215,0.525,0.426,0.738c0.61,0.608,1.593,0.611,2.206,0.01h0.002
		l17.649-17.65v-0.002c0.007-0.009,0.018-0.014,0.024-0.022c0.613-0.613,0.613-1.605,0-2.218
		C122.354,70.651,122.149,70.53,121.931,70.457z"/>
	<path fill="#606060" d="M200.46,97.202l10.309-38.473v-0.002c0.176-0.801-0.041-1.674-0.664-2.297
		c-0.638-0.635-1.529-0.848-2.349-0.647l-38.2,10.201c0,0-0.834,0.339-1.169,0.674c-0.966,0.966-0.969,2.525-0.015,3.495v0.002
		l27.952,27.954h0.005c0.013,0.012,0.021,0.027,0.032,0.039c0.971,0.971,2.545,0.971,3.515,0
		C200.153,97.871,200.342,97.545,200.46,97.202z"/>
	<path fill="#383838" d="M197.166,86.619l5.713-21.321v-0.002c0.098-0.443-0.021-0.927-0.368-1.272
		c-0.353-0.351-0.848-0.47-1.301-0.358l-21.169,5.652c0,0-0.464,0.188-0.65,0.375c-0.533,0.534-0.536,1.397-0.007,1.936l0,0
		l15.49,15.493h0.002c0.008,0.007,0.013,0.015,0.02,0.022c0.538,0.537,1.41,0.537,1.946,0
		C196.997,86.989,197.1,86.807,197.166,86.619z"/>
	<path fill="#464645" d="M295.543,256.393L163.624,27.9l-0.013,0.005c-2.924-4.586-8.024-7.647-13.862-7.647
		c-5.963,0-11.138,3.198-14.027,7.948L4.58,254.922c0,0-2.331,5.493-2.331,8.635c0,9.042,7.294,16.368,16.314,16.452l0.005,0.015
		h261.87l0.01-0.032c0.115,0,0.218,0.032,0.336,0.032c9.091,0,16.466-7.373,16.466-16.467
		C297.249,260.977,296.599,258.566,295.543,256.393z"/>
	<path fill="#606060" d="M295.543,256.393L163.624,27.9l-0.013,0.005c-2.924-4.586-8.024-7.647-13.862-7.647
		c-5.963,0-11.138,3.198-14.027,7.948L4.58,254.922c0,0-2.331,5.493-2.331,8.635c0,9.042,7.294,16.368,16.314,16.452l0.005,0.015
		h261.87l0.01-0.032c0.115,0,0.218,0.032,0.336,0.032c9.091,0,16.466-7.373,16.466-16.467
		C297.249,260.977,296.599,258.566,295.543,256.393z"/>
	<g>
		<g>
			<g>
				<path fill="#232323" d="M163.403,81.988c10.339-7.771,25.021-5.693,32.792,4.643c7.771,10.336,5.69,25.02-4.643,32.787
					c-10.333,7.78-25.02,5.696-32.787-4.637C150.987,104.442,153.069,89.758,163.403,81.988z"/>
			</g>
		</g>
		<g>
			<g>
				<path fill="#FFFFFF" d="M161.725,102.979c4.17-3.142,10.103-2.298,13.24,1.871c3.137,4.179,2.299,10.105-1.87,13.245
					c-4.179,3.138-10.113,2.297-13.245-1.875C156.709,112.05,157.549,106.116,161.725,102.979z"/>
			</g>
		</g>
	</g>
	<g>
		<g>
			<g>
				<path fill="#232323" d="M111.151,114.785c-7.774-10.336-5.696-25.024,4.64-32.792c10.335-7.771,25.019-5.693,32.789,4.643
					c7.779,10.333,5.696,25.022-4.64,32.789C133.602,127.202,118.918,125.118,111.151,114.785z"/>
			</g>
		</g>
		<g>
			<g>
				<path fill="#FFFFFF" d="M132.139,116.464c-3.142-4.169-2.299-10.101,1.87-13.238c4.179-3.137,10.105-2.304,13.245,1.872
					c3.137,4.172,2.297,10.105-1.873,13.246C141.205,121.481,135.276,120.638,132.139,116.464z"/>
			</g>
		</g>
	</g>
	<g>
		<g>
			
				<path fill="none" stroke="#383838" stroke-width="14.2074" stroke-linecap="round" stroke-linejoin="round" stroke-miterlimit="10" d="
				M117.034,141.592c3.404,6.603,10.294,11.114,18.235,11.114c11.329,0,20.508-9.178,20.508-20.507"/>
			
				<path fill="none" stroke="#383838" stroke-width="14.2074" stroke-linecap="round" stroke-linejoin="round" stroke-miterlimit="10" d="
				M152.212,132.199c0,11.329,9.184,20.507,20.513,20.507c7.941,0,14.83-4.516,18.237-11.122"/>
		</g>
		<path fill="#232323" d="M153.994,140.67c10.537,0,19.211-7.942,20.378-18.165c0-1.343,0.218-2.346-1.873-2.346
			c-7.771,0-35.539,0-36.618,0c-1.252,0-2.338,0.164-2.265,2.336C134.776,132.721,143.46,140.67,153.994,140.67z"/>
	</g>
	<polygon fill="#383838" points="34.421,203.334 99.661,227.525 99.661,184.859 46.224,182.928 	"/>
	<path fill="#383838" d="M66.134,254.633c-8.473-0.671-15.152-7.735-15.152-16.382c0-0.461,0.059-0.976,0.145-1.512l-38.24,3.825
		L4.58,254.922c0,0-2.331,5.493-2.331,8.635c0,9.042,7.294,16.368,16.314,16.452l0.005,0.015h16.691L66.134,254.633z"/>
	<polygon fill="#383838" points="125.685,254.68 92.303,254.702 84.894,280.023 124.506,280.023 	"/>
	<polygon fill="#383838" points="195.345,254.636 167.837,254.652 179.722,280.023 211.736,280.023 	"/>
	<path fill="#383838" d="M297.249,263.557c0-2.58-0.65-4.99-1.706-7.164l-9.474-16.409l-33.262-2.644
		c0.013,0.27,0.05,0.534,0.05,0.806c0,8.52-6.474,15.527-14.768,16.378l32.987,25.5h9.36l0.01-0.032
		c0.115,0,0.218,0.032,0.336,0.032C289.874,280.023,297.249,272.65,297.249,263.557z"/>
	<polygon fill="#383838" points="253.418,183.43 233.728,200.802 244.942,220.227 268.913,210.269 	"/>
	<path fill="#383838" d="M234.759,155.155c-3.795-2.049-8.529-2.143-12.547,0.17c-4.747,2.728-6.997,8.004-6.193,13.104
		l15.093,1.997l4.586-14.771C235.021,155.211,234.759,155.155,234.759,155.155z"/>
	
		<path fill="none" stroke="#FFFFFF" stroke-width="7.1144" stroke-linecap="round" stroke-linejoin="round" stroke-miterlimit="10" d="
		M18.568,280.023"/>
	<polygon fill="#383838" points="100.602,244.78 149.857,241.016 149.229,225.33 102.484,220.31 	"/>
	
		<line fill="none" stroke="#383838" stroke-width="7.1144" stroke-linecap="round" stroke-linejoin="round" stroke-miterlimit="10" x1="99.975" y1="179.525" x2="99.975" y2="252.31"/>
	<polygon fill="#383838" points="151.112,208.701 202.877,193.016 203.504,224.702 152.053,220.624 	"/>
	
		<line fill="none" stroke="#383838" stroke-width="7.1144" stroke-linecap="round" stroke-linejoin="round" stroke-miterlimit="10" x1="151.426" y1="202.427" x2="151.426" y2="252.31"/>
	
		<line fill="none" stroke="#383838" stroke-width="7.1144" stroke-linecap="round" stroke-linejoin="round" stroke-miterlimit="10" x1="202.877" y1="188.624" x2="202.877" y2="252.31"/>
	
		<path fill="none" stroke="#383838" stroke-width="7.1144" stroke-linecap="round" stroke-linejoin="round" stroke-miterlimit="10" d="
		M234.759,155.155c-3.795-2.049-8.529-2.143-12.547,0.17c-5.801,3.333-7.955,10.478-5.245,16.448l34.184,59.208
		c1.057,2.174,1.707,4.584,1.707,7.164c0,9.094-7.376,16.465-16.467,16.465c-0.117,0-0.22-0.03-0.335-0.03l-0.01,0.03L67.3,254.717
		l-0.005-0.015c-9.02-0.084-16.313-7.41-16.313-16.451c0-3.142,2.331-8.635,2.331-8.635"/>
</g>
</svg>
