<?xml version="1.0" encoding="iso-8859-1"?>
<!-- Generator: Adobe Illustrator 19.0.0, SVG Export Plug-In . SVG Version: 6.00 Build 0)  -->
<svg version="1.1" id="Layer_1" xmlns="http://www.w3.org/2000/svg" xmlns:xlink="http://www.w3.org/1999/xlink" x="0px" y="0px"
	 viewBox="0 0 512 512" style="enable-background:new 0 0 512 512;" xml:space="preserve">
<g>
	<polygon style="fill:#F4B2B0;" points="279.666,58.564 334.238,190.79 255.999,283.228 177.764,190.79 232.337,58.564 	"/>
	<rect x="218.886" y="13.616" style="fill:#F4B2B0;" width="74.223" height="44.948"/>
</g>
<path style="fill:#B3404A;" d="M358.022,245.885c-7.52,0-13.616,6.097-13.616,13.616v225.266l-176.81-0.001v-225.29
	c0-9.771,3.863-25.991,8.267-34.712l4.789-9.483l49.983,59.059c-26.472,10.218-45.31,35.918-45.31,65.95
	c0,38.969,31.705,70.674,70.675,70.674s70.675-31.705,70.675-70.674c0-7.519-6.096-13.616-13.616-13.616
	s-13.616,6.097-13.616,13.616c0,23.954-19.488,43.441-43.442,43.441s-43.442-19.488-43.442-43.441s19.488-43.442,43.442-43.442
	c0.492,0,0.976-0.029,1.454-0.08c0.097-0.011,0.191-0.031,0.286-0.044c0.387-0.049,0.769-0.109,1.145-0.189
	c0.106-0.023,0.21-0.056,0.315-0.082c0.361-0.087,0.718-0.182,1.066-0.298c0.117-0.038,0.23-0.084,0.346-0.127
	c0.328-0.118,0.654-0.245,0.97-0.388c0.129-0.059,0.255-0.123,0.381-0.184c0.293-0.143,0.581-0.294,0.862-0.458
	c0.138-0.079,0.272-0.162,0.406-0.246c0.261-0.165,0.516-0.338,0.765-0.519c0.136-0.099,0.272-0.199,0.406-0.304
	c0.241-0.189,0.473-0.391,0.701-0.596c0.123-0.11,0.246-0.218,0.365-0.332c0.249-0.241,0.483-0.496,0.714-0.756
	c0.067-0.076,0.142-0.142,0.207-0.219l0.109-0.128c0.004-0.004,0.007-0.008,0.011-0.014l78.119-92.297
	c3.29-3.887,4.137-9.285,2.194-13.992L299.379,70.646c4.364-2.269,7.35-6.822,7.35-12.081V13.616C306.729,6.097,300.633,0,293.112,0
	h-74.226c-7.52,0-13.616,6.097-13.616,13.616v44.949c0,5.259,2.986,9.812,7.35,12.081l-47.245,114.472l-13.821,27.368
	c-6.276,12.428-11.191,33.068-11.191,46.989v238.908c0,7.519,6.096,13.616,13.616,13.616h204.042c7.52,0,13.616-6.097,13.616-13.616
	V259.501C371.639,251.982,365.543,245.885,358.022,245.885z M232.503,27.233H279.5v17.716h-46.997V27.233z M241.447,72.182h29.108
	l47.933,116.139l-62.489,73.831l-62.485-73.83L241.447,72.182z"/>
<g>
</g>
<g>
</g>
<g>
</g>
<g>
</g>
<g>
</g>
<g>
</g>
<g>
</g>
<g>
</g>
<g>
</g>
<g>
</g>
<g>
</g>
<g>
</g>
<g>
</g>
<g>
</g>
<g>
</g>
</svg>
