<?xml version="1.0" encoding="iso-8859-1"?>
<!-- Generator: Adobe Illustrator 19.0.0, SVG Export Plug-In . SVG Version: 6.00 Build 0)  -->
<svg version="1.1" id="Layer_1" xmlns="http://www.w3.org/2000/svg" xmlns:xlink="http://www.w3.org/1999/xlink" x="0px" y="0px"
	 viewBox="0 0 511.998 511.998" style="enable-background:new 0 0 511.998 511.998;" xml:space="preserve">
<g>
	<path style="fill:#F4B2B0;" d="M195.927,293.41c0,26.537-21.521,48.058-48.058,48.058c-0.871,0-1.727-0.03-2.583-0.06
		l-43.613-61.304c5.782-20.064,24.269-34.752,46.196-34.752C174.406,245.352,195.927,266.873,195.927,293.41z"/>
	<circle style="fill:#F4B2B0;" cx="255.999" cy="140.225" r="63.076"/>
</g>
<path style="fill:#B3404A;" d="M255.999,218.319c-43.062,0-78.095-35.033-78.095-78.095s35.033-78.095,78.095-78.095
	s78.095,35.033,78.095,78.095S299.061,218.319,255.999,218.319z M255.999,92.167c-26.5,0-48.058,21.559-48.058,48.058
	s21.559,48.058,48.058,48.058s48.058-21.559,48.058-48.058S282.499,92.167,255.999,92.167z"/>
<circle style="fill:#F4B2B0;" cx="272.519" cy="341.468" r="27.533"/>
<path style="fill:#B3404A;" d="M272.519,384.02c-23.463,0-42.551-19.088-42.551-42.551s19.088-42.553,42.551-42.553
	c23.463,0,42.551,19.09,42.551,42.553S295.982,384.02,272.519,384.02z M272.519,328.952c-6.901,0-12.515,5.614-12.515,12.516
	c0,6.901,5.614,12.515,12.515,12.515c6.901,0,12.515-5.614,12.515-12.515C285.034,334.566,279.42,328.952,272.519,328.952z"/>
<g>
	<path style="fill:#F4B2B0;" d="M295.047,442.105l-39.047,54.876l-39.047-54.861c10.738-8.485,24.299-13.546,39.047-13.546
		S284.309,433.635,295.047,442.105z"/>
	<path style="fill:#F4B2B0;" d="M439.702,239.976l-72.328,103.16c-14.778-11.534-24.269-29.526-24.269-49.725
		c0-34.842,28.234-63.076,63.076-63.076C418.496,230.334,430,233.863,439.702,239.976z"/>
</g>
<path style="fill:#B3404A;" d="M507.88,155.097c-23.172-45.9-58.461-84.641-102.052-112.037C361.001,14.891,309.191,0,255.999,0
	S150.998,14.891,106.171,43.062C62.58,70.456,27.291,109.199,4.119,155.097c-2.513,4.976-2.062,10.935,1.17,15.476l110.321,155.03
	l17.438,24.511c0.014,0.018,0.03,0.035,0.042,0.053l71.563,100.565c0.023,0.032,0.039,0.065,0.062,0.096l39.047,54.861
	c2.819,3.959,7.377,6.309,12.237,6.309c4.858,0,9.418-2.352,12.234-6.311l39.08-54.923l0.105-0.15
	c4.783-6.776,3.167-16.146-3.609-20.931c-0.502-0.354-1.021-0.662-1.548-0.946c-13.474-9.936-29.41-15.183-46.265-15.183
	c-12.385,0-24.269,2.835-35.045,8.278l-49.71-69.856c23.238-9.308,39.701-32.044,39.701-58.568
	c0-34.781-28.296-63.076-63.076-63.076c-18.627,0-35.901,8.334-47.651,21.832l-65.098-91.479
	C79.509,79.867,163.333,30.036,255.999,30.036c92.691,0,176.533,49.856,220.915,130.712l-42.075,60.01
	c-9.065-3.577-18.771-5.443-28.658-5.443c-43.062,0-78.095,35.033-78.095,78.095c0,19.354,7.009,37.557,19.561,51.7l-5.007,7.141
	c-4.761,6.79-3.115,16.157,3.676,20.919c6.79,4.762,16.157,3.115,20.919-3.676l139.532-199.004
	C509.949,165.955,510.374,160.04,507.88,155.097z M255.999,443.592c6.016,0,11.842,1.084,17.29,3.184l-17.292,24.304l-17.292-24.299
	C244.153,444.676,249.98,443.592,255.999,443.592z M118.624,278.023c5.638-10.648,16.874-17.652,29.245-17.652
	c18.219,0,33.04,14.821,33.04,33.04c0,16.537-12.213,30.275-28.093,32.671l-8.856-12.446L118.624,278.023z M406.181,245.352
	c3.589,0,7.138,0.396,10.589,1.171l-51.071,72.84c-4.908-7.629-7.577-16.574-7.577-25.953
	C358.123,266.912,379.683,245.352,406.181,245.352z"/>
<g>
</g>
<g>
</g>
<g>
</g>
<g>
</g>
<g>
</g>
<g>
</g>
<g>
</g>
<g>
</g>
<g>
</g>
<g>
</g>
<g>
</g>
<g>
</g>
<g>
</g>
<g>
</g>
<g>
</g>
</svg>
