<?xml version="1.0" encoding="iso-8859-1"?>
<!-- Generator: Adobe Illustrator 19.0.0, SVG Export Plug-In . SVG Version: 6.00 Build 0)  -->
<svg version="1.1" id="Layer_1" xmlns="http://www.w3.org/2000/svg" xmlns:xlink="http://www.w3.org/1999/xlink" x="0px" y="0px"
	 viewBox="0 0 512 512" style="enable-background:new 0 0 512 512;" xml:space="preserve">
<g>
	<path style="fill:#B3404A;" d="M256.001,266.066c-57.94,0-114.106-11.625-154.098-31.893
		c-19.861-10.067-34.89-21.735-43.458-33.743c-5.075-7.113-3.424-16.993,3.689-22.068c7.11-5.075,16.992-3.422,22.067,3.689
		c2.58,3.617,10.863,13.183,32.005,23.897c35.706,18.096,86.658,28.476,139.794,28.476c53.134,0,104.088-10.38,139.794-28.476
		c24.063-12.196,32.23-23.291,33.754-26.802c-1.524-3.512-9.69-14.607-33.754-26.804c-35.706-18.096-86.66-28.476-139.794-28.476
		s-104.088,10.38-139.792,28.476c-7.795,3.949-17.314,0.834-21.265-6.96s-0.834-17.313,6.96-21.263
		c39.992-20.27,96.159-31.893,154.098-31.893s114.106,11.625,154.098,31.893c32.107,16.273,51.275,36.843,51.275,55.028
		c0,18.183-19.168,38.755-51.275,55.026C370.107,254.441,313.94,266.066,256.001,266.066z"/>
	<path style="fill:#B3404A;" d="M256.001,215.439c-44.616,0-88.77-7.925-121.143-21.742c-5.828-2.487-9.61-8.213-9.61-14.55
		c0-6.336,3.781-12.062,9.61-14.55c32.371-13.818,76.527-21.744,121.144-21.744c8.736,0,15.821,7.085,15.821,15.821
		c0,8.736-7.085,15.821-15.821,15.821c-19.471,0-38.737,1.617-56.675,4.653c17.936,3.034,37.204,4.651,56.675,4.651
		c40.504,0,80.131-6.999,108.722-19.203c8.035-3.435,17.33,0.304,20.762,8.339c3.43,8.035-0.304,17.332-8.339,20.762
		C344.771,207.515,300.617,215.439,256.001,215.439z"/>
</g>
<path style="fill:#F4B2B0;" d="M256.001,300.872c-129.504,0-235.048-51.949-239.979-116.971h-0.201V368.17h0.214
	c-0.097,0.976-0.214,1.949-0.214,2.932c0,46.1,107.532,83.474,240.178,83.474c132.648,0,240.178-37.372,240.178-83.474
	c0-0.984-0.115-1.955-0.214-2.932h0.214V183.901h-0.199C491.049,248.924,385.503,300.872,256.001,300.872z"/>
<path style="fill:#B3404A;" d="M512,179.145c0-8.736-7.085-15.821-15.821-15.821s-15.821,7.085-15.821,15.821
	c0,1.231-0.066,2.465-0.168,3.696c-0.051,0.644-0.119,1.288-0.198,1.932c-0.032,0.256-0.066,0.514-0.103,0.77
	c-0.068,0.483-0.142,0.967-0.225,1.449c-0.068,0.396-0.144,0.791-0.222,1.187c-0.071,0.362-0.146,0.725-0.225,1.085
	c-0.111,0.495-0.231,0.989-0.356,1.484c-0.071,0.277-0.141,0.555-0.217,0.832c-0.153,0.56-0.318,1.119-0.492,1.677
	c-0.07,0.225-0.138,0.449-0.21,0.674c-0.193,0.593-0.4,1.187-0.615,1.778c-0.073,0.199-0.142,0.4-0.218,0.6
	c-0.226,0.6-0.467,1.198-0.715,1.797c-0.084,0.199-0.165,0.4-0.25,0.6c-0.25,0.582-0.514,1.163-0.786,1.743
	c-0.104,0.223-0.204,0.445-0.312,0.666c-0.261,0.541-0.536,1.081-0.816,1.62c-0.138,0.266-0.272,0.533-0.414,0.799
	c-0.256,0.478-0.525,0.954-0.796,1.43c-0.188,0.331-0.372,0.661-0.566,0.99c-0.233,0.396-0.479,0.789-0.721,1.183
	c-0.253,0.41-0.503,0.82-0.766,1.228c-0.193,0.299-0.397,0.598-0.596,0.897c-0.334,0.502-0.668,1.003-1.017,1.503
	c-0.13,0.187-0.267,0.37-0.4,0.557c-0.435,0.609-0.875,1.22-1.335,1.826c-0.043,0.057-0.09,0.114-0.133,0.172
	c-10.361,13.617-26.701,26.449-47.969,37.351c-0.06,0.032-0.12,0.063-0.18,0.095c-0.441,0.225-0.894,0.446-1.338,0.669
	c-1.512,0.759-3.068,1.49-4.615,2.228c-1.547,0.736-3.099,1.468-4.681,2.18c-1.128,0.508-2.277,1-3.42,1.495
	c-1.743,0.755-3.493,1.505-5.275,2.229c-1.003,0.408-2.025,0.802-3.041,1.201c-1.973,0.775-3.952,1.544-5.968,2.283
	c-0.845,0.31-1.705,0.608-2.557,0.911c-2.221,0.791-4.452,1.574-6.722,2.322c-0.672,0.223-1.357,0.432-2.033,0.652
	c-2.473,0.797-4.961,1.58-7.49,2.327c-0.497,0.147-1.003,0.285-1.501,0.429c-2.72,0.791-5.46,1.56-8.239,2.292
	c-0.329,0.087-0.666,0.166-0.997,0.253c-2.949,0.766-5.923,1.508-8.936,2.209c-0.193,0.044-0.389,0.085-0.582,0.13
	c-3.145,0.726-6.317,1.421-9.526,2.074c-0.098,0.021-0.196,0.036-0.294,0.057c-3.295,0.668-6.621,1.3-9.978,1.891
	c-0.055,0.009-0.112,0.017-0.168,0.028c-3.39,0.593-6.811,1.15-10.258,1.663c-0.085,0.013-0.174,0.024-0.259,0.036
	c-3.414,0.506-6.854,0.975-10.318,1.402c-0.207,0.025-0.418,0.046-0.625,0.07c-3.343,0.407-6.705,0.78-10.091,1.112
	c-0.483,0.047-0.971,0.081-1.454,0.127c-3.126,0.296-6.262,0.571-9.42,0.802c-0.894,0.065-1.797,0.106-2.694,0.166
	c-2.769,0.185-5.54,0.367-8.331,0.503c-1.614,0.078-3.245,0.119-4.865,0.179c-2.103,0.079-4.199,0.176-6.313,0.228
	c-3.764,0.09-7.545,0.138-11.342,0.138c-3.797,0-7.577-0.047-11.342-0.138c-2.112-0.052-4.208-0.149-6.311-0.228
	c-1.622-0.062-3.253-0.101-4.868-0.179c-2.792-0.134-5.564-0.318-8.333-0.503c-0.895-0.06-1.799-0.1-2.691-0.165
	c-3.159-0.231-6.295-0.506-9.421-0.802c-0.483-0.044-0.971-0.079-1.454-0.127c-3.386-0.331-6.746-0.706-10.087-1.111
	c-0.209-0.025-0.421-0.046-0.63-0.071c-3.465-0.427-6.904-0.895-10.317-1.402c-0.087-0.013-0.174-0.024-0.261-0.036
	c-3.447-0.514-6.868-1.069-10.258-1.663c-0.055-0.009-0.114-0.019-0.169-0.029c-3.357-0.59-6.683-1.221-9.978-1.891
	c-0.098-0.021-0.196-0.036-0.294-0.057c-3.207-0.653-6.381-1.348-9.526-2.074c-0.193-0.044-0.389-0.085-0.582-0.13
	c-3.011-0.701-5.985-1.443-8.936-2.209c-0.331-0.087-0.666-0.166-0.997-0.253c-2.78-0.731-5.521-1.503-8.241-2.292
	c-0.498-0.146-1.003-0.283-1.498-0.429c-2.528-0.747-5.017-1.531-7.491-2.329c-0.676-0.218-1.361-0.429-2.031-0.65
	c-2.27-0.75-4.501-1.531-6.722-2.322c-0.853-0.304-1.712-0.601-2.557-0.911c-2.017-0.74-3.996-1.509-5.969-2.283
	c-1.014-0.399-2.036-0.793-3.039-1.201c-1.783-0.725-3.533-1.476-5.276-2.231c-1.144-0.495-2.292-0.987-3.419-1.493
	c-1.582-0.712-3.134-1.444-4.681-2.18c-1.547-0.736-3.102-1.467-4.613-2.226c-0.445-0.223-0.899-0.445-1.338-0.669
	c-0.06-0.03-0.117-0.062-0.177-0.092c-21.281-10.91-37.63-23.752-47.991-37.378c-0.036-0.047-0.074-0.095-0.109-0.142
	c-0.467-0.617-0.914-1.236-1.356-1.856c-0.125-0.176-0.255-0.35-0.378-0.525c-0.356-0.508-0.696-1.019-1.035-1.528
	c-0.195-0.293-0.392-0.582-0.581-0.875c-0.267-0.413-0.519-0.827-0.775-1.242c-0.24-0.391-0.484-0.78-0.715-1.171
	c-0.196-0.332-0.383-0.666-0.571-1c-0.269-0.473-0.536-0.948-0.791-1.421c-0.144-0.267-0.278-0.535-0.418-0.802
	c-0.28-0.539-0.555-1.081-0.816-1.62c-0.106-0.218-0.204-0.437-0.307-0.657c-0.274-0.585-0.541-1.171-0.793-1.758
	c-0.082-0.193-0.161-0.388-0.24-0.581c-0.252-0.606-0.497-1.213-0.725-1.819c-0.071-0.191-0.138-0.381-0.207-0.571
	c-0.22-0.604-0.43-1.209-0.627-1.813c-0.068-0.21-0.131-0.422-0.198-0.633c-0.177-0.571-0.346-1.144-0.503-1.717
	c-0.071-0.264-0.138-0.527-0.206-0.791c-0.13-0.508-0.253-1.017-0.367-1.527c-0.076-0.346-0.147-0.695-0.217-1.041
	c-0.082-0.411-0.16-0.821-0.231-1.232c-0.079-0.465-0.152-0.932-0.217-1.397c-0.04-0.275-0.076-0.551-0.111-0.826
	c-0.076-0.625-0.142-1.248-0.191-1.873c-0.103-1.245-0.171-2.489-0.171-3.732c0-25.867,22.48-52.096,61.677-71.961
	c43.189-21.89,100.963-33.945,162.68-33.945c56.096,0,110.003,10.22,151.794,28.78c7.986,3.545,17.333-0.051,20.88-8.039
	c3.545-7.985-0.052-17.333-8.039-20.88C374.9,52.791,316.431,41.604,256.009,41.604C112.449,41.598,0,102.016,0,179.145
	c0,1.096,0.03,2.188,0.074,3.276C0.03,182.91,0,183.402,0,183.901V368.17c0,0.419,0.016,0.832,0.047,1.244
	C0.019,369.942,0,370.508,0,371.102c0,20.906,14.047,50.709,80.974,73.968c46.991,16.332,109.149,25.326,175.025,25.326
	c65.878,0,128.036-8.994,175.027-25.326C497.951,421.81,512,392.007,512,371.102c0-0.593-0.019-1.16-0.047-1.688
	c0.032-0.411,0.047-0.824,0.047-1.244V183.901c0-0.498-0.03-0.99-0.074-1.479C511.97,181.333,512,180.241,512,179.145z
	 M480.358,365.58c-0.226,1.361-0.275,2.759-0.136,4.158l0.046,0.452c0.033,0.327,0.078,0.655,0.09,0.911
	c0,11.277-15.688,28.776-59.72,44.08c-43.737,15.201-102.207,23.571-164.637,23.571S135.1,430.382,91.363,415.182
	c-44.032-15.302-59.722-32.803-59.722-44.007c0.013-0.329,0.057-0.657,0.09-0.984l0.046-0.452c0.139-1.399,0.09-2.797-0.134-4.158
	V246.459c7.463,7.287,16.185,14.196,26.093,20.648c0.108,0.07,0.218,0.138,0.326,0.209c0.967,0.627,1.943,1.251,2.932,1.87
	c44.162,27.72,108.891,45.562,182.698,47.355c0.199,0.005,0.399,0.006,0.598,0.011c3.881,0.09,7.781,0.142,11.711,0.142
	s7.83-0.054,11.711-0.142c0.199-0.005,0.399-0.006,0.598-0.011c73.802-1.792,138.527-19.632,182.689-47.348
	c1.03-0.642,2.044-1.291,3.05-1.944c0.07-0.044,0.141-0.089,0.21-0.134c9.912-6.453,18.638-13.362,26.101-20.652V365.58H480.358z"/>
<g>
</g>
<g>
</g>
<g>
</g>
<g>
</g>
<g>
</g>
<g>
</g>
<g>
</g>
<g>
</g>
<g>
</g>
<g>
</g>
<g>
</g>
<g>
</g>
<g>
</g>
<g>
</g>
<g>
</g>
</svg>
