<?xml version="1.0" encoding="iso-8859-1"?>
<!-- Generator: Adobe Illustrator 19.0.0, SVG Export Plug-In . SVG Version: 6.00 Build 0)  -->
<svg version="1.1" id="Layer_1" xmlns="http://www.w3.org/2000/svg" xmlns:xlink="http://www.w3.org/1999/xlink" x="0px" y="0px"
	 viewBox="0 0 512 512" style="enable-background:new 0 0 512 512;" xml:space="preserve">
<circle style="fill:#F4B2B0;" cx="307.419" cy="88.735" r="27.137"/>
<path style="fill:#B3404A;" d="M307.425,130.023c-22.765,0-41.287-18.521-41.287-41.288c0-22.765,18.521-41.287,41.287-41.287
	c22.767,0,41.288,18.521,41.288,41.287C348.713,111.502,330.192,130.023,307.425,130.023z M307.425,75.76
	c-7.154,0-12.975,5.821-12.975,12.975c0,7.156,5.821,12.977,12.975,12.977c7.156,0,12.977-5.821,12.977-12.977
	C320.401,81.581,314.581,75.76,307.425,75.76z"/>
<path style="fill:#F4B2B0;" d="M340.934,497.844L340.934,497.844c-23.455,0-42.467-19.013-42.467-42.467V341.835h84.934v113.542
	C383.402,478.832,364.388,497.844,340.934,497.844z"/>
<path style="fill:#B3404A;" d="M383.402,0H197.984c-46.066,0-83.541,37.477-83.541,83.543V272.45
	c0,46.066,37.477,83.543,83.543,83.543c7.817,0,14.156-6.339,14.156-14.156V87.538c0-7.817-6.339-14.156-14.156-14.156
	s-14.156,6.339-14.156,14.156v238.296c-23.617-6.268-41.076-27.822-41.076-53.384V83.543c0-30.455,24.777-55.231,55.231-55.231
	h171.26V327.68h-70.779h-34.445c-7.817,0-14.156,6.339-14.156,14.156s6.339,14.156,14.156,14.156h20.289v99.386
	c0,31.222,25.401,56.623,56.623,56.623s56.623-25.401,56.623-56.623V341.835V14.156C397.557,6.339,391.218,0,383.402,0z
	 M369.246,455.377c0,15.611-12.701,28.311-28.311,28.311s-28.311-12.701-28.311-28.311v-99.386h56.623V455.377z"/>
<g>
</g>
<g>
</g>
<g>
</g>
<g>
</g>
<g>
</g>
<g>
</g>
<g>
</g>
<g>
</g>
<g>
</g>
<g>
</g>
<g>
</g>
<g>
</g>
<g>
</g>
<g>
</g>
<g>
</g>
</svg>
