<?xml version="1.0" encoding="iso-8859-1"?>
<!-- Generator: Adobe Illustrator 19.0.0, SVG Export Plug-In . SVG Version: 6.00 Build 0)  -->
<svg version="1.1" id="Layer_1" xmlns="http://www.w3.org/2000/svg" xmlns:xlink="http://www.w3.org/1999/xlink" x="0px" y="0px"
	 viewBox="0 0 512.002 512.002" style="enable-background:new 0 0 512.002 512.002;" xml:space="preserve">
<path style="fill:#B3404A;" d="M439.153,44.052h-17.457c-0.483,0-0.96,0.029-1.432,0.072c-0.472-0.044-0.949-0.072-1.432-0.072
	H208.782c-8.414,0-15.237,6.823-15.237,15.237s6.823,15.237,15.237,15.237h194.809v89.055c0,90.626-73.73,164.354-164.354,164.354
	S74.883,254.207,74.883,163.581V74.526h49.081c8.414,0,15.237-6.823,15.237-15.237s-6.823-15.237-15.237-15.237H59.647
	c-8.414,0-15.237,6.823-15.237,15.237v104.292c0,107.429,87.399,194.828,194.828,194.828s194.828-87.399,194.828-194.828V74.526
	h5.086c23.366,0,42.375,19.01,42.375,42.375c0,12.18-5.251,23.785-14.408,31.837c-6.319,5.557-6.937,15.185-1.38,21.504
	c3.014,3.425,7.219,5.174,11.449,5.174c3.573,0,7.161-1.249,10.056-3.794c15.734-13.838,24.758-33.783,24.758-54.722
	C512,76.731,479.322,44.052,439.153,44.052z"/>
<polygon style="fill:#F4B2B0;" points="432.746,452.713 45.729,452.713 15.237,396.342 463.239,396.342 "/>
<path style="fill:#B3404A;" d="M432.747,467.95H45.731c-5.595,0-10.74-3.067-13.402-7.987L1.835,403.591
	c-2.554-4.722-2.435-10.44,0.314-15.051c2.749-4.611,7.719-7.436,13.088-7.436h448.002c5.368,0,10.34,2.825,13.088,7.436
	c2.749,4.611,2.868,10.329,0.314,15.051l-30.494,56.372C443.486,464.882,438.341,467.95,432.747,467.95z M54.812,437.476h368.854
	l14.009-25.898H40.802L54.812,437.476z"/>
<path style="fill:#F4B2B0;" d="M269.399,135.766c-20.34,0-28.12,12.768-30.465,18.104c-2.342-5.336-10.065-18.104-30.405-18.104
	c-20.686,0-38.883,14.122-38.883,39.907c0,10.434,2.127,19.374,8.028,29.349c13.415,22.676,61.159,52.848,61.255,52.79
	c0.096,0.059,47.845-29.934,61.367-52.79c5.901-9.976,8.013-18.915,8.013-29.349C308.312,149.888,290.084,135.766,269.399,135.766z"
	/>
<path style="fill:#B3404A;" d="M239.106,272.762c-0.096,0-0.197,0-0.296,0c-4.851,0-6.852-1.231-16.175-7.53
	c-4.408-2.977-11.211-7.637-18.606-13.267c-19.611-14.932-32.89-28.103-39.467-39.22c-7.02-11.866-10.151-23.293-10.151-37.09
	c0-31.953,22.761-55.135,54.12-55.135c13.669,0,23.495,4.306,30.413,9.599c6.927-5.293,16.767-9.592,30.455-9.592
	c31.377,0,54.15,23.192,54.15,55.145c0,13.814-3.127,25.26-10.137,37.109c-6.625,11.198-19.942,24.432-39.584,39.339
	c-7.402,5.618-14.214,10.189-18.627,13.156C245.981,271.475,243.854,272.762,239.106,272.762z M208.529,151.003
	c-11.431,0-23.646,6.482-23.646,24.67c0,8.246,1.711,14.502,5.904,21.591c7.797,13.18,33.713,32.584,48.162,42.406
	c14.455-9.79,40.391-29.151,48.232-42.406c4.184-7.073,5.891-13.326,5.891-21.591c0-18.19-12.231-24.67-23.677-24.67
	c-10.382,0-14.71,4.912-16.512,9.016c-2.432,5.536-7.905,9.131-13.951,9.131c-0.002,0-0.002,0-0.003,0
	c-6.048,0-11.522-3.6-13.949-9.139C223.182,155.914,218.867,151.003,208.529,151.003z"/>
<g>
</g>
<g>
</g>
<g>
</g>
<g>
</g>
<g>
</g>
<g>
</g>
<g>
</g>
<g>
</g>
<g>
</g>
<g>
</g>
<g>
</g>
<g>
</g>
<g>
</g>
<g>
</g>
<g>
</g>
</svg>
