<?xml version="1.0" encoding="iso-8859-1"?>
<!-- Generator: Adobe Illustrator 19.0.0, SVG Export Plug-In . SVG Version: 6.00 Build 0)  -->
<svg version="1.1" id="Layer_1" xmlns="http://www.w3.org/2000/svg" xmlns:xlink="http://www.w3.org/1999/xlink" x="0px" y="0px"
	 viewBox="0 0 512 512" style="enable-background:new 0 0 512 512;" xml:space="preserve">
<rect x="87.042" y="14.693" style="fill:#F4B2B0;" width="337.923" height="82.78"/>
<g>
	<path style="fill:#B3404A;" d="M244.532,512c-3.761,0-7.52-1.435-10.389-4.304c-5.738-5.738-5.738-15.041,0-20.78l25.777-25.777
		l-25.999-13.332c-7.222-3.704-10.072-12.558-6.369-19.78c3.703-7.22,12.557-10.075,19.778-6.369l34.542,17.714
		c6.347,3.256,10.796,9.405,11.903,16.452c1.106,7.045-1.243,14.262-6.286,19.307l-32.568,32.567
		C252.052,510.564,248.292,512,244.532,512z"/>
	<path style="fill:#B3404A;" d="M424.964,0H87.036c-8.115,0-14.693,6.579-14.693,14.693v82.78c0,8.113,6.578,14.693,14.693,14.693
		h99.912v108.51c0,8.113,6.578,14.693,14.693,14.693h38.85v42.438l-15.979,15.98c-5.107,5.109-7.442,12.411-6.247,19.534
		c1.195,7.123,5.783,13.263,12.276,16.428l21.825,10.632l-18.838,10.143c-7.432,4.002-11.942,11.731-11.771,20.17
		c0.172,8.44,4.991,15.979,12.58,19.677l29.956,14.595c2.073,1.009,4.265,1.487,6.425,1.487c5.444,0,10.676-3.037,13.219-8.26
		c3.554-7.295,0.522-16.09-6.773-19.644l-17.689-8.617l18.838-10.143c7.433-4.002,11.942-11.729,11.772-20.17
		c-0.172-8.438-4.991-15.979-12.582-19.677l-25.273-12.311l13.344-13.344c2.755-2.755,4.304-6.493,4.304-10.389v-48.523h40.483
		c8.115,0,14.693-6.579,14.693-14.693v-61.602c0-8.113-6.578-14.693-14.693-14.693c-8.115,0-14.693,6.579-14.693,14.693v46.909
		h-79.333v-93.82h208.629c8.115,0,14.693-6.579,14.693-14.693v-82.78C439.657,6.579,433.079,0,424.964,0z M410.271,82.78H101.729
		V29.386h308.543V82.78z"/>
</g>
<g>
</g>
<g>
</g>
<g>
</g>
<g>
</g>
<g>
</g>
<g>
</g>
<g>
</g>
<g>
</g>
<g>
</g>
<g>
</g>
<g>
</g>
<g>
</g>
<g>
</g>
<g>
</g>
<g>
</g>
</svg>
