<?xml version="1.0" encoding="iso-8859-1"?>
<!-- Generator: Adobe Illustrator 19.0.0, SVG Export Plug-In . SVG Version: 6.00 Build 0)  -->
<svg version="1.1" id="Layer_1" xmlns="http://www.w3.org/2000/svg" xmlns:xlink="http://www.w3.org/1999/xlink" x="0px" y="0px"
	 viewBox="0 0 512.003 512.003" style="enable-background:new 0 0 512.003 512.003;" xml:space="preserve">
<g>
	<path style="fill:#F4B2B0;" d="M159.415,230.88l0.003,145.984c0,43.344,43.243,78.485,96.586,78.488l-0.001-78.491
		C256.005,280.581,212.76,230.878,159.415,230.88L159.415,230.88z"/>
	<path style="fill:#F4B2B0;" d="M352.588,376.86c0,43.349-43.242,78.488-96.585,78.491l-0.001-78.491
		c0-96.282,43.246-145.981,96.586-145.981V376.86z"/>
</g>
<path style="fill:#B3404A;" d="M366.754,376.86l-0.001-145.981c0-7.824-6.343-14.166-14.166-14.166
	c-31.744,0-60.092,15.205-79.821,42.815c-6.634,9.284-12.222,19.91-16.763,31.674c-4.543-11.764-10.13-22.389-16.763-31.673
	c-12.78-17.884-29.18-30.556-47.772-37.269c0-0.826,0.001-1.698,0.001-2.679c0.003-6.455,0.004-13.374,0.007-14.46
	c0.013-0.484,0.031-0.963,0.045-1.446h50.32v26.905c0,7.824,6.343,14.166,14.166,14.166c7.822,0,14.165-6.342,14.165-14.166v-26.907
	h5.663c7.822,0,14.166-6.342,14.166-14.166s-6.343-14.166-14.166-14.166h-5.663V34.024c17.71,13.733,36.395,52.189,45.478,113.632
	c1.145,7.739,8.339,13.086,16.085,11.942c7.739-1.145,13.085-8.346,11.942-16.085C330.589,54.991,296.994,0,256.002,0
	c-39.601,0-67.462,48.888-81.821,112.549c-0.381,1.079-0.642,2.214-0.751,3.397c-6.012,27.791-9.488,58.24-10.28,88.577
	c-0.007,0.272-0.008,0.3-0.013,12.269c-1.237-0.047-2.476-0.078-3.723-0.078c-3.757,0-7.36,1.493-10.016,4.149
	s-4.149,6.26-4.149,10.016l0.003,145.984c0,38.044,27.562,70.794,66.851,85.046v35.928c0,7.824,6.343,14.166,14.166,14.166h59.465
	c7.822,0,14.165-6.342,14.165-14.166v-35.928C339.191,447.659,366.754,414.907,366.754,376.86z M241.839,33.999v141.344h-48.693
	c1.35-15.609,3.397-30.304,5.991-43.923h15.785c7.822,0,14.166-6.342,14.166-14.166s-6.343-14.166-14.166-14.166h-9.202
	C215.281,68.776,228.481,44.423,241.839,33.999z M173.583,376.862l-0.003-130.348c16.7,3.568,31.245,13.583,42.608,29.486
	c16.78,23.484,25.648,58.359,25.647,100.86l0.003,63.374C203.117,434.976,173.583,408.559,173.583,376.862z M271.569,483.669
	h-31.134v-15.086c5.091,0.602,10.284,0.935,15.569,0.935c5.284,0,10.475-0.332,15.564-0.934v15.085H271.569z M270.171,440.235
	l-0.003-63.375c0-72.246,26.334-121.427,68.255-130.354l0.001,130.354C338.423,408.558,308.891,434.976,270.171,440.235z"/>
<g>
</g>
<g>
</g>
<g>
</g>
<g>
</g>
<g>
</g>
<g>
</g>
<g>
</g>
<g>
</g>
<g>
</g>
<g>
</g>
<g>
</g>
<g>
</g>
<g>
</g>
<g>
</g>
<g>
</g>
</svg>
