<?xml version="1.0" encoding="iso-8859-1"?>
<!-- Generator: Adobe Illustrator 19.0.0, SVG Export Plug-In . SVG Version: 6.00 Build 0)  -->
<svg version="1.1" id="Layer_1" xmlns="http://www.w3.org/2000/svg" xmlns:xlink="http://www.w3.org/1999/xlink" x="0px" y="0px"
	 viewBox="0 0 512.006 512.006" style="enable-background:new 0 0 512.006 512.006;" xml:space="preserve">
<g>
	<circle style="fill:#F4B2B0;" cx="317.701" cy="155.221" r="34.858"/>
	<circle style="fill:#F4B2B0;" cx="194.306" cy="155.221" r="34.858"/>
	<path style="fill:#F4B2B0;" d="M52.133,27.67H63.7v66.091h49.569v44.611c0,20.988-17.014,38.002-38.002,38.002H52.133
		c-20.988,0.001-38.002-17.013-38.002-38.001v-72.7C14.131,44.684,31.145,27.67,52.133,27.67z"/>
	<path style="fill:#F4B2B0;" d="M459.867,27.67H448.3v66.091h-49.569v44.611c0,20.988,17.014,38.002,38.002,38.002h23.132
		c20.988,0,38.002-17.014,38.002-38.002V65.673C497.869,44.684,480.854,27.67,459.867,27.67z"/>
</g>
<g>
	<path style="fill:#B3404A;" d="M340.389,445.92c-20.581,13.439-44.641,21.494-70.257,23.664v-64.011
		c0-7.803-6.327-14.131-14.131-14.131c-7.805,0-14.131,6.328-14.131,14.131v64.025c-69.214-5.945-123.388-55.064-123.388-114.585
		c0-7.803-6.327-14.131-14.131-14.131H53.082c-7.805,0-14.131,6.328-14.131,14.131c0,7.803,6.327,14.131,14.131,14.131h37.941
		c1.197,10.548,3.726,20.762,7.429,30.521H77.183c-5.353,0-10.245,3.024-12.639,7.81l-17.635,35.269
		c-3.49,6.981-0.661,15.47,6.32,18.96c2.029,1.015,4.184,1.495,6.308,1.495c5.183,0,10.175-2.862,12.65-7.813l13.729-27.459h27.37
		c28.897,42.188,82.048,70.538,142.714,70.538c36.383,0,70.907-9.987,99.841-28.882c6.536-4.268,8.373-13.023,4.107-19.559
		C355.68,443.489,346.923,441.653,340.389,445.92z"/>
	<path style="fill:#B3404A;" d="M459.867,13.54H448.3c-7.805,0-14.131,6.328-14.131,14.131v51.96h-35.437
		c-7.805,0-14.131,6.328-14.131,14.131v44.611c0,28.504,22.997,51.726,51.411,52.115l-1.239,26.841l-61.175,36.675
		c-12.184-10.62-26.267-19.604-41.771-26.534v-25.345c20.144-6.081,34.858-24.802,34.858-46.902
		c0-27.012-21.977-48.989-48.989-48.989c-27.012,0-48.989,21.977-48.989,48.989c0,22.1,14.714,40.821,34.858,46.902v15.463
		c-15.074-3.914-31.039-6.027-47.566-6.027c-16.416,0-32.396,2.066-47.566,5.958v-15.393c20.143-6.081,34.858-24.802,34.858-46.902
		c0-27.012-21.976-48.989-48.989-48.989s-48.989,21.977-48.989,48.989c0,22.1,14.714,40.821,34.858,46.902v25.178
		c-15.479,6.859-29.648,15.809-41.96,26.587l-60.984-36.562l-1.239-26.841c28.414-0.389,51.411-23.611,51.411-52.115V93.761
		c0-7.803-6.327-14.131-14.131-14.131H77.831V27.671c0-7.803-6.327-14.131-14.131-14.131H52.133C23.387,13.54,0,36.926,0,65.672
		v72.7c0,27.248,21.016,49.666,47.686,51.931l1.658,35.899c0.218,4.73,2.79,9.036,6.849,11.469l62.175,37.276
		c-1.727,2.233-3.406,4.501-5,6.831l-42.306-9.451c-7.622-1.704-15.171,3.092-16.871,10.712c-1.701,7.617,3.093,15.17,10.71,16.871
		l51.893,11.592c0.529,0.123,1.06,0.211,1.591,0.271c0.138,0.016,0.276,0.02,0.414,0.031c0.341,0.03,0.681,0.052,1.022,0.057
		c0.062,0,0.126,0.01,0.188,0.01c0.206,0,0.411-0.017,0.616-0.027c0.141-0.007,0.283-0.007,0.424-0.018
		c0.384-0.028,0.766-0.073,1.143-0.133c0.041-0.007,0.081-0.01,0.122-0.016c0.441-0.073,0.876-0.167,1.306-0.281
		c0.017-0.004,0.033-0.011,0.049-0.016c0.39-0.106,0.774-0.228,1.153-0.366c0.136-0.049,0.267-0.107,0.4-0.16
		c0.254-0.102,0.506-0.206,0.753-0.322c0.17-0.079,0.335-0.165,0.502-0.25c0.203-0.106,0.406-0.215,0.603-0.329
		c0.179-0.105,0.358-0.212,0.533-0.324c0.181-0.116,0.356-0.236,0.531-0.36c0.174-0.123,0.348-0.244,0.516-0.374
		c0.185-0.144,0.363-0.297,0.541-0.451c0.143-0.123,0.29-0.239,0.428-0.367c0.308-0.287,0.603-0.586,0.886-0.9
		c0.055-0.062,0.106-0.13,0.161-0.194c0.24-0.277,0.471-0.561,0.69-0.858c0.066-0.089,0.127-0.182,0.191-0.274
		c0.201-0.285,0.391-0.578,0.571-0.879c0.03-0.049,0.065-0.095,0.095-0.146c20.834-35.905,62.892-60.253,109.651-64.38v111.057
		c0,7.803,6.327,14.131,14.131,14.131c7.805,0,14.131-6.328,14.131-14.131V240.423c69.214,5.945,123.388,55.064,123.388,114.585
		c0,17.948-4.865,35.696-14.068,51.343c-1.344,2.162-2.132,4.706-2.132,7.439c0,3.64,1.388,6.947,3.649,9.452
		c0.014,0.016,0.028,0.031,0.042,0.047c0.295,0.325,0.606,0.636,0.931,0.931c0.023,0.021,0.045,0.042,0.069,0.062
		c0.332,0.298,0.677,0.581,1.034,0.846c0.017,0.013,0.035,0.027,0.052,0.04c0.376,0.277,0.763,0.533,1.166,0.772
		c0.006,0.003,0.011,0.007,0.017,0.011c0.003,0.001,0.006,0.003,0.008,0.004c1.05,0.619,2.183,1.106,3.384,1.439
		c0.107,0.03,0.215,0.057,0.322,0.083c0.441,0.112,0.889,0.201,1.345,0.269c0.147,0.023,0.293,0.049,0.439,0.066
		c0.506,0.059,1.017,0.096,1.538,0.1c0.048,0,0.096,0.01,0.144,0.01c0.014,0,0.028-0.003,0.044-0.003h34.579l13.729,27.459
		c2.476,4.952,7.467,7.815,12.65,7.813c2.123,0,4.28-0.48,6.308-1.495c6.981-3.49,9.81-11.979,6.32-18.96l-17.635-35.269
		c-2.394-4.788-7.288-7.81-12.639-7.81h-21.057c3.636-9.855,6.067-20.105,7.224-30.521h37.934c7.805,0,14.131-6.328,14.131-14.131
		s-6.327-14.131-14.131-14.131h-37.941c-1.327-11.684-4.285-22.958-8.665-33.655l34.615-7.276
		c7.638-1.605,12.527-9.098,10.922-16.736c-1.605-7.639-9.099-12.525-16.736-10.922l-42.932,9.024
		c-1.487-2.139-3.031-4.246-4.642-6.312l62.268-37.331c4.06-2.435,6.632-6.741,6.849-11.469l1.658-35.899
		c26.672-2.265,47.686-24.683,47.686-51.931V65.672C512,36.926,488.614,13.54,459.867,13.54z M296.972,155.222
		c0-11.429,9.298-20.726,20.726-20.726c11.428,0,20.726,9.297,20.726,20.726s-9.298,20.726-20.726,20.726
		S296.972,166.652,296.972,155.222z M173.577,155.222c0-11.429,9.298-20.726,20.726-20.726c11.428,0,20.726,9.297,20.726,20.726
		s-9.298,20.726-20.726,20.726C182.874,175.949,173.577,166.652,173.577,155.222z M28.263,138.372v-72.7
		c0-12.294,9.345-22.449,21.306-23.734v51.822c0,7.803,6.327,14.131,14.131,14.131h35.437v30.48
		c0,13.162-10.709,23.872-23.872,23.872H52.133C38.971,162.244,28.263,151.535,28.263,138.372z M483.737,138.372
		c0,13.162-10.709,23.872-23.871,23.872h-23.132c-13.162,0-23.872-10.709-23.872-23.872v-30.48H448.3
		c7.805,0,14.131-6.328,14.131-14.131V41.938c11.959,1.285,21.306,11.439,21.306,23.734V138.372z"/>
</g>
<g>
</g>
<g>
</g>
<g>
</g>
<g>
</g>
<g>
</g>
<g>
</g>
<g>
</g>
<g>
</g>
<g>
</g>
<g>
</g>
<g>
</g>
<g>
</g>
<g>
</g>
<g>
</g>
<g>
</g>
</svg>
