<?xml version="1.0" encoding="iso-8859-1"?>
<!-- Generator: Adobe Illustrator 19.0.0, SVG Export Plug-In . SVG Version: 6.00 Build 0)  -->
<svg version="1.1" id="Layer_1" xmlns="http://www.w3.org/2000/svg" xmlns:xlink="http://www.w3.org/1999/xlink" x="0px" y="0px"
	 viewBox="0 0 512.011 512.011" style="enable-background:new 0 0 512.011 512.011;" xml:space="preserve">
<path style="fill:#F4B2B0;" d="M256.72,14.392C124.583,13.982,16.912,119.728,14.425,251.365
	c14.781,7.139,29.765,14.184,59.364,14.276c45.642,0.141,56.641-16.459,85.671-24.345c7.112-47.061,47.794-83.069,96.814-82.916
	c53.914,0.167,97.486,44.009,97.319,97.925c-0.004,1.511-0.055,3.012-0.128,4.507c25.426-8.311,37.72-22.967,80.618-22.834
	c32.335,0.101,47.231,8.495,63.471,16.25C496.608,121.95,389.312,14.804,256.72,14.392z"/>
<g>
	<path style="fill:#B3404A;" d="M511.955,254.995l-0.01-0.878v-0.001c-0.486-67.819-27.22-131.548-75.281-179.448
		c-48.098-47.939-111.986-74.456-179.9-74.666L255.957,0C188.46,0,124.769,26.048,76.615,73.341
		C28.505,120.59,1.309,183.716,0.037,251.092v0.001c0,0.01,0,0.02,0,0.03v0.001c0,0.009,0,0.016,0,0.024
		c-0.001,0.086-0.001,0.17-0.001,0.256c0,0.58,0.045,1.151,0.112,1.714c0.004,0.033,0.007,0.066,0.012,0.099
		c0.653,5.165,4.047,9.494,8.708,11.445c0.105,0.05,0.212,0.102,0.317,0.153c0.206,0.098,0.412,0.197,0.617,0.298
		c0.286,0.138,0.573,0.275,0.861,0.414c0.207,0.099,0.414,0.199,0.623,0.298c0.279,0.134,0.56,0.268,0.842,0.402
		c0.206,0.098,0.412,0.196,0.619,0.294c0.281,0.132,0.561,0.265,0.843,0.397c0.216,0.101,0.432,0.201,0.649,0.302
		c0.275,0.128,0.553,0.256,0.829,0.384c0.222,0.102,0.443,0.204,0.666,0.307c0.282,0.128,0.564,0.256,0.849,0.386
		c0.222,0.101,0.443,0.2,0.668,0.299c0.291,0.13,0.583,0.259,0.876,0.389c0.223,0.098,0.448,0.197,0.672,0.295
		c0.292,0.127,0.589,0.255,0.884,0.381c0.232,0.099,0.465,0.199,0.699,0.298c0.295,0.124,0.591,0.248,0.891,0.371
		c0.239,0.099,0.479,0.199,0.721,0.296c0.299,0.122,0.603,0.245,0.907,0.366c0.246,0.098,0.491,0.197,0.74,0.295
		c0.307,0.119,0.616,0.239,0.925,0.358c0.25,0.096,0.501,0.193,0.754,0.288c0.314,0.118,0.632,0.236,0.95,0.353
		c0.258,0.095,0.514,0.19,0.774,0.284c0.321,0.115,0.645,0.229,0.97,0.342c0.263,0.092,0.525,0.184,0.792,0.276
		c0.331,0.114,0.665,0.225,1,0.337c0.269,0.089,0.537,0.18,0.809,0.268c0.335,0.109,0.678,0.216,1.017,0.324
		c0.281,0.089,0.56,0.177,0.843,0.265c0.343,0.105,0.689,0.207,1.036,0.309c0.289,0.086,0.576,0.173,0.868,0.256
		c0.351,0.101,0.708,0.2,1.065,0.299c0.298,0.083,0.594,0.167,0.897,0.248c0.36,0.096,0.725,0.19,1.089,0.285
		c0.308,0.079,0.613,0.16,0.925,0.239c0.371,0.092,0.748,0.181,1.125,0.272c0.315,0.075,0.626,0.151,0.945,0.226
		c0.378,0.088,0.764,0.171,1.147,0.256c0.33,0.073,0.656,0.147,0.99,0.217c0.386,0.082,0.78,0.16,1.173,0.24
		c0.34,0.068,0.675,0.138,1.019,0.204c0.399,0.078,0.806,0.15,1.212,0.225c0.35,0.063,0.697,0.13,1.051,0.191
		c0.413,0.072,0.836,0.14,1.256,0.21c0.355,0.059,0.707,0.118,1.068,0.174c0.43,0.068,0.871,0.13,1.308,0.194
		c0.363,0.053,0.722,0.108,1.091,0.158c0.443,0.06,0.897,0.118,1.347,0.176c0.374,0.048,0.743,0.098,1.122,0.144
		c0.459,0.055,0.928,0.104,1.394,0.155c0.384,0.042,0.763,0.088,1.153,0.127c0.471,0.049,0.953,0.091,1.432,0.135
		c0.397,0.036,0.789,0.076,1.192,0.111c0.489,0.042,0.99,0.076,1.487,0.114c0.406,0.03,0.806,0.063,1.217,0.092
		c0.499,0.033,1.013,0.06,1.521,0.091c0.423,0.024,0.839,0.053,1.268,0.075c0.534,0.027,1.084,0.047,1.628,0.069
		c0.414,0.017,0.822,0.037,1.242,0.053c0.591,0.02,1.199,0.033,1.802,0.049c0.387,0.009,0.767,0.023,1.16,0.03
		c1,0.019,2.015,0.03,3.045,0.033c0.206,0,0.409,0.001,0.613,0.001c0,0,0.001,0,0.003,0h0.01c32.885,0,50.311-8.288,65.686-15.6
		c0.076-0.036,0.153-0.072,0.229-0.108c1.061-0.505,2.113-1.003,3.163-1.497c0.232-0.109,0.465-0.216,0.697-0.325
		c3.372,58.596,52.016,105.326,111.48,105.51c0.115,0,0.23,0,0.345,0c25.747,0,50.873-8.944,70.789-25.204
		c6.156-5.027,7.073-14.092,2.046-20.248c-5.025-6.155-14.09-7.07-20.248-2.046c-14.791,12.077-33.456,18.717-52.587,18.717
		c-0.085,0-0.173,0-0.256,0c-45.894-0.142-83.115-37.596-82.972-83.491c0.013-4.071,0.332-8.21,0.95-12.299v-0.004
		c6.092-40.289,41.46-70.67,82.275-70.67h0.263c45.894,0.142,83.115,37.595,82.972,83.493c-0.003,1.144-0.037,2.366-0.111,3.844
		c-0.004,0.088,0.006,0.173,0.003,0.259c-0.013,0.412-0.007,0.823,0.016,1.238c0.009,0.154,0.016,0.308,0.03,0.462
		c0.036,0.404,0.094,0.81,0.164,1.215c0.024,0.14,0.042,0.281,0.069,0.42c0.105,0.508,0.233,1.015,0.396,1.52
		c0.006,0.019,0.009,0.037,0.016,0.056c0,0.001,0.001,0.004,0.001,0.004c0.171,0.522,0.373,1.02,0.594,1.507
		c0.058,0.125,0.125,0.245,0.186,0.368c0.181,0.368,0.373,0.73,0.581,1.078c0.079,0.131,0.164,0.259,0.247,0.389
		c0.219,0.338,0.449,0.666,0.694,0.981c0.089,0.115,0.177,0.23,0.269,0.342c0.286,0.348,0.589,0.681,0.904,0.997
		c0.065,0.065,0.124,0.134,0.19,0.199c0.4,0.387,0.819,0.751,1.258,1.088c0.009,0.006,0.016,0.014,0.026,0.022
		c0.04,0.03,0.083,0.053,0.124,0.083c0.383,0.285,0.779,0.55,1.186,0.794c0.132,0.081,0.266,0.153,0.402,0.229
		c0.347,0.194,0.701,0.374,1.064,0.54c0.135,0.06,0.269,0.124,0.406,0.181c0.446,0.187,0.899,0.354,1.363,0.495
		c0.042,0.013,0.082,0.03,0.125,0.042c0.537,0.158,1.082,0.285,1.638,0.38c0.033,0.004,0.066,0.007,0.098,0.013
		c0.496,0.082,1,0.134,1.507,0.164c0.112,0.006,0.223,0.007,0.335,0.012c0.43,0.014,0.862,0.01,1.297-0.016
		c0.135-0.007,0.269-0.014,0.403-0.026c0.422-0.036,0.843-0.094,1.266-0.17c0.128-0.023,0.258-0.037,0.386-0.063
		c0.537-0.111,1.072-0.243,1.605-0.419c4.835-1.58,9.168-3.336,13.256-5.146c3.106-1.374,6.073-2.779,8.989-4.165
		c3.605-1.714,7.089-3.37,10.695-4.89c0.012-0.004,0.023-0.01,0.035-0.016c0.855-0.36,1.718-0.711,2.592-1.055
		c0.063-0.026,0.127-0.052,0.19-0.076c0.832-0.325,1.675-0.642,2.528-0.951c0.107-0.039,0.213-0.079,0.319-0.117
		c0.819-0.294,1.654-0.577,2.5-0.853c0.148-0.049,0.294-0.098,0.442-0.147c0.822-0.265,1.661-0.517,2.511-0.763
		c0.181-0.053,0.36-0.107,0.543-0.158c0.835-0.236,1.691-0.461,2.559-0.679c0.21-0.053,0.417-0.108,0.63-0.158
		c0.859-0.21,1.741-0.406,2.638-0.596c0.239-0.052,0.475-0.104,0.717-0.153c0.894-0.181,1.815-0.351,2.749-0.512
		c0.263-0.045,0.521-0.092,0.787-0.137c0.943-0.155,1.914-0.296,2.9-0.43c0.279-0.037,0.554-0.079,0.838-0.115
		c1.009-0.128,2.049-0.242,3.108-0.348c0.284-0.029,0.563-0.059,0.851-0.085c1.095-0.101,2.225-0.186,3.379-0.26
		c0.275-0.019,0.544-0.037,0.823-0.055c1.203-0.071,2.445-0.124,3.716-0.165c0.25-0.007,0.495-0.019,0.748-0.026
		c1.343-0.037,2.727-0.056,4.147-0.059c0.307,0,0.606-0.004,0.915-0.004c1.367,0.004,2.687,0.029,3.982,0.062
		c0.177,0.004,0.357,0.007,0.532,0.013c1.216,0.036,2.398,0.089,3.553,0.151c0.219,0.012,0.437,0.024,0.655,0.036
		c1.13,0.066,2.233,0.145,3.31,0.236c0.199,0.017,0.394,0.035,0.591,0.053c1.091,0.096,2.16,0.204,3.198,0.325
		c0.115,0.013,0.226,0.029,0.341,0.042c1.017,0.121,2.012,0.255,2.982,0.397c0.101,0.014,0.204,0.029,0.305,0.043
		c0.983,0.148,1.937,0.309,2.875,0.479c0.17,0.03,0.341,0.06,0.509,0.091c0.902,0.168,1.783,0.347,2.648,0.534
		c0.177,0.037,0.351,0.076,0.527,0.117c0.859,0.191,1.704,0.39,2.53,0.599c0.142,0.036,0.283,0.073,0.425,0.111
		c0.851,0.22,1.69,0.446,2.51,0.684c0.046,0.013,0.091,0.027,0.138,0.04c0.802,0.233,1.587,0.476,2.363,0.725
		c0.125,0.04,0.253,0.079,0.378,0.119c0.757,0.246,1.5,0.502,2.235,0.763c0.157,0.056,0.315,0.112,0.471,0.168
		c0.717,0.259,1.426,0.522,2.126,0.793c0.157,0.06,0.312,0.122,0.469,0.183c0.702,0.275,1.4,0.554,2.09,0.84
		c0.122,0.052,0.245,0.104,0.367,0.154c0.643,0.269,1.284,0.543,1.918,0.822c0.112,0.049,0.226,0.098,0.338,0.147
		c0.661,0.291,1.318,0.587,1.973,0.886c0.19,0.088,0.38,0.173,0.57,0.26c0.607,0.279,1.213,0.563,1.819,0.848
		c0.104,0.049,0.207,0.098,0.311,0.147c-3.847,122.028-104.317,219.982-227.094,219.982c-0.237,0-0.478,0-0.715-0.001
		C155.177,482.916,68.169,418.489,38.766,322.91c-2.337-7.596-10.392-11.867-17.987-9.522c-7.597,2.337-11.86,10.39-9.524,17.986
		c15.713,51.078,48,96.995,90.911,129.296c44.393,33.414,97.306,51.168,153.019,51.341c0.275,0.001,0.53,0.001,0.806,0.001
		c140.781,0,255.55-114.325,255.986-255.215C511.97,256.188,511.963,255.591,511.955,254.995z M256.318,143.987h-0.353
		c-26.956,0-53.006,9.72-73.351,27.369c-17.812,15.45-30.256,36.068-35.638,58.78c-0.95,0.337-1.878,0.682-2.793,1.03
		c-0.154,0.059-0.302,0.119-0.456,0.178c-0.925,0.357-1.835,0.72-2.73,1.087c-0.295,0.119-0.587,0.242-0.879,0.363
		c-0.84,0.351-1.671,0.705-2.49,1.062c-0.18,0.079-0.363,0.155-0.541,0.235c-0.981,0.432-1.947,0.868-2.903,1.305
		c-0.278,0.128-0.553,0.255-0.83,0.383c-0.691,0.319-1.376,0.637-2.056,0.958c-0.381,0.18-0.763,0.358-1.141,0.537
		c-0.33,0.155-0.658,0.311-0.986,0.468c-0.491,0.233-0.986,0.466-1.475,0.699c-9.505,4.52-18.186,8.624-30.506,10.913
		c-0.557,0.104-1.097,0.216-1.669,0.311c-0.05,0.009-0.105,0.014-0.155,0.023c-5.978,0.992-12.815,1.563-20.992,1.563
		c-0.178,0-0.36-0.001-0.538-0.001c-1.51-0.004-2.965-0.033-4.388-0.076c-0.44-0.013-0.865-0.033-1.298-0.05
		c-0.981-0.037-1.949-0.083-2.89-0.138c-0.463-0.027-0.922-0.058-1.376-0.089c-0.918-0.063-1.816-0.137-2.698-0.216
		c-0.394-0.036-0.796-0.068-1.184-0.108c-1.117-0.112-2.206-0.236-3.267-0.373c-0.117-0.014-0.24-0.027-0.355-0.042
		c-1.174-0.155-2.311-0.33-3.422-0.512c-0.325-0.055-0.638-0.114-0.957-0.17c-0.78-0.138-1.55-0.279-2.303-0.43
		c-0.368-0.073-0.732-0.15-1.094-0.227c-0.702-0.15-1.392-0.305-2.071-0.466c-0.334-0.079-0.669-0.157-0.997-0.239
		c-0.794-0.199-1.573-0.404-2.337-0.617c-0.177-0.049-0.363-0.095-0.538-0.145c-0.931-0.265-1.839-0.54-2.731-0.825
		c-0.259-0.083-0.509-0.17-0.764-0.253c-0.636-0.209-1.266-0.42-1.885-0.639c-0.308-0.108-0.613-0.219-0.917-0.33
		c-0.573-0.209-1.14-0.42-1.7-0.636c-0.282-0.109-0.566-0.216-0.845-0.327c-0.648-0.256-1.287-0.517-1.92-0.78
		c-0.167-0.069-0.337-0.137-0.504-0.207c-0.748-0.315-1.485-0.636-2.219-0.961c7.111-118.61,106.955-213.609,226.781-213.609
		l0.72,0.001c116.28,0.361,212.864,89.348,225.17,202.665c-0.053-0.02-0.109-0.039-0.163-0.059
		c-1.377-0.505-2.793-0.997-4.251-1.474c-0.19-0.062-0.383-0.122-0.574-0.183c-0.548-0.176-1.102-0.35-1.664-0.52
		c-0.226-0.069-0.452-0.137-0.679-0.204c-0.583-0.174-1.174-0.344-1.771-0.512c-0.184-0.052-0.364-0.104-0.55-0.155
		c-0.787-0.217-1.584-0.429-2.397-0.635c-0.091-0.023-0.184-0.045-0.276-0.068c-0.711-0.178-1.432-0.353-2.164-0.521
		c-0.249-0.058-0.501-0.112-0.751-0.168c-0.603-0.135-1.212-0.268-1.829-0.396c-0.269-0.056-0.54-0.112-0.812-0.168
		c-0.688-0.138-1.386-0.272-2.092-0.403c-0.187-0.035-0.371-0.071-0.561-0.105c-0.897-0.161-1.808-0.315-2.734-0.461
		c-0.204-0.032-0.414-0.062-0.622-0.094c-0.724-0.111-1.458-0.217-2.2-0.319c-0.318-0.043-0.639-0.085-0.96-0.125
		c-0.675-0.088-1.359-0.17-2.049-0.249c-0.319-0.036-0.638-0.073-0.961-0.109c-0.846-0.091-1.705-0.176-2.577-0.255
		c-0.161-0.014-0.318-0.032-0.481-0.046c-1.029-0.089-2.078-0.17-3.143-0.24c-0.307-0.02-0.62-0.036-0.93-0.056
		c-0.781-0.048-1.57-0.092-2.372-0.13c-0.38-0.017-0.761-0.033-1.146-0.05c-0.787-0.032-1.584-0.059-2.392-0.081
		c-0.361-0.01-0.718-0.022-1.082-0.03c-1.16-0.026-2.334-0.043-3.534-0.046c-0.206,0-0.409-0.001-0.613-0.001
		c-0.001,0-0.001,0-0.003,0h-0.009c-9.885,0-18.366,0.753-25.823,2c-17.343,2.9-29.104,8.485-39.86,13.599
		c-0.342,0.163-0.682,0.324-1.023,0.485C358.885,185.761,312.415,144.161,256.318,143.987z"/>
	<path style="fill:#B3404A;" d="M285.781,93.822c-0.016,0-0.03,0-0.046,0l-40.295-0.125c-7.947-0.026-14.371-6.487-14.346-14.436
		c0.024-7.932,6.463-14.346,14.391-14.346c0.016,0,0.03,0,0.046,0l40.295,0.125c7.947,0.026,14.371,6.487,14.346,14.436
		C300.147,87.408,293.707,93.822,285.781,93.822z"/>
	<path style="fill:#B3404A;" d="M413.12,178.645c-3.847,0-7.683-1.533-10.518-4.566l-21.994-23.536
		c-5.427-5.807-5.117-14.913,0.689-20.34c5.807-5.427,14.912-5.117,20.34,0.689l21.994,23.536c5.427,5.807,5.117,14.913-0.689,20.34
		C420.168,177.361,416.641,178.645,413.12,178.645z"/>
	<path style="fill:#B3404A;" d="M114.679,194.989c-2.573,0-5.178-0.689-7.528-2.136c-6.77-4.166-8.879-13.03-4.714-19.799
		l21.214-34.472c4.165-6.768,13.031-8.879,19.798-4.713c6.77,4.166,8.879,13.03,4.714,19.799l-21.214,34.472
		C124.231,192.557,119.512,194.989,114.679,194.989z"/>
</g>
<g>
</g>
<g>
</g>
<g>
</g>
<g>
</g>
<g>
</g>
<g>
</g>
<g>
</g>
<g>
</g>
<g>
</g>
<g>
</g>
<g>
</g>
<g>
</g>
<g>
</g>
<g>
</g>
<g>
</g>
</svg>
