<?xml version="1.0" encoding="iso-8859-1"?>
<!-- Generator: Adobe Illustrator 19.0.0, SVG Export Plug-In . SVG Version: 6.00 Build 0)  -->
<svg version="1.1" id="Layer_1" xmlns="http://www.w3.org/2000/svg" xmlns:xlink="http://www.w3.org/1999/xlink" x="0px" y="0px"
	 viewBox="0 0 512.004 512.004" style="enable-background:new 0 0 512.004 512.004;" xml:space="preserve">
<polygon style="fill:#F4B2B0;" points="343.126,239.695 256.007,314.738 168.889,239.695 133.791,239.695 179.157,497.516 
	332.849,497.516 378.215,239.695 "/>
<path style="fill:#B3404A;" d="M484.344,230.384c-2.752-3.279-6.813-5.172-11.092-5.172h-95.035h-3.007V69.725h40.846v104.973
	c0,7.999,6.485,14.483,14.483,14.483s14.483-6.484,14.483-14.483V55.242c0-7.999-6.485-14.483-14.483-14.483H375.21V14.483
	C375.21,6.484,368.724,0,360.727,0h-69.812c-7.997,0-14.483,6.484-14.483,14.483v26.276h-40.846V14.483
	C235.586,6.484,229.101,0,221.104,0H151.29c-7.997,0-14.483,6.484-14.483,14.483v26.276H81.479c-7.997,0-14.483,6.484-14.483,14.483
	v169.972h-28.24c-4.28,0-8.341,1.893-11.092,5.172s-3.913,7.605-3.17,11.821l45.366,257.82C71.077,506.951,77.092,512,84.123,512
	h95.035h153.69c0.061,0,0.122-0.007,0.182-0.009c0.242-0.003,0.482-0.017,0.721-0.032c0.211-0.013,0.421-0.026,0.629-0.049
	c0.245-0.026,0.487-0.061,0.728-0.098c0.204-0.032,0.407-0.068,0.61-0.109c0.235-0.048,0.468-0.1,0.698-0.158
	c0.206-0.052,0.407-0.112,0.61-0.172c0.22-0.067,0.44-0.133,0.656-0.211c0.209-0.074,0.413-0.158,0.617-0.24
	c0.203-0.083,0.407-0.162,0.605-0.255c0.21-0.097,0.413-0.206,0.618-0.313c0.185-0.097,0.375-0.188,0.556-0.293
	c0.217-0.126,0.424-0.265,0.634-0.401c0.303-0.196,0.597-0.403,0.883-0.62c0.195-0.149,0.395-0.294,0.584-0.453
	c0.178-0.149,0.343-0.311,0.514-0.469c0.151-0.139,0.303-0.275,0.446-0.42c0.168-0.169,0.326-0.349,0.485-0.527
	c0.133-0.148,0.267-0.295,0.394-0.449c0.152-0.185,0.297-0.377,0.439-0.569c0.122-0.162,0.24-0.326,0.355-0.494
	c0.133-0.196,0.259-0.394,0.384-0.595c0.112-0.181,0.217-0.366,0.32-0.553c0.11-0.2,0.219-0.4,0.319-0.605
	c0.103-0.21,0.197-0.424,0.29-0.639c0.084-0.196,0.171-0.388,0.246-0.587c0.098-0.259,0.182-0.526,0.266-0.792
	c0.054-0.168,0.113-0.33,0.159-0.501c0.123-0.445,0.229-0.896,0.31-1.358l43.26-245.846h65.625l-42.377,240.828
	c-1.386,7.877,3.877,15.388,11.753,16.774c0.85,0.149,1.695,0.222,2.527,0.222c6.898,0,13.01-4.947,14.247-11.976l45.366-257.82
	C488.255,237.991,487.095,233.663,484.344,230.384z M355.819,283.406l-35.127,199.627H191.317l-35.128-199.627l-5.143-29.228h12.465
	l83.045,71.532c5.434,4.679,13.47,4.679,18.904,0l83.045-71.532h12.458L355.819,283.406z M276.431,69.725v104.973
	c0,7.999,6.485,14.483,14.483,14.483s14.483-6.484,14.483-14.483V28.966h40.846v26.276v169.972h-3.115
	c-3.47,0-6.823,1.246-9.451,3.509l-77.667,66.901l-20.424-17.592V69.725H276.431z M95.962,69.725h40.846v104.973
	c0,7.999,6.485,14.483,14.483,14.483s14.483-6.484,14.483-14.483V28.966h40.846v26.276v197.84l-28.278-24.359
	c-2.629-2.264-5.983-3.509-9.451-3.509h-35.098H95.962V69.725z M56.011,254.178h65.625l40.27,228.855H96.279L56.011,254.178z"/>
<g>
</g>
<g>
</g>
<g>
</g>
<g>
</g>
<g>
</g>
<g>
</g>
<g>
</g>
<g>
</g>
<g>
</g>
<g>
</g>
<g>
</g>
<g>
</g>
<g>
</g>
<g>
</g>
<g>
</g>
</svg>
