<?xml version="1.0" encoding="iso-8859-1"?>
<!-- Generator: Adobe Illustrator 19.0.0, SVG Export Plug-In . SVG Version: 6.00 Build 0)  -->
<svg version="1.1" id="Layer_1" xmlns="http://www.w3.org/2000/svg" xmlns:xlink="http://www.w3.org/1999/xlink" x="0px" y="0px"
	 viewBox="0 0 511.997 511.997" style="enable-background:new 0 0 511.997 511.997;" xml:space="preserve">
<path style="fill:#B3404A;" d="M181.49,224.762c-7.695,0-13.933-6.239-13.933-13.933c0-33.827,12.233-72.188,33.564-105.245
	c4.173-6.465,12.796-8.325,19.263-4.152c6.466,4.173,8.325,12.796,4.154,19.261c-18.502,28.673-29.114,61.527-29.114,90.136
	C195.423,218.524,189.185,224.762,181.49,224.762z"/>
<path style="fill:#F4B2B0;" d="M112.946,267.78c4.078,75.215,66.866,135.485,143.052,135.485l0,0
	c76.186,0,138.974-60.27,143.052-135.485L112.946,267.78L112.946,267.78z"/>
<path style="fill:#B3404A;" d="M413.423,253.848H399.05h-3.311c2.925-13.111,4.435-27.488,4.435-43.018
	c0-47.023-17.231-98.887-47.274-142.291C323.193,25.622,286.967,0,255.998,0c-31.223,0-67.547,25.629-97.164,68.556
	c-29.876,43.302-47.011,95.159-47.011,142.273c0,7.694,6.238,13.933,13.933,13.933s13.933-6.239,13.933-13.933
	c0-41.596,15.338-87.686,42.083-126.449c23.685-34.33,52.821-56.513,74.225-56.513c42.717,0,116.31,90.41,116.31,182.962
	c0,16.023-1.79,30.425-5.272,43.018H112.946H98.574c-7.695,0-13.933,6.239-13.933,13.933c0,7.694,6.238,13.933,13.933,13.933h1.744
	c4.879,35.012,21.459,67.333,47.513,92.11c8.731,8.301,18.258,15.487,28.39,21.5c-18.108,19.822-28.499,45.88-28.499,72.977v15.83
	h-21.265c-7.695,0-13.933,6.239-13.933,13.933s6.238,13.933,13.933,13.933h259.081c7.695,0,13.933-6.239,13.933-13.933
	s-6.238-13.933-13.933-13.933h-21.264v-15.83c0-15.108-3.092-29.752-9.188-43.525c-3.115-7.038-11.344-10.215-18.381-7.102
	c-7.036,3.114-10.217,11.345-7.102,18.381c4.514,10.198,6.804,21.046,6.804,32.246v15.83H175.587v-15.83
	c0-23.041,10.173-45.071,27.488-60.316c16.811,6.046,34.667,9.21,52.923,9.21c40.342,0,78.757-15.405,108.168-43.373
	c26.055-24.779,42.633-57.099,47.513-92.11h1.744c7.695,0,13.933-6.239,13.933-13.933S421.119,253.848,413.423,253.848z
	 M255.998,389.331L255.998,389.331c-17.287,0-33.805-3.426-48.921-9.611c-0.729-0.38-1.487-0.693-2.264-0.936
	c-39.459-17.029-68.893-53.157-76.321-97.069h248.624c0.031,0,0.061,0.004,0.093,0.004c0.036,0,0.071-0.004,0.107-0.004h6.189
	C373.117,343.123,319.705,389.331,255.998,389.331z"/>
<g>
</g>
<g>
</g>
<g>
</g>
<g>
</g>
<g>
</g>
<g>
</g>
<g>
</g>
<g>
</g>
<g>
</g>
<g>
</g>
<g>
</g>
<g>
</g>
<g>
</g>
<g>
</g>
<g>
</g>
</svg>
