<?xml version="1.0" encoding="iso-8859-1"?>
<!-- Generator: Adobe Illustrator 19.0.0, SVG Export Plug-In . SVG Version: 6.00 Build 0)  -->
<svg version="1.1" id="Layer_1" xmlns="http://www.w3.org/2000/svg" xmlns:xlink="http://www.w3.org/1999/xlink" x="0px" y="0px"
	 viewBox="0 0 511.998 511.998" style="enable-background:new 0 0 511.998 511.998;" xml:space="preserve">
<g>
	<path style="fill:#F4B2B0;" d="M450.413,322.79H61.587v-34.099c0-38.198,30.965-69.162,69.162-69.162h250.504
		c38.198,0,69.162,30.965,69.162,69.162v34.099H450.413z"/>
	<path style="fill:#F4B2B0;" d="M190.608,407.571L190.608,407.571c16.557,0,29.979-13.422,29.979-29.979v-54.821h-59.958v54.821
		C160.629,394.15,174.051,407.571,190.608,407.571z"/>
	<path style="fill:#F4B2B0;" d="M130.649,390.155L130.649,390.155c16.557,0,29.979-13.422,29.979-29.979v-37.404H100.67v37.404
		C100.67,376.734,114.091,390.155,130.649,390.155z"/>
</g>
<path style="fill:#B3404A;" d="M497.244,308.035h-32.076v-19.343c0-46.272-37.646-83.918-83.916-83.918H130.747
	c-0.915,0-1.821,0.04-2.73,0.069v-19.44c0-30,24.407-54.407,54.407-54.407h147.15c15.936,0,31.018,6.957,41.383,19.086
	c5.296,6.196,14.608,6.926,20.804,1.632c6.196-5.294,6.926-14.608,1.632-20.804c-10.15-11.88-23.244-20.525-37.742-25.263
	l-54.938-70.425c-0.149-0.19-0.3-0.376-0.457-0.558C289.148,21.775,273.016,14.381,256,14.381s-33.148,7.394-44.256,20.283
	c-5.319,6.174-4.629,15.49,1.545,20.811c6.175,5.321,15.492,4.627,20.811-1.545c5.498-6.379,13.481-10.038,21.902-10.038
	c8.313,0,16.2,3.566,21.689,9.795l37.286,47.798H182.426c-46.272,0-83.918,37.646-83.918,83.918v25.821
	c-30.314,12.665-51.675,42.614-51.675,77.468v19.343H14.756C6.608,308.035,0,314.642,0,322.79c0,8.148,6.608,14.756,14.756,14.756
	h23.444l41.307,149.251c1.769,6.394,7.589,10.82,14.221,10.82h324.547c6.634,0,12.451-4.427,14.221-10.82l8.968-32.408
	c2.173-7.853-2.43-15.983-10.286-18.157c-7.859-2.178-15.983,2.43-18.157,10.286l-5.975,21.587H104.953L68.82,337.546h17.094v22.631
	c0,24.667,20.069,44.734,44.734,44.734c7.608,0,14.775-1.914,21.053-5.278c7.699,13.538,22.248,22.696,38.904,22.696
	c24.667,0,44.734-20.069,44.734-44.734v-40.048h207.838L428.441,390.8c-2.173,7.853,2.43,15.983,10.286,18.157
	c1.318,0.364,2.641,0.539,3.944,0.539c6.469,0,12.404-4.286,14.213-10.825l16.916-61.125h23.444c8.148,0,14.756-6.608,14.756-14.756
	C511.998,314.642,505.394,308.035,497.244,308.035z M130.649,375.4c-8.394,0-15.223-6.829-15.223-15.223v-22.631h30.448v22.631
	C145.872,368.571,139.043,375.4,130.649,375.4z M205.831,377.592c0,8.394-6.829,15.223-15.223,15.223
	c-8.394,0-15.223-6.829-15.223-15.223v-17.417v-22.631h30.448v40.048H205.831z M220.959,308.035
	c-0.124-0.003-0.246-0.019-0.37-0.019h-59.959H100.67c-0.125,0-0.246,0.016-0.37,0.019H76.342v-19.343
	c0-30,24.406-54.407,54.405-54.407h250.505c30,0,54.405,24.407,54.405,54.407v19.343L220.959,308.035L220.959,308.035z"/>
<g>
</g>
<g>
</g>
<g>
</g>
<g>
</g>
<g>
</g>
<g>
</g>
<g>
</g>
<g>
</g>
<g>
</g>
<g>
</g>
<g>
</g>
<g>
</g>
<g>
</g>
<g>
</g>
<g>
</g>
</svg>
