<?xml version="1.0" encoding="iso-8859-1"?>
<!-- Generator: Adobe Illustrator 19.0.0, SVG Export Plug-In . SVG Version: 6.00 Build 0)  -->
<svg version="1.1" id="Layer_1" xmlns="http://www.w3.org/2000/svg" xmlns:xlink="http://www.w3.org/1999/xlink" x="0px" y="0px"
	 viewBox="0 0 512 512" style="enable-background:new 0 0 512 512;" xml:space="preserve">
<path style="fill:#F4B2B0;" d="M448.012,306.833H63.988c-28.038,0-50.769-22.73-50.769-50.769l0,0
	c0-28.04,22.73-50.769,50.769-50.769h384.023c28.04,0,50.769,22.73,50.769,50.769l0,0
	C498.781,284.103,476.051,306.833,448.012,306.833z"/>
<g>
	<path style="fill:#B3404A;" d="M75.731,269.282H15.038c-7.301,0-13.219-5.918-13.219-13.219c0-7.301,5.918-13.219,13.219-13.219
		h60.693c7.301,0,13.219,5.918,13.219,13.219C88.949,263.364,83.031,269.282,75.731,269.282z"/>
	<path style="fill:#B3404A;" d="M512,256.063c0-25.075-14.506-46.816-35.56-57.304c-1.979-33.604-22.954-62.812-54.592-75.314
		c-6.788-2.682-14.468,0.646-17.151,7.436c-2.683,6.789,0.645,14.469,7.436,17.153c19.136,7.561,32.662,23.919,36.75,43.432H63.138
		c5.774-27.169,29.954-47.615,58.818-47.615h229.219c7.299,0,13.219-5.918,13.219-13.219c0-7.301-5.919-13.219-13.219-13.219
		H121.957c-45.979,0-83.684,36.036-86.393,81.346C14.508,209.245,0,230.986,0,256.063c0,25.081,14.512,46.825,35.573,57.311
		c2.776,45.247,40.45,81.212,86.384,81.212h37.547c7.301,0,13.219-5.918,13.219-13.219s-5.918-13.219-13.219-13.219h-37.547
		c-28.865,0-53.044-20.446-58.818-47.615h385.723c-5.774,27.169-29.954,47.615-58.817,47.615H229.563
		c-7.301,0-13.219,5.918-13.219,13.219s5.918,13.219,13.219,13.219h160.482c45.933,0,83.606-35.966,86.382-81.212
		C497.487,302.888,512,281.143,512,256.063z M63.988,218.513H448.01c16.054,0,29.782,10.131,35.142,24.332h-46.884
		c-7.299,0-13.219,5.918-13.219,13.219c0,7.301,5.919,13.219,13.219,13.219h46.884c-5.36,14.202-19.087,24.332-35.142,24.332H63.988
		c-20.705,0-37.551-16.846-37.551-37.551S43.284,218.513,63.988,218.513z"/>
	<path style="fill:#B3404A;" d="M388.519,277.149c-16.907,0-25.993-5.438-33.294-9.807c-6.093-3.646-10.119-6.056-19.718-6.056
		s-13.625,2.408-19.716,6.056c-7.301,4.37-16.387,9.807-33.296,9.807c-16.906,0-25.991-5.438-33.292-9.807
		c-6.091-3.646-10.116-6.056-19.713-6.056c-9.598,0-13.622,2.408-19.715,6.056c-7.301,4.37-16.386,9.807-33.292,9.807
		s-25.991-5.438-33.292-9.807c-6.091-3.646-10.115-6.056-19.713-6.056c-7.301,0-13.219-5.918-13.219-13.219
		s5.918-13.219,13.219-13.219c16.904,0,25.991,5.438,33.29,9.807c6.091,3.646,10.116,6.056,19.713,6.056
		c9.598,0,13.622-2.408,19.715-6.056c7.301-4.37,16.386-9.807,33.292-9.807s25.991,5.438,33.29,9.807
		c6.091,3.646,10.116,6.056,19.715,6.056c9.601,0,13.626-2.408,19.719-6.056c7.299-4.369,16.386-9.807,33.293-9.807
		s25.992,5.438,33.294,9.807c6.093,3.646,10.119,6.056,19.718,6.056c7.299,0,13.219,5.918,13.219,13.219
		C401.737,271.231,395.819,277.149,388.519,277.149z"/>
</g>
<g>
</g>
<g>
</g>
<g>
</g>
<g>
</g>
<g>
</g>
<g>
</g>
<g>
</g>
<g>
</g>
<g>
</g>
<g>
</g>
<g>
</g>
<g>
</g>
<g>
</g>
<g>
</g>
<g>
</g>
</svg>
