<?xml version="1.0" encoding="iso-8859-1"?>
<!-- Generator: Adobe Illustrator 19.0.0, SVG Export Plug-In . SVG Version: 6.00 Build 0)  -->
<svg version="1.1" id="Layer_1" xmlns="http://www.w3.org/2000/svg" xmlns:xlink="http://www.w3.org/1999/xlink" x="0px" y="0px"
	 viewBox="0 0 512 512" style="enable-background:new 0 0 512 512;" xml:space="preserve">
<g>
	<rect x="97.86" y="96.247" style="fill:#F4B2B0;" width="129.269" height="56.97"/>
	<rect x="68.997" y="256.188" style="fill:#F4B2B0;" width="93.501" height="135.411"/>
	<rect x="284.863" y="96.247" style="fill:#F4B2B0;" width="129.269" height="56.97"/>
	<rect x="256.003" y="256.188" style="fill:#F4B2B0;" width="93.501" height="135.411"/>
</g>
<path style="fill:#B3404A;" d="M443.001,139.069h-14.71V96.247c0-7.817-6.337-14.154-14.154-14.154h-87.463l9.279-53.785h27.095
	l3.182,18.445c1.329,7.703,8.651,12.869,16.355,11.541c7.703-1.329,12.87-8.651,11.541-16.355l-5.209-30.192
	C387.746,4.96,381.857,0,374.97,0h-50.936c-6.889,0-12.777,4.96-13.947,11.748l-12.138,70.345h-13.084
	c-7.817,0-14.154,6.337-14.154,14.154v42.822H256h-14.71V96.247c0-7.817-6.337-14.154-14.154-14.154h-87.465l9.279-53.785h27.095
	l3.183,18.445c1.329,7.703,8.651,12.873,16.355,11.541c7.703-1.329,12.87-8.651,11.541-16.355l-5.21-30.192
	C200.743,4.96,194.855,0,187.967,0H137.03c-6.889,0-12.777,4.96-13.947,11.748l-12.137,70.345H97.862
	c-7.817,0-14.154,6.337-14.154,14.154v42.822h-14.71c-7.817,0-14.154,6.337-14.154,14.154c0,7.817,6.337,14.154,14.154,14.154
	h28.864h129.273h14.71v88.811v135.407v92.097H83.151v-77.943h79.347c7.817,0,14.154-6.337,14.154-14.154V256.188
	c0-7.817-6.337-14.154-14.154-14.154H68.997c-7.817,0-14.154,6.337-14.154,14.154v135.407v106.251
	c0,7.817,6.337,14.154,14.154,14.154H256h187.003c7.817,0,14.154-6.337,14.154-14.154V153.223
	C457.155,145.406,450.819,139.069,443.001,139.069z M112.016,139.069v-28.668h10.819c0.016,0,0.033,0.001,0.048,0.001
	c0.016,0,0.031-0.001,0.047-0.001h90.051v28.668H112.016z M148.343,377.441H83.15V270.342h65.193V377.441z M299.017,110.401h10.819
	c0.016,0,0.033,0.001,0.048,0.001c0.016,0,0.031-0.001,0.047-0.001h90.051v28.668H299.017V110.401z M270.153,270.342h65.193v107.099
	h-65.193V270.342z M428.847,483.692H270.153v-77.943H349.5c7.817,0,14.154-6.337,14.154-14.154V256.188
	c0-7.817-6.337-14.154-14.154-14.154h-79.347v-74.657h14.71h129.273h14.71v316.315H428.847z"/>
<g>
</g>
<g>
</g>
<g>
</g>
<g>
</g>
<g>
</g>
<g>
</g>
<g>
</g>
<g>
</g>
<g>
</g>
<g>
</g>
<g>
</g>
<g>
</g>
<g>
</g>
<g>
</g>
<g>
</g>
</svg>
