<?xml version="1.0" encoding="iso-8859-1"?>
<!-- Generator: Adobe Illustrator 19.0.0, SVG Export Plug-In . SVG Version: 6.00 Build 0)  -->
<svg version="1.1" id="Layer_1" xmlns="http://www.w3.org/2000/svg" xmlns:xlink="http://www.w3.org/1999/xlink" x="0px" y="0px"
	 viewBox="0 0 511.999 511.999" style="enable-background:new 0 0 511.999 511.999;" xml:space="preserve">
<g>
	<path style="fill:#F4B2B0;" d="M351.23,90.824V81.13c0-36.959-29.961-66.921-66.921-66.921H182.742
		c-36.959,0-66.921,29.961-66.921,66.921l0,0L351.23,90.824z"/>
	<polygon style="fill:#F4B2B0;" points="384.887,497.787 108.086,497.787 150.741,365.629 342.231,365.629 	"/>
</g>
<path style="fill:#B3404A;" d="M406.216,164.799h-25.144c-3.612,0-6.9,1.36-9.408,3.581c-2.842,2.009-4.968,5.047-5.724,8.726
	L330.093,351.42h-45.379l25.496-145.326c1.356-7.729-3.811-15.095-11.541-16.451c-7.717-1.364-15.095,3.811-16.451,11.541
	l-26.358,150.236h-18.754L210.75,201.185c-1.356-7.729-8.725-12.891-16.451-11.541c-7.73,1.356-12.897,8.722-11.541,16.451
	l25.496,145.326h-46.609L92.836,94.425l257.794,10.883c7.817,0.351,14.467-5.756,14.797-13.597c0.007-0.186-0.006-0.367-0.004-0.551
	c0.003-0.112,0.017-0.223,0.017-0.335V81.13c0-44.736-36.394-81.13-81.13-81.13H182.741c-39.706,0-72.818,28.681-79.766,66.408
	l-28.269-1.194c-4.551-0.188-8.858,1.78-11.687,5.31c-2.828,3.528-3.81,8.193-2.639,12.561l75.55,282.169L94.563,493.424
	c-1.395,4.324-0.639,9.054,2.036,12.728c2.674,3.673,6.944,5.846,11.487,5.846h276.801c0.011,0.001,0.023,0.003,0.028,0
	c7.848,0,14.21-6.363,14.21-14.21c0-1.854-0.354-3.623-0.999-5.246l-41.558-128.758l35.074-170.565h14.575
	c9.63,0,17.467,7.835,17.467,17.467v100.947c0,7.847,6.363,14.21,14.21,14.21c7.847,0,14.21-6.363,14.21-14.21V210.685
	C452.102,185.383,431.517,164.799,406.216,164.799z M182.742,28.419h101.568c27.337,0,49.88,20.918,52.464,47.587l-204.972-8.441
	C137.8,45.052,158.366,28.419,182.742,28.419z M127.603,483.578l33.482-103.741h64.01c0.021,0,0.041,0.003,0.063,0.003
	s0.043-0.003,0.064-0.003h42.527c0.021,0,0.043,0.003,0.064,0.003c0.021,0,0.041-0.003,0.063-0.003h64.01l33.482,103.741H127.603z"
	/>
<g>
</g>
<g>
</g>
<g>
</g>
<g>
</g>
<g>
</g>
<g>
</g>
<g>
</g>
<g>
</g>
<g>
</g>
<g>
</g>
<g>
</g>
<g>
</g>
<g>
</g>
<g>
</g>
<g>
</g>
</svg>
