<?xml version="1.0" encoding="iso-8859-1"?>
<!-- Generator: Adobe Illustrator 19.0.0, SVG Export Plug-In . SVG Version: 6.00 Build 0)  -->
<svg version="1.1" id="Layer_1" xmlns="http://www.w3.org/2000/svg" xmlns:xlink="http://www.w3.org/1999/xlink" x="0px" y="0px"
	 viewBox="0 0 512 512" style="enable-background:new 0 0 512 512;" xml:space="preserve">
<path style="fill:#F4B2B0;" d="M230.706,393.289c-21.748,0-39.44-17.693-39.44-39.44v-149.64c0-21.748,17.693-39.44,39.44-39.44
	h49.487c21.748,0,39.44,17.693,39.44,39.44v149.64c0,21.748-17.693,39.44-39.44,39.44H230.706z"/>
<g>
	<path style="fill:#B3404A;" d="M280.193,407.959h-49.487c-29.837,0-54.111-24.274-54.111-54.111v-149.64
		c0-29.837,24.274-54.111,54.111-54.111h49.487c29.837,0,54.111,24.274,54.111,54.111v149.64
		C334.304,383.685,310.03,407.959,280.193,407.959z M230.706,179.439c-13.658,0-24.77,11.111-24.77,24.77v149.64
		c0,13.658,11.111,24.77,24.77,24.77h49.487c13.658,0,24.77-11.111,24.77-24.77v-149.64c0-13.658-11.112-24.77-24.77-24.77
		L230.706,179.439L230.706,179.439z"/>
	<path style="fill:#B3404A;" d="M280.742,512h-49.484c-86.464,0-156.806-70.342-156.806-156.805v-149.64
		c0-39.323,14.622-76.934,41.172-105.905c23.332-25.459,54.082-42.351,87.677-48.403C204.081,22.855,227.422,0,256,0
		s51.919,22.855,52.7,51.247c33.594,6.052,64.344,22.943,87.677,48.403c26.551,28.971,41.171,66.582,41.171,105.905
		c0,8.103-6.569,14.671-14.671,14.671c-8.101,0-14.671-6.568-14.671-14.671c0-66.232-49.661-120.787-115.515-126.902
		c-7.545-0.701-13.314-7.03-13.314-14.607V52.72c0-12.891-10.487-23.378-23.379-23.378s-23.379,10.487-23.379,23.378v11.326
		c0,7.577-5.77,13.906-13.314,14.607c-65.855,6.115-115.515,60.672-115.515,126.902v149.64c0,70.284,57.182,127.464,127.465,127.464
		h49.484c70.284,0,127.465-57.18,127.465-127.464V279.03c0-8.103,6.569-14.671,14.671-14.671c8.101,0,14.671,6.568,14.671,14.671
		v76.165C437.548,441.656,367.206,512,280.742,512z"/>
	<path style="fill:#B3404A;" d="M343.205,162.573c-3.756,0-7.51-1.433-10.374-4.297c-5.729-5.73-5.729-15.018,0.001-20.747
		l6.222-6.222c5.73-5.73,15.021-5.727,20.747,0c5.729,5.73,5.729,15.018-0.001,20.747l-6.222,6.222
		C350.713,161.142,346.959,162.573,343.205,162.573z"/>
	<path style="fill:#B3404A;" d="M167.693,162.573c-3.756,0-7.51-1.433-10.374-4.297l-6.22-6.222
		c-5.729-5.73-5.729-15.018,0.001-20.747c5.73-5.73,15.021-5.727,20.747,0l6.22,6.222c5.729,5.73,5.729,15.018-0.001,20.747
		C175.203,161.142,171.448,162.573,167.693,162.573z"/>
	<path style="fill:#B3404A;" d="M349.427,431.043c-3.756,0-7.508-1.432-10.372-4.297l-6.222-6.222
		c-5.73-5.729-5.73-15.017-0.001-20.747c5.727-5.729,15.018-5.73,20.747,0l6.222,6.222c5.73,5.729,5.73,15.017,0.001,20.747
		C356.938,429.612,353.182,431.043,349.427,431.043z"/>
	<path style="fill:#B3404A;" d="M161.473,431.043c-3.756,0-7.508-1.432-10.372-4.297c-5.73-5.729-5.73-15.017-0.001-20.747
		l6.22-6.222c5.727-5.729,15.018-5.73,20.747,0c5.73,5.729,5.73,15.017,0.001,20.747l-6.22,6.222
		C168.983,429.612,165.229,431.043,161.473,431.043z"/>
	<path style="fill:#B3404A;" d="M373.547,251.157h-8.798c-8.101,0-14.671-6.568-14.671-14.671c0-8.103,6.569-14.671,14.671-14.671
		h8.798c8.101,0,14.671,6.568,14.671,14.671C388.217,244.589,381.648,251.157,373.547,251.157z"/>
	<path style="fill:#B3404A;" d="M373.547,336.239h-8.798c-8.101,0-14.671-6.568-14.671-14.671s6.569-14.671,14.671-14.671h8.798
		c8.101,0,14.671,6.568,14.671,14.671S381.648,336.239,373.547,336.239z"/>
	<path style="fill:#B3404A;" d="M146.153,251.157h-8.798c-8.101,0-14.671-6.568-14.671-14.671c0-8.103,6.569-14.671,14.671-14.671
		h8.798c8.101,0,14.671,6.568,14.671,14.671C160.823,244.589,154.254,251.157,146.153,251.157z"/>
	<path style="fill:#B3404A;" d="M146.153,336.239h-8.798c-8.101,0-14.671-6.568-14.671-14.671s6.569-14.671,14.671-14.671h8.798
		c8.101,0,14.671,6.568,14.671,14.671S154.254,336.239,146.153,336.239z"/>
	<path style="fill:#B3404A;" d="M255.136,132.562c-8.101,0-14.671-6.568-14.671-14.671v-8.798c0-8.103,6.569-14.671,14.671-14.671
		s14.671,6.568,14.671,14.671v8.798C269.806,125.994,263.237,132.562,255.136,132.562z"/>
	<path style="fill:#B3404A;" d="M255.765,463.634c-8.101,0-14.671-6.568-14.671-14.671v-8.799c0-8.103,6.569-14.671,14.671-14.671
		c8.101,0,14.671,6.568,14.671,14.671v8.799C270.436,457.066,263.866,463.634,255.765,463.634z"/>
</g>
<g>
</g>
<g>
</g>
<g>
</g>
<g>
</g>
<g>
</g>
<g>
</g>
<g>
</g>
<g>
</g>
<g>
</g>
<g>
</g>
<g>
</g>
<g>
</g>
<g>
</g>
<g>
</g>
<g>
</g>
</svg>
