<?xml version="1.0" encoding="iso-8859-1"?>
<!-- Generator: Adobe Illustrator 19.0.0, SVG Export Plug-In . SVG Version: 6.00 Build 0)  -->
<svg version="1.1" id="Layer_1" xmlns="http://www.w3.org/2000/svg" xmlns:xlink="http://www.w3.org/1999/xlink" x="0px" y="0px"
	 viewBox="0 0 512 512" style="enable-background:new 0 0 512 512;" xml:space="preserve">
<path style="fill:#F4B2B0;" d="M235.689,498.063L235.689,498.063c-47.79,0-86.532-38.741-86.532-86.532v-56.727h173.063v56.727
	C322.221,459.322,283.48,498.063,235.689,498.063z"/>
<path style="fill:#B3404A;" d="M362.844,116.349c7.696,0,13.937-6.241,13.937-13.937V54.558C376.78,24.476,352.305,0,322.221,0
	c-30.084,0-54.558,24.476-54.558,54.558v136.315c0,7.696,6.241,13.937,13.937,13.937h26.685v136.059H149.156
	c-7.696,0-13.937,6.241-13.937,13.937v56.727C135.22,466.93,180.291,512,235.689,512s100.468-45.07,100.468-100.468V204.81h26.685
	c7.696,0,13.937-6.241,13.937-13.937v-39.94c0-7.696-6.241-13.937-13.937-13.937s-13.937,6.241-13.937,13.937v26.003h-53.371V54.558
	c0-14.714,11.972-26.685,26.685-26.685c14.713,0,26.685,11.972,26.685,26.685v47.854
	C348.907,110.11,355.146,116.349,362.844,116.349z M308.284,411.532c0,40.029-32.566,72.595-72.595,72.595
	c-40.03,0-72.596-32.566-72.596-72.595v-42.79h145.191V411.532z"/>
<g>
</g>
<g>
</g>
<g>
</g>
<g>
</g>
<g>
</g>
<g>
</g>
<g>
</g>
<g>
</g>
<g>
</g>
<g>
</g>
<g>
</g>
<g>
</g>
<g>
</g>
<g>
</g>
<g>
</g>
</svg>
