<?xml version="1.0" encoding="iso-8859-1"?>
<!-- Generator: Adobe Illustrator 19.0.0, SVG Export Plug-In . SVG Version: 6.00 Build 0)  -->
<svg version="1.1" id="Layer_1" xmlns="http://www.w3.org/2000/svg" xmlns:xlink="http://www.w3.org/1999/xlink" x="0px" y="0px"
	 viewBox="0 0 512.002 512.002" style="enable-background:new 0 0 512.002 512.002;" xml:space="preserve">
<path style="fill:#F4B2B0;" d="M311.991,495.386c95.403,0,172.741-77.338,172.741-172.741H139.25
	C139.25,418.048,216.588,495.386,311.991,495.386z"/>
<path style="fill:#B3404A;" d="M484.732,306.031H316.763c-0.005,0-0.012,0-0.017,0h-9.51c-0.005,0-0.012,0-0.017,0H139.25
	c-9.176,0-16.614,7.438-16.614,16.614c0,47.482,17.571,90.935,46.548,124.209c-18.884-3.559-36.537-10.07-52.056-19.332
	c-6.526-3.896-14.862-2.863-20.243,2.499l-3.531,3.519c-3.536,3.536-8.267,5.484-13.323,5.484c-5.054,0-9.786-1.947-13.34-5.503
	c-1.072-1.068-5.234-5.233-6.318-6.323c-3.536-3.536-5.484-8.269-5.484-13.326c0-5.057,1.947-9.792,5.486-13.33l3.499-3.501
	c5.378-5.38,6.416-13.723,2.52-20.255c-1.221-2.049-2.477-4.305-3.84-6.895c-0.017-0.032-0.09-0.169-0.106-0.201
	c-0.595-1.133-1.171-2.276-1.784-3.521l-0.106-0.218c-3.526-7.202-6.538-14.83-8.957-22.672c-0.005-0.015-0.047-0.148-0.052-0.164
	c-0.39-1.273-0.768-2.55-1.09-3.698l-0.1-0.362c-1.48-5.295-2.718-10.74-3.69-16.24c-0.206-1.16-0.392-2.326-0.577-3.504
	l-0.166-1.065c-0.158-1.058-0.307-2.118-0.447-3.182l-0.183-1.444c-0.123-1.005-0.244-2.012-0.352-3.034l-0.211-2.147
	c-0.078-0.807-0.156-1.615-0.223-2.422c-0.035-0.442-0.065-0.884-0.095-1.327l-0.052-0.738c-0.096-1.374-0.181-2.751-0.249-4.157
	c-0.048-0.982-0.098-1.962-0.13-2.934l-0.047-1.974c-0.023-0.989-0.045-1.977-0.053-2.974c-0.005-0.615-0.003-1.231-0.003-1.854
	c0-1.073,0.01-2.147,0.028-3.202l0.033-1.637c0.032-1.254,0.076-2.51,0.131-3.78l0.047-1.095c0.249-5.106,0.699-10.331,1.352-15.641
	c0.005-0.035,0.03-0.224,0.033-0.258c0.204-1.633,0.427-3.268,0.673-4.928l0.061-0.415c0.256-1.71,0.532-3.419,0.829-5.129
	c0.007-0.042,0.015-0.088,0.023-0.136c1.239-7.113,2.858-14.335,4.79-21.396l0.07-0.251c0.472-1.72,0.965-3.439,1.457-5.089
	l0.103-0.346c12.545-41.832,36.605-81.369,69.572-114.336C170.54,64.97,231.95,36.181,291.577,33.436l0.527-0.022
	c1.416-0.061,2.828-0.11,4.247-0.141l1.321-0.027c1.116-0.018,2.231-0.025,3.344-0.025l1.839,0.003
	c0.799,0.008,1.597,0.027,2.396,0.045l0.184,0.003c30.16,0.668,58.516,8.43,82.005,22.449c6.526,3.896,14.86,2.866,20.241-2.497
	l3.532-3.521c3.536-3.536,8.267-5.484,13.321-5.484s9.786,1.947,13.34,5.503c1.073,1.07,5.239,5.238,6.32,6.323
	c7.349,7.349,7.349,19.306,0,26.656l-3.499,3.499c-5.378,5.378-6.418,13.718-2.525,20.251c1.229,2.063,2.487,4.321,3.823,6.862
	l0.123,0.231c0.593,1.131,1.17,2.271,1.735,3.419c0.008,0.02,0.15,0.306,0.16,0.324c3.524,7.204,6.538,14.833,8.957,22.675
	l15.877-4.898l-15.822,5.074c0.389,1.266,0.763,2.537,1.14,3.876l15.995-4.491l-15.948,4.665c1.48,5.3,2.72,10.749,3.68,16.194
	c0.005,0.027,0.008,0.051,0.013,0.078c0.203,1.148,0.387,2.303,0.565,3.442l0.171,1.092c0.158,1.057,0.306,2.117,0.449,3.203
	l0.181,1.427c0.125,1.007,0.244,2.015,0.352,3.029l0.198,2c0.083,0.852,0.168,1.706,0.238,2.572
	c0.033,0.409,0.061,0.817,0.088,1.228l0.053,0.774c0.098,1.397,0.184,2.799,0.253,4.198l0.013,0.261
	c0.043,0.897,0.088,1.794,0.118,2.695l0.048,1.951c0.023,0.999,0.043,1.997,0.053,2.971l0.002,1.874c0,1.072-0.01,2.145-0.028,3.198
	l-0.033,1.646c-0.032,1.251-0.076,2.504-0.131,3.738l-0.047,1.13c-0.249,5.106-0.699,10.332-1.351,15.617l-0.035,0.272
	c-0.204,1.638-0.429,3.28-0.673,4.938l-0.061,0.409c-0.258,1.715-0.533,3.428-0.831,5.144c-0.007,0.035-0.012,0.07-0.018,0.105
	c-1.239,7.119-2.859,14.348-4.802,21.442c-0.005,0.022-0.055,0.199-0.061,0.221c-0.474,1.723-0.967,3.444-1.485,5.179l-0.076,0.258
	c-2.637,8.789,2.351,18.051,11.14,20.688c8.791,2.637,18.051-2.351,20.688-11.14l0.095-0.314c0.583-1.954,1.143-3.909,1.681-5.865
	c0.012-0.045,0.045-0.163,0.056-0.208c2.238-8.173,4.092-16.46,5.511-24.631c0.007-0.037,0.013-0.071,0.018-0.108
	c0.339-1.949,0.651-3.896,0.949-5.883l0.068-0.46c0.279-1.887,0.537-3.773,0.786-5.77l0.038-0.302
	c0.738-6.006,1.259-12.052,1.55-17.975l0.055-1.293c0.063-1.454,0.115-2.904,0.151-4.361l0.038-1.901
	c0.022-1.253,0.032-2.502,0.033-3.743c0-0.716,0.002-1.43-0.003-2.175c-0.01-1.161-0.033-2.319-0.061-3.489l-0.013-0.631
	c-0.012-0.547-0.025-1.093-0.042-1.638c-0.035-1.07-0.088-2.138-0.14-3.205l-0.012-0.262c-0.081-1.643-0.181-3.283-0.297-4.931
	l-0.047-0.675c-0.038-0.558-0.076-1.118-0.121-1.666c-0.085-1.04-0.184-2.077-0.286-3.114l-0.226-2.288
	c-0.128-1.195-0.269-2.384-0.415-3.572l-0.216-1.708c-0.166-1.259-0.341-2.519-0.53-3.786l-0.196-1.264
	c-0.218-1.391-0.442-2.78-0.686-4.162c-0.005-0.03-0.01-0.058-0.017-0.086c-1.146-6.488-2.625-12.981-4.388-19.294l-0.08-0.282
	c-0.434-1.545-0.886-3.082-1.356-4.61c0-0.003-0.06-0.194-0.061-0.198c-2.926-9.485-6.581-18.733-10.862-27.483
	c-0.002-0.005-0.075-0.151-0.076-0.156l-0.113-0.228c-0.316-0.641-0.635-1.281-0.955-1.917c6.617-8.905,10.195-19.675,10.195-31.012
	c0-13.934-5.405-27.012-15.199-36.806c-1.075-1.078-5.288-5.295-6.353-6.358c-9.806-9.809-22.881-15.214-36.812-15.214
	c-11.334,0-22.102,3.577-30.997,10.186c-26.026-13.16-55.97-20.429-87.358-21.123l-0.171-0.003
	c-0.935-0.022-1.869-0.042-2.839-0.052L301.017,0c-1.291,0-2.585,0.008-3.893,0.03l-1.545,0.03
	c-1.637,0.038-3.276,0.093-4.901,0.163l-0.636,0.027c-67.795,3.12-137.213,35.443-190.45,88.682
	c-36.846,36.844-63.784,81.204-77.926,128.357l-0.073,0.246c-0.583,1.956-1.143,3.911-1.681,5.868
	c-0.002,0.003-0.055,0.199-0.056,0.203c-2.236,8.169-4.09,16.455-5.511,24.627c-0.008,0.045-0.017,0.098-0.025,0.15
	c-0.336,1.937-0.648,3.873-0.934,5.785l-0.076,0.515c-0.279,1.892-0.538,3.781-0.781,5.719l-0.045,0.357
	c-0.739,6.009-1.261,12.057-1.55,17.972l-0.055,1.281c-0.063,1.46-0.115,2.921-0.153,4.383l-0.037,1.891
	c-0.022,1.253-0.033,2.505-0.033,3.747c0,0.724-0.002,1.447,0.005,2.165c0.01,1.168,0.033,2.333,0.06,3.476l0.013,0.577
	c0.012,0.573,0.025,1.148,0.043,1.733c0.038,1.153,0.095,2.301,0.151,3.456c0.078,1.623,0.178,3.241,0.292,4.855l0.043,0.646
	c0.04,0.595,0.081,1.19,0.13,1.784c0.08,0.979,0.173,1.954,0.269,2.931l0.243,2.452c0.126,1.193,0.269,2.381,0.415,3.577l0.216,1.71
	c0.166,1.259,0.342,2.515,0.53,3.781l0.198,1.274c0.216,1.389,0.44,2.776,0.693,4.208c1.15,6.503,2.63,13.011,4.366,19.229
	l0.06,0.218c0.003,0.015,0.043,0.155,0.047,0.169c0.432,1.538,0.882,3.069,1.351,4.594c0.007,0.023,0.058,0.186,0.066,0.209
	c2.926,9.487,6.581,18.734,10.844,27.449l0.211,0.432c0.314,0.64,0.633,1.279,0.95,1.906c-6.617,8.905-10.195,19.675-10.195,31.012
	c0,13.934,5.405,27.012,15.195,36.801c1.075,1.078,5.292,5.298,6.358,6.363c9.812,9.812,22.89,15.217,36.819,15.217
	c11.334,0,22.102-3.577,30.997-10.186c26.026,13.16,55.965,20.427,87.353,21.123l0.168,0.003c0.939,0.022,1.877,0.043,2.853,0.053
	l1.789,0.005h0.357c1.296,0,2.592-0.008,3.906-0.03l1.527-0.03c0.861-0.02,1.726-0.056,2.59-0.086
	c29.128,18.296,63.558,28.894,100.42,28.894c104.411,0,189.355-84.944,189.355-189.355
	C501.346,313.469,493.908,306.031,484.732,306.031z M267.116,339.259l-78.699,78.699c-17.207-22.258-28.548-49.27-31.675-78.699
	H267.116z M211.425,441.944l100.566-100.566l100.566,100.566c-27.188,22.954-62.28,36.827-100.566,36.827
	S238.614,464.898,211.425,441.944z M435.565,417.958l-78.699-78.699H467.24C464.113,368.688,452.773,395.7,435.565,417.958z"/>
<g>
</g>
<g>
</g>
<g>
</g>
<g>
</g>
<g>
</g>
<g>
</g>
<g>
</g>
<g>
</g>
<g>
</g>
<g>
</g>
<g>
</g>
<g>
</g>
<g>
</g>
<g>
</g>
<g>
</g>
</svg>
