<?xml version="1.0" encoding="utf-8"?>
<!-- Generator: Adobe Illustrator 16.0.4, SVG Export Plug-In . SVG Version: 6.00 Build 0)  -->
<!DOCTYPE svg PUBLIC "-//W3C//DTD SVG 1.1//EN" "http://www.w3.org/Graphics/SVG/1.1/DTD/svg11.dtd">
<svg version="1.1" id="Calque_1" xmlns="http://www.w3.org/2000/svg" xmlns:xlink="http://www.w3.org/1999/xlink" x="0px" y="0px"
	 width="300px" height="300px" viewBox="0 0 300 300" enable-background="new 0 0 300 300" xml:space="preserve">
<g>
	<path fill="#A7C136" d="M1.746,104.231c0-42.007,147.5-73.034,147.5-101.675c0,29.119,147.5,54.417,147.5,101.675V252.35
		c0,24.963-20.244,45.207-45.204,45.207H46.953c-24.963,0-45.207-20.244-45.207-45.207C1.746,252.35,1.746,146.239,1.746,104.231z"
		/>
	<path fill="#BECC2F" d="M296.746,195.882c0,42.008-147.5,73.034-147.5,101.675c0-29.119-147.5-54.418-147.5-101.675V47.764
		c0-24.963,20.244-45.207,45.204-45.207h204.589c24.963,0,45.207,20.244,45.207,45.207
		C296.746,47.764,296.746,153.874,296.746,195.882z"/>
	<path fill="#87B43D" d="M150.186,297.557v-19.579c0-13.641-11.059-24.694-24.692-24.694c-13.635,0-24.694,11.054-24.694,24.694
		v19.579H150.186z"/>
	<path fill="#87B43D" d="M100.78,297.557v-19.579c0-13.641-11.059-24.694-24.691-24.694s-24.691,11.054-24.691,24.694v19.579H100.78
		z"/>
	<path fill="#87B43D" d="M248.996,297.557v-19.579c0-13.641-11.059-24.694-24.691-24.694c-13.635,0-24.694,11.054-24.694,24.694
		v19.579H248.996z"/>
	<path fill="#87B43D" d="M199.591,297.557v-19.579c0-13.641-11.059-24.694-24.691-24.694c-13.632,0-24.691,11.054-24.691,24.694
		v19.579H199.591z"/>
	<path fill="#87B43D" d="M4.381,267.437c6.218,17.534,22.907,30.12,42.572,30.12h4.425v-19.579
		c0-13.641-11.059-24.694-24.694-24.694C16.827,253.283,8.338,259.076,4.381,267.437z"/>
	<path fill="#87B43D" d="M293.396,267.437c-6.218,17.534-22.907,30.12-42.572,30.12h-4.425v-19.579
		c0-13.641,11.059-24.694,24.694-24.694C280.949,253.283,289.438,259.076,293.396,267.437z"/>
	<path fill="#87B43D" d="M296.746,135.493H186.418l110.328-51.428c0-6.671,0-12.721,0-17.915l-107.311,50.021l97.062-97.062
		c-3.466-4.221-7.697-7.772-12.455-10.514L170.908,111.73L210.661,2.557h-17.276l-34.576,94.957V2.557H142.57V106.46L94.135,2.557
		H76.221l48.113,103.216L26.194,7.633c-4.906,2.545-9.269,5.966-12.919,10.049l104.254,104.253L1.746,79.529v17.293l105.582,38.671
		H1.746v16.239h111.402L2.932,203.106c1.563,4.819,4.629,9.406,8.858,13.786l101.068-47.112l-69.026,69.026
		c4.953,2.573,10.139,5.076,15.447,7.521l71.306-71.306l-32.137,88.255c5.174,2.212,10.175,4.389,14.896,6.542l29.226-80.262v86.876
		h16.239v-96.704l38.853,83.352c4.811-2.189,9.778-4.402,14.815-6.648l-34.531-74.079l61.707,61.706
		c5.271-2.504,10.418-5.049,15.332-7.636L181.062,162.5l113.771,41.672c1.233-2.716,1.913-5.479,1.913-8.29c0-2.542,0-5.328,0-8.304
		l-97.868-35.846h97.868C296.746,146.409,296.746,140.972,296.746,135.493z"/>
	<path fill="#A7C136" d="M222.546,172.829c0,20.877-73.3,36.294-73.3,50.527c0-14.472-73.3-27.044-73.3-50.527V99.222
		c0-12.405,10.061-22.465,22.462-22.465h101.672c12.404,0,22.465,10.061,22.465,22.465
		C222.546,99.222,222.546,151.953,222.546,172.829z"/>
	<g>
		<g>
			<g>
				<circle fill="#351C09" cx="114.388" cy="108.527" r="24.823"/>
			</g>
		</g>
		<g>
			<g>
				<circle fill="#FFFFFF" cx="114.388" cy="93.731" r="10.024"/>
			</g>
		</g>
	</g>
	<g>
		<g>
			<g>
				<circle fill="#351C09" cx="181.693" cy="108.527" r="24.823"/>
			</g>
		</g>
		<g>
			<g>
				<circle fill="#FFFFFF" cx="179.783" cy="93.731" r="10.024"/>
			</g>
		</g>
	</g>
	<g>
		<g>
			
				<path fill="none" stroke="#87B43D" stroke-width="16.2373" stroke-linecap="round" stroke-linejoin="round" stroke-miterlimit="10" d="
				M107.001,169.297c3.894,7.546,11.767,12.704,20.843,12.704c12.944,0,23.438-10.492,23.438-23.438"/>
			
				<path fill="none" stroke="#87B43D" stroke-width="16.2373" stroke-linecap="round" stroke-linejoin="round" stroke-miterlimit="10" d="
				M147.21,158.562c0,12.946,10.494,23.438,23.438,23.438c9.079,0,16.952-5.161,20.849-12.713"/>
		</g>
		<path fill="#351C09" d="M149.246,168.242c12.038,0,21.956-9.076,23.287-20.756c0-1.536,0.249-2.683-2.14-2.683
			c-8.883,0-40.617,0-41.851,0c-1.432,0-2.674,0.19-2.587,2.668C127.282,159.161,137.203,168.242,149.246,168.242z"/>
	</g>
</g>
</svg>
