<?xml version="1.0" encoding="utf-8"?>
<!-- Generator: Adobe Illustrator 16.0.4, SVG Export Plug-In . SVG Version: 6.00 Build 0)  -->
<!DOCTYPE svg PUBLIC "-//W3C//DTD SVG 1.1//EN" "http://www.w3.org/Graphics/SVG/1.1/DTD/svg11.dtd">
<svg version="1.1" id="Calque_1" xmlns="http://www.w3.org/2000/svg" xmlns:xlink="http://www.w3.org/1999/xlink" x="0px" y="0px"
	 width="300px" height="464px" viewBox="0 0 300 464" enable-background="new 0 0 300 464" xml:space="preserve">
<g>
	<g>
		<path fill="#FFFF11" d="M1.746,266.134c0-42.129,147.5-73.246,147.5-101.97c0,29.204,147.5,54.576,147.5,101.97v148.549
			c0,25.035-20.244,45.338-45.204,45.338H46.953c-24.963,0-45.207-20.303-45.207-45.338C1.746,414.683,1.746,308.264,1.746,266.134z
			"/>
		<path fill="#E89700" d="M296.746,358.051c0,42.129-147.5,73.246-147.5,101.97c0-29.203-147.5-54.575-147.5-101.97V209.502
			c0-25.035,20.244-45.338,45.204-45.338h204.589c24.963,0,45.207,20.303,45.207,45.338
			C296.746,209.502,296.746,315.921,296.746,358.051z"/>
		<path fill="#E8B300" d="M150.186,460.021v-19.636c0-13.68-11.059-24.766-24.692-24.766c-13.635,0-24.694,11.086-24.694,24.766
			v19.636H150.186z"/>
		<path fill="#E8B300" d="M100.78,460.021v-19.636c0-13.68-11.059-24.766-24.691-24.766s-24.691,11.086-24.691,24.766v19.636H100.78
			z"/>
		<path fill="#E8B300" d="M248.996,460.021v-19.636c0-13.68-11.059-24.766-24.691-24.766c-13.635,0-24.694,11.086-24.694,24.766
			v19.636H248.996z"/>
		<path fill="#E8B300" d="M199.591,460.021v-19.636c0-13.68-11.059-24.766-24.691-24.766c-13.632,0-24.691,11.086-24.691,24.766
			v19.636H199.591z"/>
		<path fill="#E8B300" d="M4.381,429.812c6.218,17.585,22.907,30.208,42.572,30.208h4.425v-19.636
			c0-13.68-11.059-24.766-24.694-24.766C16.827,415.619,8.338,421.429,4.381,429.812z"/>
		<path fill="#E8B300" d="M293.396,429.812c-6.218,17.585-22.907,30.208-42.572,30.208h-4.425v-19.636
			c0-13.68,11.059-24.766,24.694-24.766C280.949,415.619,289.438,421.429,293.396,429.812z"/>
		<path fill="#E8B319" d="M296.746,297.486H186.418l110.328-51.577c0-6.69,0-12.758,0-17.966l-107.311,50.166l97.062-97.344
			c-3.466-4.233-7.697-7.795-12.455-10.544L170.908,273.654l39.753-109.491h-17.276l-34.576,95.232v-95.232H142.57v104.206
			L94.135,164.164H76.221l48.113,103.516l-98.139-98.425c-4.906,2.553-9.269,5.983-12.919,10.079L117.529,283.89L1.746,241.359
			v17.344l105.582,38.783H1.746v16.286h111.402L2.932,365.296c1.563,4.833,4.629,9.434,8.858,13.826l101.068-47.248L43.832,401.1
			c4.953,2.581,10.139,5.092,15.447,7.543l71.306-71.513l-32.137,88.512c5.174,2.219,10.175,4.401,14.896,6.562l29.226-80.495
			v87.129h16.239v-96.985l38.853,83.594c4.811-2.196,9.778-4.415,14.815-6.668l-34.531-74.295l61.707,61.886
			c5.271-2.511,10.418-5.063,15.332-7.658l-73.923-74.138l113.771,41.792c1.233-2.724,1.913-5.494,1.913-8.313
			c0-2.55,0-5.344,0-8.328l-97.868-35.95h97.868C296.746,308.435,296.746,302.981,296.746,297.486z"/>
		<path fill="#FFFF11" d="M222.546,334.931c0,20.938-73.3,36.399-73.3,50.674c0-14.514-73.3-27.122-73.3-50.674v-73.82
			c0-12.441,10.061-22.531,22.462-22.531h101.672c12.404,0,22.465,10.09,22.465,22.531
			C222.546,261.11,222.546,313.994,222.546,334.931z"/>
		<g>
			<g>
				<g>
					<ellipse fill="#351C09" cx="114.388" cy="270.442" rx="24.823" ry="24.896"/>
				</g>
			</g>
			<g>
				<g>
					<ellipse fill="#FFFFFF" cx="114.388" cy="255.604" rx="10.024" ry="10.054"/>
				</g>
			</g>
		</g>
		<g>
			<g>
				<g>
					<ellipse fill="#351C09" cx="181.693" cy="270.442" rx="24.823" ry="24.896"/>
				</g>
			</g>
			<g>
				<g>
					<ellipse fill="#FFFFFF" cx="179.783" cy="255.604" rx="10.024" ry="10.054"/>
				</g>
			</g>
		</g>
		<g>
			<g>
				
					<path fill="none" stroke="#E8B300" stroke-width="16.2609" stroke-linecap="round" stroke-linejoin="round" stroke-miterlimit="10" d="
					M107.001,331.389c3.894,7.567,11.767,12.74,20.843,12.74c12.944,0,23.438-10.521,23.438-23.507"/>
				
					<path fill="none" stroke="#E8B300" stroke-width="16.2609" stroke-linecap="round" stroke-linejoin="round" stroke-miterlimit="10" d="
					M147.21,320.622c0,12.985,10.494,23.507,23.438,23.507c9.079,0,16.952-5.176,20.849-12.749"/>
			</g>
			<path fill="#351C09" d="M149.246,330.331c12.038,0,21.956-9.103,23.287-20.816c0-1.54,0.249-2.69-2.14-2.69
				c-8.883,0-40.617,0-41.851,0c-1.432,0-2.674,0.19-2.587,2.676C127.282,321.223,137.203,330.331,149.246,330.331z"/>
		</g>
	</g>
	<g>
		<g>
			<g>
				<g>
					<polygon fill="#FFFFFF" stroke="#E89700" stroke-width="2.8682" stroke-miterlimit="10" points="179.747,153.692 
						51.437,111.917 42.095,81.667 72.249,72.292 					"/>
					<polygon fill="#E89700" points="72.677,72.606 72.249,72.292 42.095,81.667 51.437,111.917 52.676,112.354 78.85,104.084 					
						"/>
				</g>
				<g>
					<polygon fill="#FFFFFF" stroke="#E89700" stroke-width="2.8682" stroke-miterlimit="10" points="114.231,155.847 
						246.714,111.917 256.056,81.667 225.902,72.292 					"/>
					<polygon fill="#E89700" points="246.733,111.854 256.056,81.667 225.902,72.292 214.415,100.017 					"/>
				</g>
				<g>
					<polygon fill="#FFFFFF" stroke="#A7C136" stroke-width="2.8682" stroke-miterlimit="10" points="164.89,159.437 64,73.139 
						66.523,41.573 97.995,44.098 					"/>
					<polygon fill="#A7C136" points="98.836,45.444 97.995,44.098 66.523,41.573 64,73.139 64.73,73.781 98.42,80.628 					"/>
				</g>
				<g>
					<polygon fill="#FFFFFF" stroke="#A7C136" stroke-width="2.8682" stroke-miterlimit="10" points="132.311,158.36 234.15,73.139 
						231.628,41.573 200.156,44.098 					"/>
					<polygon fill="#A7C136" points="233.639,73.588 234.15,73.139 231.628,41.573 200.156,44.098 198.663,76.32 					"/>
				</g>
				<g>
					<polygon fill="#FFFFFF" stroke="#C7421C" stroke-width="2.8682" stroke-miterlimit="10" points="149.674,159.617 
						87.243,42.912 101.704,14.757 129.771,29.253 					"/>
					<polygon fill="#C7421C" points="129.983,30.533 129.771,29.253 101.704,14.757 87.243,42.912 88.829,46.157 116.32,60.042 
											"/>
				</g>
				<g>
					<polygon fill="#FFFFFF" stroke="#C7421C" stroke-width="2.8682" stroke-miterlimit="10" points="149.853,159.976 
						210.907,42.912 196.447,14.757 168.38,29.253 					"/>
					<polygon fill="#C7421C" points="196.447,14.757 168.791,29.041 180.287,63.153 210.907,42.912 210.907,42.912 					"/>
				</g>
				<g>
					<polygon fill="#FFFFFF" stroke="#5194E8" stroke-width="2.8682" stroke-miterlimit="10" points="149.674,159.078 
						127.139,27.416 149.47,5.023 171.792,27.416 					"/>
					<polygon fill="#5194E8" points="149.47,5.023 127.139,27.416 127.315,28.628 149.735,56.213 171.468,29.644 171.792,27.416 
											"/>
				</g>
			</g>
			<path fill="#E8B52F" d="M189.592,168.234v-28.957c0-4.497-3.636-8.143-8.119-8.143h-70.162c-4.486,0-8.12,3.646-8.12,8.143
				v28.957H189.592z"/>
			
				<ellipse fill="#FFFFFF" stroke="#5194E8" stroke-width="2.8682" stroke-miterlimit="10" cx="149.137" cy="149.922" rx="20.407" ry="20.466"/>
		</g>
		<ellipse fill="#5194E8" cx="139.65" cy="143.459" rx="5.728" ry="5.745"/>
		<ellipse fill="#5194E8" cx="158.445" cy="143.459" rx="5.729" ry="5.745"/>
		<path fill="none" stroke="#5194E8" stroke-width="4.0652" stroke-linecap="round" stroke-miterlimit="10" d="M136.984,154.59
			c1.876,4.915,6.592,8.418,12.153,8.418c5.56,0,10.276-3.503,12.156-8.418"/>
	</g>
</g>
</svg>
