<?xml version="1.0" encoding="iso-8859-1"?>
<!-- Generator: Adobe Illustrator 19.0.0, SVG Export Plug-In . SVG Version: 6.00 Build 0)  -->
<svg version="1.1" id="Layer_1" xmlns="http://www.w3.org/2000/svg" xmlns:xlink="http://www.w3.org/1999/xlink" x="0px" y="0px"
	 viewBox="0 0 512 512" style="enable-background:new 0 0 512 512;" xml:space="preserve">
<ellipse style="fill:#F4B2B0;" cx="256.004" cy="450.154" rx="110.584" ry="47.826"/>
<path style="fill:#B3404A;" d="M339.758,403.469c-22.604-9.778-52.348-15.162-83.757-15.162s-61.154,5.385-83.757,15.162
	c-4.647,2.011-8.918,4.184-12.813,6.502v-30.253c0-53.249,43.321-96.571,96.571-96.571s96.571,43.321,96.571,96.571
	c0,7.738,6.275,14.013,14.013,14.013c7.738,0,14.013-6.275,14.013-14.013c0-63.965-48.454-116.818-110.584-123.805v-55.968h25.457
	c7.738,0,14.013-6.275,14.013-14.013v-38.808c0-7.738-6.275-14.013-14.013-14.013s-14.013,6.275-14.013,14.013v24.795h-50.913
	V53.483c0-14.038,11.419-25.457,25.457-25.457c14.038,0,25.457,11.419,25.457,25.457v46.498c0,7.738,6.275,14.013,14.013,14.013
	s14.013-6.275,14.013-14.013V53.483C309.483,23.993,285.49,0,255.999,0s-53.483,23.993-53.483,53.483v132.449
	c0,7.738,6.274,14.013,14.013,14.013h25.457v55.968c-62.129,6.985-110.584,59.838-110.584,123.805v68.922c0,0.165,0,1.173,0,1.515
	c0,18.713,14.503,35.293,40.839,46.683C194.845,506.616,224.591,512,255.999,512c31.407,0,61.154-5.385,83.757-15.162
	c26.335-11.391,40.84-27.97,40.84-46.683C380.596,431.442,366.092,414.86,339.758,403.469z M241.986,483.558
	c-9.603-0.559-18.553-1.673-26.751-3.202v-60.404c8.198-1.529,17.149-2.643,26.751-3.202V483.558z M270.012,416.748
	c9.602,0.559,18.553,1.673,26.751,3.202v60.404c-8.198,1.529-17.149,2.643-26.751,3.202V416.748z M159.43,450.154
	c0-6.896,10.123-15.595,27.779-22.446v44.891C169.553,465.749,159.43,457.049,159.43,450.154z M324.789,472.6v-44.892
	c17.658,6.852,27.781,15.552,27.781,22.447C352.57,457.051,342.447,465.749,324.789,472.6z"/>
<g>
</g>
<g>
</g>
<g>
</g>
<g>
</g>
<g>
</g>
<g>
</g>
<g>
</g>
<g>
</g>
<g>
</g>
<g>
</g>
<g>
</g>
<g>
</g>
<g>
</g>
<g>
</g>
<g>
</g>
</svg>
