<svg id="Calque_1" data-name="Calque 1" xmlns="http://www.w3.org/2000/svg" viewBox="0 0 338.93 123.69"><defs><style>.cls-1{fill:#87b43d;}.cls-2{fill:#844d20;}.cls-3{fill:#c52e1b;}</style></defs><title>miam-logo</title><path class="cls-1" d="M59.53,23.47C70.71,34.65,75.09,48.4,69.31,54.19s-19.54,1.4-30.72-9.78-13-27.53-9.78-30.72S48.35,12.28,59.53,23.47Z" transform="translate(-7.48 -5.69)"/><path class="cls-2" d="M74.18,59.31c-7.5-10-6.66-33.94,7.67-49.5,5.83-6.33,9.5-4,12.33-2,0,0,7.17,4.17.5,10S72,41.15,77.35,57.15,74.18,59.31,74.18,59.31Z" transform="translate(-7.48 -5.69)"/><path class="cls-3" d="M127.46,125.84A59.09,59.09,0,0,0,137,93.06c0-28.31-18.43-51.25-41.17-51.25a35.74,35.74,0,0,0-23.58,9.25,35.73,35.73,0,0,0-23.58-9.25c-22.74,0-41.17,22.94-41.17,51.25a59.2,59.2,0,0,0,9.24,32.36l.93,1.4a6.33,6.33,0,0,0,11.27-5.11l-.32-1.28c-2.17-7.82-.22-15.2,4.76-17.06,3.56-1.33,7.64.43,11.21,4.3a2.24,2.24,0,0,0,1.69,1,1.81,1.81,0,0,0,1.81-1.81l0-.16c.36-6.18,3.2-11.05,7.48-11.93,5.7-1.17,11.82,5.18,13.66,14.18l0,.15a3,3,0,0,0,5.9-.14v0c1.84-9,8-15.34,13.66-14.18,4.29.88,7.12,5.75,7.48,11.93l0,.23a1.81,1.81,0,0,0,2.93,1.42l.6-.64c3.4-3.79,7.62-5.59,11.18-4.26,5,1.86,6.92,9.2,4.78,17l-.07.3a6.33,6.33,0,0,0,10.71,6.47Z" transform="translate(-7.48 -5.69)"/><path class="cls-3" d="M140.8,72.87c0-4.31,4.72-7.7,10.6-7.7s10.52,3.4,10.52,7.7-4.72,7.7-10.52,7.7S140.8,77.1,140.8,72.87Zm32.89,36.7c0,.25,0,.33-.17.5-5.88,6-13.09,9.11-20.3,9.11-9.53,0-11.85-7.46-11.85-13.25V86.62c0-1.66-.08-3.56,3.4-3.65,4-.08,13.09,1.57,15.57,4.14.5.5.58,1.16.58,2.4V105c0,3.06,1.57,4.06,3.31,4.06,2.49,0,6.21-2.07,8.62-3.81.17-.17.25-.17.33-.17.25,0,.5.33.5.83v3.65Z" transform="translate(-7.48 -5.69)"/><path class="cls-3" d="M233.33,109.57l-.08.58c-6,6-13.25,9-20.46,9-7.54,0-10.11-4.72-11.18-8.61-.66.91-1,1.32-1.16,1.57-2.4,3.06-5.72,7-13.17,7-9.11,0-14.58-6-14.58-16.73,0-11.51,9.44-19.72,31.48-19.72A112.88,112.88,0,0,1,219,84a1.73,1.73,0,0,1,1.57,1.74V105c0,3.06,1.49,4.06,3.31,4.06,2.57,0,6.21-2.07,8.7-3.81.25-.17.33-.17.41-.17.33,0,.33.33.33.83v3.65ZM201,89.19c-6.71.17-11.35,3.31-11.35,10.77s4.56,7.87,6,7.87a8.49,8.49,0,0,0,5.3-2.24Z" transform="translate(-7.48 -5.69)"/><path class="cls-3" d="M280.8,90.18c6.46-4.72,11.52-8.28,18.06-8.28,10.44,0,11.43,8.95,11.76,11.93l1.08,11.1c.33,3.06,1.49,4.14,3.31,4.14,2.57,0,6.21-2.07,8.7-3.81.17-.17.25-.17.33-.17.33,0,.42.33.42.83v3.64c0,.25,0,.41-.08.5A28.64,28.64,0,0,1,304,119.18c-10.35,0-11.43-8.53-11.68-11.85-.41-4-.91-8.2-1.33-12.18-.08-1.66-1.08-2.24-2.57-2.24-2.07,0-5.05,1.57-7,2.65V116.2A1.74,1.74,0,0,1,280,118l-16.4,1a1.68,1.68,0,0,1-1.66-1.74v-22c0-1.66-1.08-2.24-2.48-2.24-2.24,0-5.38,1.49-7.21,2.57V116.2a1.75,1.75,0,0,1-1.41,1.82l-16.48,1a1.62,1.62,0,0,1-1.57-1.74V86.62c0-1.66-.17-3.56,3.4-3.65,3.89-.08,13.09,1.57,15.57,4.22a3.45,3.45,0,0,1,.5,2.32v.25c6.13-4.31,12.43-7.87,18.81-7.87,6.55,0,8.53,4.39,9.53,7.54Z" transform="translate(-7.48 -5.69)"/><path class="cls-3" d="M344.83,97.06c0,1.57.17,3.4-3.4,3.64-1.33.08-2.82.17-4.39.17-3.15,0-6.46-.41-8.2-2.15-.5-.5-.58-1.16-.58-2.4l-1.49-22.37c0-1.57-.08-3.31,3.4-3.56,1.41-.08,3.4-.25,5.47-.25,4,0,8.37.41,10.19,2.24a3.38,3.38,0,0,1,.58,2.4Zm1.16,14.5c0,4.31-4.14,7.79-9.44,7.79s-9.36-3.48-9.36-7.79,4.14-7.7,9.36-7.7S346,107.25,346,111.56Z" transform="translate(-7.48 -5.69)"/></svg>