<?xml version="1.0" encoding="iso-8859-1"?>
<!-- Generator: Adobe Illustrator 19.0.0, SVG Export Plug-In . SVG Version: 6.00 Build 0)  -->
<svg version="1.1" id="Layer_1" xmlns="http://www.w3.org/2000/svg" xmlns:xlink="http://www.w3.org/1999/xlink" x="0px" y="0px"
	 viewBox="0 0 511.999 511.999" style="enable-background:new 0 0 511.999 511.999;" xml:space="preserve">
<g>
	<ellipse style="fill:#F4B2B0;" cx="293.769" cy="425.783" rx="61.597" ry="72.357"/>
	
		<ellipse transform="matrix(0.7071 -0.7071 0.7071 0.7071 -229.1762 178.6048)" style="fill:#F4B2B0;" cx="101.007" cy="365.943" rx="72.357" ry="61.596"/>
</g>
<path style="fill:#B3404A;" d="M491.245,82.964c-2.586-7.209-10.526-10.956-17.734-8.37L350.924,118.57
	c-10.31-14.553-13.619-33.24-8.55-50.578c5.082-17.388,17.983-31.397,34.576-38.085c8.607,12.016,12.404,26.776,10.503,41.601
	c-0.973,7.596,4.394,14.544,11.991,15.517c7.598,0.973,14.544-4.394,15.517-11.991c3.325-25.942-5.168-51.725-23.303-70.738
	c-3.427-3.592-8.51-5.077-13.333-3.898c-29.958,7.338-53.934,30.258-62.572,59.811c-6.728,23.018-3.447,47.652,8.389,67.967
	l-88.393,31.711c-11.946-14.901-16.054-34.892-10.657-53.358c5.081-17.382,17.976-31.389,34.56-38.078
	c7.599,10.672,11.528,23.7,10.933,36.818c-0.347,7.65,5.573,14.135,13.223,14.481c7.653,0.318,14.133-5.573,14.481-13.223
	c1.064-23.429-7.653-46.644-23.913-63.691c-3.427-3.592-8.51-5.077-13.333-3.898c-29.957,7.338-53.932,30.256-62.572,59.811
	c-7.051,24.124-3.106,50.025,10.159,70.867L62.363,222.085c-7.209,2.586-10.956,10.526-8.37,17.734
	c2.032,5.662,7.365,9.188,13.053,9.188c1.554,0,3.135-0.263,4.681-0.818l150.623-54.034c-3.851,12.461-9.829,27.932-18.584,41.253
	c-14.767,22.47-36.306,44.411-53.514,60.254c-11.164-7.01-24.408-10.783-38.5-10.783c-23.144,0-46.512,10.095-64.114,27.696
	c-15.993,15.993-25.736,36.46-27.436,57.632c-1.765,22.008,5.278,42.146,19.834,56.702c12.959,12.959,30.794,20.094,50.22,20.094
	c23.142,0,46.512-10.095,64.114-27.696c30.062-30.063,35.946-74.246,15.814-104.3c18.234-16.89,40.823-40.121,56.759-64.369
	c5.577-8.487,10.176-17.58,13.929-26.408l31.12,119.004c-31.027,10.705-53.691,43.652-53.691,82.544
	c0,47.543,33.856,86.22,75.471,86.22s75.471-38.679,75.471-86.22c0-45.231-30.651-82.412-69.468-85.922l-41.474-158.598
	l11.712-4.202c9.271,25.945,30.554,46.272,57.256,54.077c7.937,2.32,16.063,3.45,24.141,3.45c22.003,0,43.629-8.387,59.953-23.958
	c3.592-3.426,5.078-8.511,3.898-13.333c-4.446-18.148-14.829-34.649-29.238-46.465c-5.923-4.858-14.66-3.992-19.515,1.93
	c-4.856,5.923-3.992,14.659,1.93,19.515c7.638,6.264,13.612,14.466,17.31,23.631c-14.57,10.371-33.312,13.694-50.696,8.61
	c-18.163-5.308-32.611-19.163-38.906-36.83l186.73-66.985C490.083,98.113,493.83,90.173,491.245,82.964z M134.759,399.699
	c-12.439,12.44-28.659,19.573-44.502,19.573c-12.192,0-22.776-4.139-30.608-11.973c-18.612-18.612-15.202-52.307,7.6-75.111
	c12.439-12.439,28.659-19.573,44.502-19.573c6.935,0,13.347,1.344,19.031,3.94l-1.531,1.531c-5.415,5.415-5.415,14.196,0,19.611
	c2.708,2.708,6.257,4.062,9.805,4.062s7.098-1.355,9.805-4.062l1.517-1.517C159.066,355.183,153.387,381.071,134.759,399.699z
	 M341.51,425.781c0,32.25-21.415,58.486-47.737,58.486c-26.322,0-47.737-26.236-47.737-58.486c0-25.948,13.868-47.992,32.998-55.62
	l1.323,5.06c1.631,6.235,7.251,10.363,13.406,10.363c1.161,0,2.342-0.147,3.518-0.455c6.888-1.801,11.198-8.477,10.216-15.359
	C327.15,377.011,341.51,399.375,341.51,425.781z"/>
<g>
</g>
<g>
</g>
<g>
</g>
<g>
</g>
<g>
</g>
<g>
</g>
<g>
</g>
<g>
</g>
<g>
</g>
<g>
</g>
<g>
</g>
<g>
</g>
<g>
</g>
<g>
</g>
<g>
</g>
</svg>
