<?xml version="1.0" encoding="iso-8859-1"?>
<!-- Generator: Adobe Illustrator 19.0.0, SVG Export Plug-In . SVG Version: 6.00 Build 0)  -->
<svg version="1.1" id="Layer_1" xmlns="http://www.w3.org/2000/svg" xmlns:xlink="http://www.w3.org/1999/xlink" x="0px" y="0px"
	 viewBox="0 0 512.006 512.006" style="enable-background:new 0 0 512.006 512.006;" xml:space="preserve">
<g>
	<path style="fill:#F4B2B0;" d="M455.702,419.382H56.306c-21.333,0-38.628-17.295-38.628-38.628l0,0
		c0-21.333,17.295-38.628,38.628-38.628h399.396c21.333,0,38.628,17.295,38.628,38.628l0,0
		C494.33,402.087,477.035,419.382,455.702,419.382z"/>
	<path style="fill:#F4B2B0;" d="M455.702,187.615h-228.67v48.587c0,15.679-12.709,28.388-28.388,28.388
		s-28.388-12.709-28.388-28.388v-38.347c0,15.677-12.709,28.388-28.388,28.388s-28.388-12.709-28.388-28.388v-10.242H56.306
		c-21.333,0-38.628,17.295-38.628,38.628l0,0c0,21.333,17.295,38.628,38.628,38.628h399.396c21.333,0,38.628-17.295,38.628-38.628
		l0,0C494.33,204.908,477.035,187.615,455.702,187.615z"/>
</g>
<path style="fill:#B3404A;" d="M509.692,226.241c0-15.287-6.397-29.099-16.642-38.931c10.245-9.832,16.642-23.645,16.642-38.932
	c0-29.77-24.221-53.99-53.992-53.99h-99.892C352.904,41.853,309.254,0,256.005,0s-96.9,41.853-99.805,94.39h-42.717H56.305
	c-29.77,0-53.99,24.22-53.99,53.99c0,15.287,6.397,29.099,16.642,38.932c-10.245,9.832-16.642,23.645-16.642,38.932
	c0,15.129,6.263,28.816,16.322,38.628C8.577,274.684,2.314,288.37,2.314,303.501c0,15.13,6.263,28.816,16.322,38.628
	c-10.059,9.813-16.322,23.499-16.322,38.63c0,15.13,6.263,28.816,16.322,38.628c-10.059,9.812-16.322,23.498-16.322,38.628
	c0,29.77,24.22,53.992,53.99,53.992H298c8.483,0,15.362-6.879,15.362-15.362s-6.879-15.362-15.362-15.362H56.305
	c-12.829,0-23.266-10.437-23.266-23.267c0-12.829,10.437-23.266,23.266-23.266h399.397c12.829,0,23.266,10.437,23.266,23.266
	c0,12.83-10.437,23.267-23.266,23.267h-58.347c-8.483,0-15.362,6.879-15.362,15.362s6.879,15.362,15.362,15.362h58.347
	c29.77,0,53.99-24.221,53.99-53.992c0-15.129-6.263-28.816-16.322-38.628c10.059-9.812,16.322-23.498,16.322-38.628
	c0-15.13-6.263-28.816-16.322-38.63c10.059-9.812,16.322-23.498,16.322-38.628c0-15.13-6.263-28.816-16.324-38.628
	C503.429,255.058,509.692,241.371,509.692,226.241z M240.357,249.394c0.29-0.919,0.547-1.851,0.779-2.794
	c0.055-0.226,0.106-0.453,0.157-0.679c0.2-0.877,0.378-1.764,0.524-2.659c0.017-0.103,0.038-0.204,0.055-0.307
	c0.152-0.975,0.261-1.963,0.347-2.959c0.022-0.241,0.038-0.482,0.055-0.725c0.071-1.014,0.12-2.034,0.12-3.066v-33.225h213.308
	c12.83,0,23.267,10.437,23.267,23.267c0,12.829-10.437,23.266-23.267,23.266H240.326
	C240.337,249.472,240.346,249.432,240.357,249.394z M256.005,30.724c36.302,0,66.148,28.085,69.001,63.665h-5.246
	c-8.483,0-15.362,6.879-15.362,15.362s6.879,15.362,15.362,15.362h135.943c12.83,0,23.267,10.437,23.267,23.266
	c0,12.83-10.437,23.267-23.267,23.267h-228.67c-8.483,0-15.362,6.879-15.362,15.362c0,0.101,0.014,0.201,0.015,0.303
	c-0.002,0.101-0.015,0.201-0.015,0.303v48.587c0,7.182-5.844,13.026-13.026,13.026c-7.182,0-13.026-5.844-13.026-13.026v-38.347
	v-72.741h61.395c8.483,0,15.362-6.879,15.362-15.362s-6.879-15.362-15.362-15.362h-60.011
	C189.857,58.809,219.702,30.724,256.005,30.724z M154.896,197.855c0,7.182-5.844,13.026-13.026,13.026
	c-7.182,0-13.026-5.844-13.026-13.026v-10.24v-0.607v-61.894h26.051V197.855z M56.305,125.114H98.12v46.532H56.305
	c-12.829,0-23.266-10.437-23.266-23.267C33.04,135.551,43.477,125.114,56.305,125.114z M33.04,226.241
	c0-12.829,10.437-23.266,23.266-23.266H98.42c0.032,0.28,0.08,0.553,0.117,0.831c0.043,0.316,0.083,0.634,0.134,0.949
	c0.063,0.392,0.137,0.779,0.209,1.168c0.057,0.304,0.109,0.608,0.172,0.909c0.086,0.409,0.184,0.81,0.281,1.214
	c0.066,0.275,0.124,0.551,0.197,0.825c0.128,0.492,0.272,0.977,0.416,1.462c0.066,0.224,0.129,0.449,0.2,0.671
	c0.192,0.607,0.393,1.207,0.611,1.802c0.094,0.255,0.197,0.504,0.295,0.757c0.151,0.389,0.298,0.779,0.459,1.161
	c0.117,0.278,0.243,0.55,0.366,0.825c0.155,0.352,0.31,0.704,0.475,1.049c0.134,0.281,0.277,0.558,0.416,0.836
	c0.167,0.332,0.333,0.664,0.508,0.991c0.149,0.278,0.304,0.551,0.459,0.828c0.18,0.32,0.361,0.638,0.548,0.952
	c0.163,0.272,0.329,0.541,0.498,0.808c0.194,0.309,0.389,0.614,0.59,0.919c0.175,0.264,0.353,0.527,0.535,0.788
	c0.206,0.296,0.416,0.591,0.628,0.883c0.186,0.257,0.375,0.51,0.567,0.76c0.223,0.29,0.449,0.578,0.679,0.863
	c0.195,0.243,0.39,0.484,0.59,0.722c0.238,0.284,0.482,0.564,0.728,0.84c0.203,0.229,0.402,0.458,0.61,0.682
	c0.258,0.281,0.525,0.555,0.791,0.83c0.204,0.21,0.407,0.422,0.614,0.63c0.286,0.283,0.578,0.555,0.869,0.83
	c0.201,0.187,0.398,0.379,0.602,0.564c0.335,0.303,0.677,0.593,1.022,0.885c0.171,0.146,0.336,0.295,0.51,0.438
	c0.513,0.422,1.037,0.834,1.568,1.234c0.009,0.006,0.018,0.014,0.028,0.022c0.545,0.409,1.103,0.803,1.668,1.186
	c0.152,0.103,0.31,0.2,0.464,0.301c0.413,0.273,0.83,0.544,1.252,0.803c0.204,0.124,0.413,0.241,0.619,0.364
	c0.381,0.224,0.76,0.449,1.149,0.661c0.23,0.127,0.465,0.246,0.699,0.369c0.372,0.197,0.745,0.39,1.125,0.576
	c0.246,0.12,0.493,0.233,0.74,0.35c0.375,0.175,0.753,0.349,1.134,0.513c0.253,0.111,0.51,0.215,0.767,0.32
	c0.383,0.157,0.768,0.31,1.157,0.456c0.26,0.097,0.521,0.192,0.783,0.286c0.393,0.14,0.788,0.273,1.184,0.401
	c0.264,0.086,0.53,0.169,0.796,0.25c0.404,0.123,0.811,0.237,1.22,0.347c0.264,0.072,0.528,0.143,0.796,0.21
	c0.421,0.104,0.846,0.201,1.272,0.293c0.26,0.057,0.519,0.115,0.78,0.167c0.446,0.089,0.896,0.166,1.346,0.241
	c0.247,0.04,0.492,0.086,0.74,0.123c0.485,0.072,0.976,0.131,1.466,0.187c0.218,0.026,0.433,0.055,0.653,0.077
	c0.575,0.057,1.154,0.098,1.734,0.132c0.137,0.008,0.273,0.022,0.41,0.029c0.73,0.035,1.464,0.057,2.204,0.057
	c0.038,0,0.075-0.005,0.114-0.005c0.968-0.002,1.926-0.046,2.879-0.111c0.267-0.018,0.535-0.037,0.802-0.061
	c0.971-0.084,1.937-0.189,2.89-0.335c0.092-0.014,0.181-0.034,0.273-0.049c0.886-0.141,1.762-0.316,2.63-0.512
	c0.249-0.057,0.498-0.112,0.747-0.172c0.926-0.224,1.843-0.472,2.745-0.754c0.025-0.008,0.051-0.014,0.077-0.022
	c0.012,0.161,0.037,0.321,0.051,0.482c0.043,0.492,0.097,0.98,0.157,1.467c0.038,0.312,0.074,0.624,0.118,0.932
	c0.075,0.522,0.164,1.038,0.258,1.555c0.048,0.264,0.089,0.53,0.143,0.794c0.147,0.736,0.312,1.464,0.496,2.184
	c0.009,0.037,0.017,0.075,0.026,0.112c0.197,0.76,0.416,1.512,0.651,2.257c0.015,0.046,0.026,0.094,0.04,0.138H56.305
	C43.477,249.509,33.04,239.072,33.04,226.241z M478.968,380.755c0,12.829-10.437,23.266-23.266,23.266H56.305
	c-12.829,0-23.266-10.437-23.266-23.266c0-12.83,10.437-23.267,23.266-23.267h399.397
	C468.531,357.488,478.968,367.925,478.968,380.755z M455.703,280.233c12.829,0,23.266,10.437,23.266,23.266
	s-10.437,23.266-23.266,23.266H56.305c-12.829,0-23.266-10.437-23.266-23.266s10.437-23.266,23.266-23.266H455.703L455.703,280.233z
	"/>
<g>
</g>
<g>
</g>
<g>
</g>
<g>
</g>
<g>
</g>
<g>
</g>
<g>
</g>
<g>
</g>
<g>
</g>
<g>
</g>
<g>
</g>
<g>
</g>
<g>
</g>
<g>
</g>
<g>
</g>
</svg>
