<?xml version="1.0" encoding="iso-8859-1"?>
<!-- Generator: Adobe Illustrator 19.0.0, SVG Export Plug-In . SVG Version: 6.00 Build 0)  -->
<svg version="1.1" id="Layer_1" xmlns="http://www.w3.org/2000/svg" xmlns:xlink="http://www.w3.org/1999/xlink" x="0px" y="0px"
	 viewBox="0 0 511.997 511.997" style="enable-background:new 0 0 511.997 511.997;" xml:space="preserve">
<g>
	<path style="fill:#F4B2B0;" d="M390.433,19.944c-36.54-12.149-77.296-4.569-105.135,23.27
		c-17.519,17.519-26.979,40.158-28.583,63.638c22.673,0.172,43.395,8.491,59.414,22.17c6.729,5.137,12.787,11.109,18.009,17.77
		c12.091-4.804,23.342-12.03,33.027-21.715C395.001,97.24,402.582,56.482,390.433,19.944z"/>
	<path style="fill:#F4B2B0;" d="M177.859,146.794c5.221-6.662,11.279-12.634,18.009-17.77c16.017-13.68,36.74-21.997,59.414-22.17
		c-1.604-23.481-11.065-46.12-28.583-63.638c-27.84-27.84-68.597-35.42-105.136-23.272c-12.149,36.538-4.567,77.296,23.27,105.135
		C154.517,134.764,165.767,141.99,177.859,146.794z"/>
</g>
<g>
	<path style="fill:#B3404A;" d="M417.062,349.315c0-42.081-21.972-81.304-60.279-107.613c-6.53-4.485-15.463-2.827-19.95,3.705
		c-4.487,6.533-2.828,15.465,3.705,19.95c30.396,20.874,47.827,51.475,47.827,83.957c0,60.214-59.381,109.201-132.368,109.201
		c-15.109,0-29.924-2.088-44.032-6.204c-7.606-2.22-15.574,2.148-17.793,9.754c-2.22,7.608,2.148,15.574,9.754,17.793
		c3.007,0.878,6.048,1.649,9.104,2.37l-2.34,2.34c-5.603,5.603-5.603,14.688,0,20.293c2.802,2.802,6.474,4.203,10.146,4.203
		s7.345-1.4,10.146-4.203l10.668-10.668v3.455c0,7.925,6.424,14.348,14.348,14.348c7.923,0,14.348-6.424,14.348-14.348v-3.457
		l10.668,10.668c2.802,2.802,6.474,4.203,10.146,4.203s7.343-1.402,10.146-4.203c5.603-5.603,5.603-14.688,0-20.291l-2.347-2.347
		C366.979,466.09,417.062,412.619,417.062,349.315z"/>
	<path style="fill:#B3404A;" d="M206.065,139.215c0.129-0.108,0.261-0.212,0.39-0.319c0.796-0.651,1.606-1.287,2.428-1.908
		c0.211-0.159,0.425-0.317,0.637-0.475c0.726-0.538,1.464-1.06,2.21-1.573c0.319-0.218,0.637-0.438,0.958-0.65
		c0.62-0.413,1.25-0.812,1.881-1.207c0.453-0.283,0.904-0.567,1.362-0.839c0.461-0.275,0.93-0.538,1.396-0.804
		c0.63-0.359,1.258-0.719,1.898-1.06c0.174-0.092,0.35-0.178,0.524-0.268c10.938-5.712,23.158-8.817,35.643-8.912
		c0.014,0,0.027-0.003,0.042-0.003c0.189-0.001,0.376-0.014,0.565-0.014c0.189,0,0.376,0.013,0.565,0.014
		c0.014,0,0.027,0.003,0.042,0.003c12.485,0.096,24.706,3.2,35.644,8.912c0.174,0.09,0.35,0.176,0.524,0.268
		c0.64,0.34,1.268,0.702,1.898,1.06c0.466,0.265,0.936,0.528,1.396,0.804c0.458,0.273,0.91,0.558,1.363,0.841
		c0.631,0.395,1.26,0.793,1.878,1.205c0.323,0.214,0.643,0.433,0.961,0.653c0.743,0.511,1.479,1.032,2.202,1.568
		c0.217,0.159,0.43,0.32,0.646,0.481c0.818,0.618,1.624,1.251,2.416,1.9c0.135,0.109,0.27,0.218,0.402,0.329
		c17.323,14.377,28.377,36.059,28.377,60.277c0,7.925,6.425,14.348,14.348,14.348s14.348-6.424,14.348-14.348
		c0-16.349-3.698-31.846-10.282-45.718c8.982-5.01,17.225-11.199,24.582-18.555c30.817-30.819,41.062-76.726,26.74-119.807
		c-1.428-4.293-4.797-7.662-9.088-9.088C382.332,2.129,369.266,0,356.126,0c-30.892,0-59.65,11.744-80.975,33.067
		c-7.635,7.635-14.048,16.327-19.155,25.755c-5.105-9.427-11.52-18.121-19.155-25.755C215.518,11.744,186.761,0,155.868,0
		c-13.139,0-26.204,2.129-38.834,6.328c-4.293,1.428-7.662,4.795-9.088,9.088c-14.324,43.081-4.078,88.99,26.741,119.809
		c7.355,7.355,15.598,13.543,24.582,18.554c-6.583,13.872-10.281,29.37-10.281,45.718v46.704
		c-34.455,26.173-54.053,63.368-54.053,103.115c0,39.586,19.855,77.289,54.476,103.443c2.588,1.956,5.626,2.9,8.638,2.9
		c4.345,0,8.639-1.966,11.46-5.701c4.777-6.323,3.524-15.321-2.799-20.098c-27.377-20.682-43.078-50.04-43.078-80.546
		c0-32.482,17.432-63.083,47.827-83.957c3.897-2.676,6.226-7.1,6.226-11.827v-54.035
		C177.684,175.277,188.739,153.592,206.065,139.215z M295.444,53.359c15.904-15.904,37.455-24.662,60.682-24.662
		c7.643,0,15.265,0.944,22.742,2.814c7.662,30.568-0.412,61.982-21.85,83.421c-5.711,5.711-12.127,10.5-19.154,14.308
		c-3.944-4.099-8.197-7.906-12.72-11.384c-4.183-3.545-8.622-6.732-13.256-9.57c-0.268-0.165-0.535-0.33-0.805-0.494
		c-1.254-0.752-2.517-1.486-3.798-2.187c-0.508-0.278-1.024-0.538-1.537-0.808c-0.772-0.406-1.547-0.808-2.329-1.194
		c-0.776-0.385-1.557-0.759-2.343-1.125c-0.39-0.181-0.785-0.356-1.177-0.532c-8.425-3.807-17.417-6.564-26.826-8.081
		C276.607,78.415,284.205,64.599,295.444,53.359z M133.126,31.51c7.478-1.87,15.099-2.814,22.742-2.814
		c23.227,0,44.778,8.758,60.682,24.662c11.241,11.241,18.837,25.055,22.369,40.505c-9.405,1.515-18.396,4.272-26.817,8.077
		c-0.396,0.178-0.793,0.354-1.188,0.538c-0.783,0.366-1.563,0.738-2.336,1.122c-0.786,0.389-1.564,0.792-2.342,1.201
		c-0.506,0.267-1.02,0.525-1.522,0.801c-1.284,0.7-2.548,1.436-3.804,2.19c-0.27,0.162-0.538,0.329-0.806,0.494
		c-4.635,2.838-9.072,6.025-13.255,9.57c-4.524,3.477-8.777,7.285-12.721,11.384c-7.026-3.808-13.442-8.598-19.151-14.307
		C133.54,93.494,125.464,62.078,133.126,31.51z"/>
</g>
<g>
</g>
<g>
</g>
<g>
</g>
<g>
</g>
<g>
</g>
<g>
</g>
<g>
</g>
<g>
</g>
<g>
</g>
<g>
</g>
<g>
</g>
<g>
</g>
<g>
</g>
<g>
</g>
<g>
</g>
</svg>
