<svg xmlns="http://www.w3.org/2000/svg" viewBox="0 0 950.09 869.07"><defs><style>.cls-1{fill:#ffb200;}.cls-2{fill:#fff;}.cls-3{stroke:#fff;stroke-miterlimit:10;stroke-width:16px;}</style></defs><title>penguin</title><g id="pattes3"><path class="cls-1" d="M362.16,916.94s10.26-42.27,94.8-21.76S531.26,958,531.26,958l-6.84,28.18s-6.84,28.18-35,21.34-21.34-35-21.34-35-6.84,28.18-35,21.34-21.34-35-21.34-35-6.84,28.18-35,21.34-21.34-35-21.34-35Z" transform="translate(-65.15 -139.5)"/><path class="cls-1" d="M718.08,916.94s-10.26-42.27-94.8-21.76S549,958,549,958l6.84,28.18s6.84,28.18,35,21.34,21.34-35,21.34-35,6.84,28.18,35,21.34,21.34-35,21.34-35,6.84,28.18,35,21.34,21.34-35,21.34-35Z" transform="translate(-65.15 -139.5)"/></g><g id="corps"><circle cx="474.85" cy="400" r="400"/></g><g id="ventre-blanc"><g id="Calque_16" data-name="Calque 16"><circle class="cls-2" cx="385.25" cy="346.51" r="116.01"/><circle class="cls-2" cx="565.47" cy="346.51" r="116.01"/><circle class="cls-2" cx="474.85" cy="589.21" r="210.29"/></g></g><g id="ailes2"><path class="cls-3" d="M177.86,445.25s-153.2,149.55-89,232,238-49.09,238-49.09" transform="translate(-65.15 -139.5)"/><path class="cls-3" d="M902.53,445.25s153.2,149.55,89,232-238-49.09-238-49.09" transform="translate(-65.15 -139.5)"/></g><g id="bec"><path class="cls-1" d="M441.5,598.57l84.86,70.71s14.14,14.14,28.29,0,84.86-70.71,84.86-70.71,0-14.14-14.14-14.14c-6.76,0-45.88,12-84.86,12-42.51,0-84.86-12-84.86-12S441.5,584.43,441.5,598.57Z" transform="translate(-65.15 -139.5)"/></g><g id="yeux"><g id="Calque_8" data-name="Calque 8"><g id="Calque_13" data-name="Calque 13"><g id="Calque_14" data-name="Calque 14"><circle cx="385.25" cy="345.51" r="54"/><circle class="cls-2" cx="403.25" cy="336.51" r="18"/><circle cx="565.47" cy="345.51" r="54"/><circle class="cls-2" cx="583.47" cy="336.51" r="18"/></g></g></g></g></svg>