<?xml version="1.0" encoding="iso-8859-1"?>
<!-- Generator: Adobe Illustrator 19.0.0, SVG Export Plug-In . SVG Version: 6.00 Build 0)  -->
<svg version="1.1" id="Layer_1" xmlns="http://www.w3.org/2000/svg" xmlns:xlink="http://www.w3.org/1999/xlink" x="0px" y="0px"
	 viewBox="0 0 512 512" style="enable-background:new 0 0 512 512;" xml:space="preserve">
<path style="fill:#F4B2B0;" d="M459.014,270.35c-43.865,0-67.851-23.561-68.063-23.783c-1.613-1.637-3.896-2.401-6.155-2.073
	c-2.259,0.343-4.228,1.73-5.297,3.743c-0.105,0.225-12.157,22.116-55.692,22.116c-34.875,0-53.362-13.323-59.707-19.054
	c-0.506-0.458-2.754-2.931-3.625-3.625c-3.082-2.483-7.59-1.977-10.064,1.106c-0.174,0.211-17.807,21.572-62.223,21.572
	c-42.877,0-55.234-21.277-55.692-22.116c-1.072-2.012-3.036-3.411-5.297-3.743c-2.272-0.329-4.555,0.45-6.155,2.073
	c-0.235,0.235-23.856,23.783-68.061,23.783c-13.429,0-38.804-5.921-38.804-28.316c0-9.84,5.05-19.547,13.499-25.975
	c9.407-7.132,21.317-9.193,33.568-5.779c2.956,0.811,6.098-0.332,7.827-2.872l0.587-0.858
	c28.822-42.266,72.323-106.055,186.343-106.407c114.019,0.353,157.519,64.143,186.329,106.407l0.59,0.858
	c1.729,2.532,4.872,3.682,7.824,2.859c12.242-3.402,24.163-1.34,33.568,5.791c8.451,6.426,13.501,16.134,13.501,25.975
	C497.818,264.429,472.443,270.35,459.014,270.35L459.014,270.35z"/>
<g>
	<path style="fill:#B3404A;" d="M449.912,332.994c1.729,0.691,3.512,1.02,5.266,1.02c5.627,0,10.953-3.372,13.171-8.916
		l18.601-46.476c14.44-6.688,25.05-18.988,25.05-36.587c0-14.239-7.139-28.169-19.115-37.273
		c-8.862-6.721-19.491-10.274-30.735-10.274c-3.382,0-6.803,0.323-10.221,0.963c-14.713-21.54-33.122-47.561-62.366-69.217
		C353.193,99.3,309.52,86.127,255.96,85.961c-53.471,0.165-97.143,13.337-133.516,40.27c-29.245,21.656-47.666,47.692-62.383,69.226
		c-3.424-0.641-6.85-0.967-10.238-0.967c-11.231,0-21.85,3.551-30.73,10.283C7.138,213.867,0,227.797,0,242.034
		c0,17.599,10.61,29.899,25.05,36.587l47.649,119.053H32.632c-7.831,0-14.182,6.351-14.182,14.182
		c0,7.831,6.351,14.182,14.182,14.182h446.737c7.831,0,14.182-6.351,14.182-14.182c0-7.831-6.351-14.182-14.182-14.182h-40.067
		l6.342-15.849c2.91-7.273-0.625-15.525-7.897-18.437c-7.271-2.907-15.525,0.624-18.437,7.897l-10.561,26.387H103.25L57.927,284.43
		c33.978-1.238,56.802-14.966,67.064-22.715c7.958,8.803,26.404,22.815,63.2,22.815c37.323,0,58.618-13.581,67.833-21.465
		c8.675,7.334,30.272,21.465,67.786,21.465c36.512,0,55.001-13.881,63.13-22.837c10.257,7.809,32.973,21.51,67.132,22.738
		l-12.056,30.123C439.105,321.83,442.641,330.082,449.912,332.994z M366.977,241.58c-0.105,0.199-0.206,0.399-0.302,0.603
		c0.018-0.037,0.14-0.37,0.468-0.909C367.087,241.375,367.032,241.478,366.977,241.58z M391.557,255.646
		c0.186-0.302,0.335-0.559,0.452-0.764l0.016,0.008C391.885,255.153,391.729,255.406,391.557,255.646z M385.829,230.236
		c-1.024,0-2.056,0.075-3.163,0.235c-6.534,0.993-12.299,5.003-15.498,10.759c-0.905,1.354-10.794,14.938-43.358,14.938
		c-29.556,0-44.703-10.505-50.002-15.216c-0.152-0.156-0.343-0.359-0.556-0.579c-1.594-1.666-2.73-2.829-3.877-3.746
		c-3.775-3.041-8.523-4.716-13.368-4.716c-6.409,0-12.391,2.822-16.461,7.755c-1.048,1.166-15.529,16.502-51.355,16.502
		c-32.634,0-42.515-13.68-43.382-14.981c-3.225-5.766-9.007-9.764-15.578-10.73c-6.582-0.95-13.476,1.342-18.179,6.052
		c-1.108,1.069-20.92,19.661-58.066,19.661c-0.247,0-24.62-0.384-24.62-14.134c0-5.432,2.954-10.922,7.884-14.673
		c5.864-4.446,13.147-5.66,21.25-3.402c1.845,0.505,3.748,0.762,5.656,0.762c7.071,0,13.669-3.489,17.626-9.306l0.6-0.875
		c28.747-42.154,68.117-99.886,174.582-100.214c106.572,0.328,145.923,58.059,174.694,100.269l0.56,0.814
		c3.981,5.826,10.566,9.305,17.618,9.305c1.93,0,3.855-0.262,5.714-0.78c2.585-0.719,5.144-1.084,7.603-1.084
		c5.076,0,9.651,1.516,13.582,4.499c4.948,3.763,7.902,9.252,7.902,14.684c0,13.748-24.375,14.134-24.62,14.134
		c-36.726,0-56.815-18.474-58.087-19.683C396.946,232.511,391.453,230.236,385.829,230.236z"/>
	<path style="fill:#B3404A;" d="M256,173.747c-7.831,0-14.182-6.351-14.182-14.182v-16.539c0-7.831,6.351-14.182,14.182-14.182
		c7.831,0,14.182,6.351,14.182,14.182v16.539C270.182,167.397,263.831,173.747,256,173.747z"/>
	<path style="fill:#B3404A;" d="M320.435,171.325c-3.631,0-7.258-1.386-10.028-4.154l-11.695-11.695
		c-5.538-5.538-5.538-14.518,0-20.058c5.54-5.537,14.517-5.537,20.058,0l11.695,11.695c5.538,5.538,5.538,14.518,0,20.058
		C327.695,169.939,324.066,171.325,320.435,171.325z"/>
	<path style="fill:#B3404A;" d="M191.564,171.325c-3.631,0-7.258-1.386-10.028-4.154c-5.538-5.538-5.538-14.518,0-20.058
		l11.695-11.695c5.54-5.537,14.517-5.537,20.058,0c5.538,5.538,5.538,14.518,0,20.058l-11.695,11.695
		C198.822,169.939,195.194,171.325,191.564,171.325z"/>
</g>
<g>
</g>
<g>
</g>
<g>
</g>
<g>
</g>
<g>
</g>
<g>
</g>
<g>
</g>
<g>
</g>
<g>
</g>
<g>
</g>
<g>
</g>
<g>
</g>
<g>
</g>
<g>
</g>
<g>
</g>
</svg>
