<?xml version="1.0" encoding="iso-8859-1"?>
<!-- Generator: Adobe Illustrator 19.0.0, SVG Export Plug-In . SVG Version: 6.00 Build 0)  -->
<svg version="1.1" id="Layer_1" xmlns="http://www.w3.org/2000/svg" xmlns:xlink="http://www.w3.org/1999/xlink" x="0px" y="0px"
	 viewBox="0 0 512 512" style="enable-background:new 0 0 512 512;" xml:space="preserve">
<g>
	<path style="fill:#B3404A;" d="M296.114,362.463c7.866,0,14.242-6.378,14.242-14.242v-39.442c0-7.864-6.376-14.242-14.242-14.242
		H270.24v-42.455c0-7.864-6.376-14.242-14.242-14.242c-72.527,0-131.531-59.004-131.531-131.53c0-7.864-6.376-14.242-14.242-14.242
		s-14.242,6.378-14.242,14.242c0,83.432,64.188,152.142,145.773,159.373v28.854h-25.873c-7.866,0-14.242,6.378-14.242,14.242
		v148.864c0,29.972,24.385,54.357,54.357,54.357s54.357-24.385,54.357-54.357v-61.508c0-7.864-6.376-14.242-14.242-14.242
		s-14.242,6.378-14.242,14.242v61.508c0,14.268-11.606,25.873-25.873,25.873s-25.873-11.606-25.873-25.873V323.021h51.745v25.2
		C281.872,356.085,288.249,362.463,296.114,362.463z"/>
	<path style="fill:#B3404A;" d="M318.719,252.139c-5.312,0-10.411-2.985-12.856-8.098c-3.395-7.095-0.396-15.599,6.699-18.994
		c45.543-21.792,74.971-68.398,74.971-118.738c0-7.864,6.376-14.242,14.242-14.242c7.866,0,14.242,6.378,14.242,14.242
		c0,30.744-8.782,60.629-25.395,86.426c-16.163,25.096-38.903,45.154-65.765,58.006C322.873,251.69,320.779,252.139,318.719,252.139
		z"/>
</g>
<circle style="fill:#F4B2B0;" cx="255.999" cy="106.302" r="92.06"/>
<g>
	<path style="fill:#B3404A;" d="M256,212.618c-58.618,0-106.309-47.689-106.309-106.309S197.382,0,256,0
		s106.309,47.691,106.309,106.31S314.618,212.618,256,212.618z M256,28.484c-42.912,0-77.825,34.913-77.825,77.826
		c0,42.912,34.913,77.825,77.825,77.825s77.825-34.913,77.825-77.825C333.825,63.396,298.912,28.484,256,28.484z"/>
	<circle style="fill:#B3404A;" cx="255.999" cy="106.302" r="18.009"/>
</g>
<g>
</g>
<g>
</g>
<g>
</g>
<g>
</g>
<g>
</g>
<g>
</g>
<g>
</g>
<g>
</g>
<g>
</g>
<g>
</g>
<g>
</g>
<g>
</g>
<g>
</g>
<g>
</g>
<g>
</g>
</svg>
