<?xml version="1.0" encoding="iso-8859-1"?>
<!-- Generator: Adobe Illustrator 19.0.0, SVG Export Plug-In . SVG Version: 6.00 Build 0)  -->
<svg version="1.1" id="Layer_1" xmlns="http://www.w3.org/2000/svg" xmlns:xlink="http://www.w3.org/1999/xlink" x="0px" y="0px"
	 viewBox="0 0 512.002 512.002" style="enable-background:new 0 0 512.002 512.002;" xml:space="preserve">
<g>
	<path style="fill:#F4B2B0;" d="M355.586,464.823c-0.677,0.6-1.356,1.188-2.033,1.763c-14.983,12.709-31.616,19.882-49,19.882
		c-16.856,0-33.191-6.642-48.666-19.708V134.457c14.318-6.666,30.62-10.091,48.666-10.091c33.87,0,61.079,11.577,80.9,34.421
		c23.464,27.028,35.359,68.152,35.359,122.233C420.813,360.266,393.836,430.759,355.586,464.823L355.586,464.823z"/>
	<path style="fill:#F4B2B0;" d="M158.476,466.608c-0.686-0.588-1.377-1.175-2.068-1.786
		c-38.254-34.076-65.226-104.556-65.226-183.801c0-1.037,0.033-2.038,0.043-3.066c-0.015-1.342-0.043-2.682-0.043-4.029
		c0-54.071,11.892-95.205,35.356-122.233c5.811-6.701,12.288-12.408,19.355-17.161l0.149-0.103
		c7.195-4.817,15.032-8.618,23.48-11.413l1.101-1.461l-41.398,5.039c-36.375,4.427-65.914,21.302-85.421,48.803
		c-18.989,26.769-28.618,63.074-28.618,107.91c0,51.509,13.248,100.831,37.303,138.883c25.609,40.509,59.993,62.984,96.821,63.287
		l36.694-1.473l-3.301-2.456C174.274,478.167,166.157,473.123,158.476,466.608z"/>
</g>
<path style="fill:#B3404A;" d="M480.574,166.606c-4.855-6.839-14.332-8.451-21.171-3.597c-6.84,4.853-8.451,14.332-3.597,21.171
	c17.137,24.151,25.824,57.506,25.824,99.136c0,48.669-12.413,95.108-34.952,130.761c-20.326,32.147-46.332,51.497-74.094,55.449
	c38.759-39.856,63.416-112.425,63.416-188.505c0-57.844-13.147-102.318-39.075-132.184c-22.833-26.313-53.908-39.655-92.37-39.655
	c-11.744,0-22.935,1.326-33.481,3.938V60.072l34.304-21.704c7.087-4.484,9.198-13.864,4.714-20.951s-13.864-9.198-20.951-4.714
	l-41.371,26.175c-4.399,2.783-7.066,7.626-7.066,12.833v82.745v12.59v312.488c-17.513,12.523-35.733,14.933-53.469,7.438
	c-0.407-0.173-0.814-0.34-1.221-0.522c-0.279-0.125-0.557-0.263-0.837-0.392c-0.562-0.263-1.124-0.53-1.684-0.812
	c-0.22-0.111-0.439-0.228-0.659-0.342c-0.612-0.317-1.222-0.642-1.831-0.982c-0.202-0.112-0.404-0.229-0.606-0.345
	c-0.613-0.351-1.225-0.712-1.837-1.087c-0.213-0.131-0.425-0.26-0.636-0.393c-0.585-0.366-1.166-0.744-1.748-1.13
	c-0.241-0.161-0.483-0.319-0.724-0.483c-0.536-0.366-1.071-0.746-1.605-1.128c-0.278-0.199-0.556-0.393-0.834-0.598
	c-0.494-0.364-0.986-0.744-1.476-1.122c-0.302-0.234-0.606-0.46-0.908-0.7c-0.592-0.469-1.18-0.955-1.766-1.446
	c-0.187-0.156-0.374-0.302-0.56-0.46c0,0,0,0-0.002-0.002l-0.149-0.128c-0.557-0.475-1.116-0.952-1.64-1.415
	c-36.535-32.545-60.142-100.242-60.142-172.464c0-0.497,0.011-0.983,0.02-1.47c0.009-0.486,0.018-0.972,0.023-1.464
	c0-0.102,0-0.205,0-0.307l-0.017-1.263c-0.012-0.863-0.026-1.725-0.026-2.591c0-50.32,10.645-88.097,31.642-112.284
	c4.843-5.584,10.347-10.466,16.359-14.51c0.087-0.059,0.173-0.118,0.258-0.178c5.968-3.976,12.584-7.18,19.665-9.523
	c2.929-0.97,5.496-2.809,7.353-5.272l1.101-1.459c3.669-4.864,4.076-11.448,1.033-16.727c-3.042-5.278-8.94-8.223-14.991-7.491
	l-41.397,5.037c-40.736,4.958-73.923,24.008-95.973,55.09C10.571,195.998,0,235.26,0,283.307c0,54.345,14.081,106.55,39.652,146.996
	c28.464,45.025,67.362,70.012,109.532,70.359c0.041,0,0.084,0,0.125,0c0.203,0,0.407-0.003,0.609-0.012l36.696-1.473
	c0.354-0.014,0.705-0.046,1.052-0.084c6.542,1.687,13.163,2.56,19.788,2.56c16.839,0,33.124-5.304,48.552-15.767
	c15.428,10.463,31.712,15.767,48.549,15.767c6.631,0,13.258-0.876,19.808-2.568c0.336,0.036,0.67,0.079,1.011,0.093l36.7,1.471
	c0.202,0.008,0.405,0.012,0.607,0.012c0.043,0,0.084,0,0.126,0c42.173-0.346,81.075-25.331,109.541-70.355
	c25.571-40.446,39.652-92.649,39.652-146.99C512,235.26,501.426,195.994,480.574,166.606z M65.323,414.074
	c-22.54-35.654-34.952-82.095-34.952-130.768c0-41.625,8.686-74.975,25.818-99.124c13.448-18.957,32.501-32.125,55.77-38.711
	c-23.867,29.789-35.961,72.969-35.961,128.455c0,1.011,0.014,2.018,0.029,3.025l0.014,0.999l-0.017,1.014
	c-0.014,0.68-0.026,1.362-0.026,2.056c0,76.05,24.635,148.621,63.405,188.518C111.646,465.583,85.646,446.222,65.323,414.074z
	 M345.53,453.446c-0.601,0.531-1.203,1.052-1.798,1.558c-23.48,19.917-48.605,21.569-72.437,4.522V144.649
	c10.112-3.383,21.255-5.098,33.259-5.098c29.264,0,52.625,9.82,69.432,29.191c20.995,24.186,31.642,61.961,31.642,112.278
	C405.628,353.252,382.021,420.947,345.53,453.446z"/>
<g>
</g>
<g>
</g>
<g>
</g>
<g>
</g>
<g>
</g>
<g>
</g>
<g>
</g>
<g>
</g>
<g>
</g>
<g>
</g>
<g>
</g>
<g>
</g>
<g>
</g>
<g>
</g>
<g>
</g>
</svg>
