<?xml version="1.0" encoding="iso-8859-1"?>
<!-- Generator: Adobe Illustrator 19.0.0, SVG Export Plug-In . SVG Version: 6.00 Build 0)  -->
<svg version="1.1" id="Layer_1" xmlns="http://www.w3.org/2000/svg" xmlns:xlink="http://www.w3.org/1999/xlink" x="0px" y="0px"
	 viewBox="0 0 511.999 511.999" style="enable-background:new 0 0 511.999 511.999;" xml:space="preserve">
<path style="fill:#F4B2B0;" d="M356.598,356.747c0-55.835-45.489-101.046-101.429-100.596
	c-50.325,0.407-93.165,39.947-99.126,89.918c-6.91,57.932,43.604,96.281,75.371,122.686c9.209,7.657,14.53,6.151,14.53,18.131v0.808
	c0,5.56,4.501,10.061,10.054,10.061c5.56,0,10.061-4.501,10.061-10.061v-0.808c0-11.986,5.336-10.486,14.556-18.148
	C310.385,443.987,356.598,408.752,356.598,356.747L356.598,356.747z"/>
<path style="fill:#B3404A;" d="M326.652,200.156c-4.66,6.339-3.295,15.255,3.044,19.913c2.541,1.868,5.494,2.766,8.425,2.766
	c4.378,0,8.698-2.013,11.49-5.811c44.342-60.343,53.44-77.579,56.423-85.292c14.852-38.363-4.275-81.657-42.635-96.507
	c-14.846-5.746-30.701-6.58-45.762-2.603C304.19,12.946,281.58,0,255.998,0c-25.59,0-48.207,12.956-61.65,32.648
	c-6.165-1.61-12.527-2.463-18.853-2.463c-9.202,0-18.251,1.697-26.892,5.043c-38.358,14.852-57.487,58.143-42.641,96.507
	c5.972,15.423,35.799,58.63,88.694,128.493c-5.356,3.471-10.48,7.387-15.285,11.769c-20.866,19.029-34.174,44.734-37.473,72.383
	c-7.484,62.749,42.477,104,75.539,131.297c1.664,1.373,3.291,2.717,4.869,4.03c3.393,2.821,6.352,4.66,8.513,6.003
	c0.271,0.168,0.574,0.356,0.87,0.543c0.006,0.188,0.009,0.397,0.009,0.631v0.808c0,13.403,10.9,24.306,24.299,24.306
	c13.403,0,24.306-10.903,24.306-24.306v-0.808c0-0.235,0.003-0.446,0.009-0.632c0.301-0.189,0.61-0.382,0.885-0.553
	c2.164-1.345,5.127-3.185,8.523-6.01c1.576-1.309,3.197-2.648,4.856-4.019c30.37-25.081,76.267-62.983,76.267-118.926
	c0-63.325-51.52-114.845-114.848-114.845l-0.822,0.004c-0.001,0-0.001,0-0.003,0c-0.038,0-0.078,0-0.118,0
	c-1.063,0.009-2.128,0.033-3.197,0.073c-0.363-1.249-0.724-2.49-1.083-3.728c-0.352-1.214-0.707-2.433-1.056-3.637
	c-0.499-1.722-0.989-3.422-1.479-5.121c-0.313-1.087-0.63-2.182-0.94-3.261c-0.517-1.798-1.024-3.568-1.531-5.34
	c-0.279-0.973-0.561-1.957-0.838-2.922c-0.516-1.802-1.02-3.576-1.524-5.352c-0.261-0.915-0.526-1.843-0.783-2.751
	c-0.611-2.154-1.212-4.279-1.808-6.392c-0.132-0.469-0.268-0.949-0.4-1.415c-2.219-7.875-4.33-15.457-6.329-22.727
	c-0.097-0.35-0.188-0.688-0.283-1.037c-0.558-2.033-1.111-4.05-1.651-6.033c-0.175-0.641-0.343-1.264-0.516-1.9
	c-0.456-1.678-0.912-3.353-1.355-4.994c-0.191-0.707-0.375-1.395-0.563-2.094c-0.415-1.543-0.829-3.083-1.232-4.591
	c-0.199-0.748-0.392-1.476-0.588-2.214c-0.377-1.42-0.755-2.838-1.121-4.225c-0.208-0.785-0.407-1.55-0.611-2.325
	c-0.346-1.319-0.692-2.635-1.028-3.924c-0.207-0.792-0.407-1.566-0.61-2.348c-0.318-1.224-0.635-2.444-0.943-3.641
	c-0.205-0.793-0.403-1.571-0.604-2.353c-0.299-1.165-0.595-2.326-0.885-3.464c-0.194-0.765-0.383-1.516-0.573-2.268
	c-0.279-1.107-0.557-2.208-0.826-3.288c-0.188-0.752-0.372-1.493-0.556-2.232c-0.258-1.038-0.513-2.068-0.761-3.081
	c-0.182-0.742-0.36-1.473-0.537-2.201c-0.238-0.974-0.471-1.937-0.699-2.885c-0.172-0.715-0.342-1.422-0.509-2.123
	c-0.222-0.929-0.439-1.845-0.651-2.746c-0.16-0.675-0.316-1.343-0.47-2.003c-0.207-0.885-0.407-1.754-0.604-2.611
	c-0.148-0.647-0.295-1.288-0.439-1.919c-0.185-0.816-0.365-1.615-0.541-2.406c-0.141-0.631-0.281-1.261-0.416-1.875
	c-0.168-0.764-0.329-1.509-0.489-2.246c-0.127-0.585-0.254-1.172-0.375-1.742c-0.154-0.722-0.299-1.422-0.443-2.117
	c-0.114-0.551-0.229-1.104-0.338-1.638c-0.137-0.672-0.265-1.319-0.392-1.963c-0.1-0.507-0.202-1.02-0.296-1.51
	c-0.121-0.63-0.234-1.231-0.346-1.833c-0.087-0.467-0.177-0.942-0.258-1.39c-0.104-0.576-0.198-1.12-0.292-1.668
	c-0.074-0.429-0.151-0.868-0.219-1.279c-0.088-0.534-0.165-1.033-0.244-1.536c-0.06-0.38-0.122-0.775-0.177-1.137
	c-0.073-0.494-0.134-0.95-0.195-1.413c-0.044-0.328-0.094-0.671-0.132-0.983c-0.057-0.459-0.101-0.875-0.147-1.298
	c-0.03-0.272-0.066-0.564-0.09-0.821c-0.043-0.442-0.068-0.838-0.097-1.236c-0.014-0.194-0.036-0.412-0.046-0.595
	c-0.031-0.563-0.048-1.08-0.048-1.546c0-0.801,0.021-1.598,0.061-2.393c0.02-0.39,0.06-0.776,0.088-1.165
	c0.03-0.397,0.053-0.796,0.093-1.192c0.047-0.45,0.113-0.896,0.171-1.343c0.044-0.33,0.08-0.664,0.131-0.993
	c0.067-0.432,0.151-0.856,0.229-1.283c0.064-0.346,0.121-0.692,0.192-1.037c0.081-0.386,0.177-0.768,0.266-1.15
	c0.091-0.386,0.178-0.774,0.278-1.157c0.088-0.333,0.188-0.662,0.282-0.993c0.124-0.433,0.248-0.865,0.385-1.295
	c0.091-0.288,0.192-0.57,0.289-0.855c0.16-0.467,0.322-0.934,0.497-1.399c0.098-0.259,0.202-0.514,0.305-0.771
	c0.189-0.474,0.383-0.946,0.588-1.416c7.13-16.268,23.38-27.668,42.252-27.668c18.892,0,35.16,11.422,42.279,27.717
	c0.188,0.43,0.365,0.862,0.538,1.295c0.118,0.295,0.238,0.588,0.35,0.885c0.16,0.423,0.306,0.848,0.453,1.274
	c0.111,0.323,0.226,0.647,0.33,0.973c0.124,0.387,0.234,0.778,0.348,1.167c0.107,0.37,0.218,0.738,0.316,1.113
	c0.09,0.342,0.165,0.687,0.248,1.03c0.101,0.423,0.205,0.843,0.293,1.271c0.063,0.301,0.111,0.604,0.168,0.906
	c0.087,0.467,0.178,0.934,0.252,1.406c0.044,0.291,0.076,0.584,0.115,0.877c0.066,0.483,0.135,0.966,0.185,1.454
	c0.037,0.355,0.056,0.712,0.083,1.068c0.034,0.429,0.076,0.855,0.098,1.288c0.04,0.793,0.061,1.59,0.061,2.39
	c0,4.815-1.946,20.365-14.983,70.416c-1.984,7.614,2.581,15.393,10.194,17.376c7.615,1.987,15.393-2.583,17.375-10.195
	c14.255-54.727,15.903-70.496,15.903-77.597c0-1.289-0.033-2.57-0.098-3.842c-0.051-1.006-0.138-2.006-0.229-3.004
	c-0.024-0.259-0.034-0.523-0.06-0.782c-0.1-0.983-0.235-1.957-0.373-2.933c-0.038-0.271-0.064-0.546-0.105-0.816
	c-0.132-0.863-0.298-1.719-0.462-2.577c-0.073-0.38-0.131-0.765-0.208-1.142c-0.016-0.077-0.026-0.154-0.043-0.231
	c8.023-1.335,16.285-0.503,24.086,2.52c23.711,9.178,35.531,35.939,26.352,59.654C377.378,126.841,367.744,144.235,326.652,200.156z
	 M158.888,61.795c5.348-2.07,10.936-3.12,16.605-3.12c2.494,0,4.999,0.209,7.477,0.621c-0.013,0.064-0.021,0.128-0.036,0.192
	c-0.1,0.486-0.178,0.98-0.268,1.47c-0.14,0.752-0.288,1.501-0.405,2.259c-0.057,0.375-0.094,0.755-0.147,1.131
	c-0.12,0.872-0.245,1.744-0.335,2.623c-0.038,0.379-0.056,0.765-0.088,1.147c-0.076,0.88-0.157,1.761-0.202,2.645
	c-0.066,1.272-0.098,2.553-0.098,3.842c0,0.574,0.016,1.192,0.044,1.849c0.01,0.224,0.03,0.477,0.044,0.709
	c0.026,0.45,0.05,0.897,0.088,1.383c0.024,0.303,0.058,0.637,0.087,0.953c0.041,0.454,0.08,0.903,0.132,1.386
	c0.038,0.358,0.087,0.744,0.13,1.117c0.057,0.483,0.111,0.96,0.177,1.469c0.053,0.406,0.114,0.839,0.172,1.262
	c0.071,0.516,0.141,1.027,0.221,1.567c0.067,0.452,0.142,0.929,0.215,1.397c0.085,0.551,0.171,1.103,0.265,1.678
	c0.081,0.496,0.17,1.014,0.258,1.527c0.1,0.587,0.201,1.175,0.309,1.785c0.097,0.547,0.201,1.114,0.305,1.679
	c0.113,0.615,0.226,1.232,0.346,1.869c0.113,0.6,0.232,1.214,0.352,1.833c0.125,0.645,0.252,1.295,0.386,1.962
	c0.128,0.645,0.262,1.305,0.397,1.969c0.138,0.681,0.281,1.37,0.427,2.073c0.144,0.692,0.293,1.396,0.444,2.11
	s0.308,1.437,0.466,2.171c0.16,0.736,0.322,1.479,0.489,2.235c0.165,0.752,0.336,1.517,0.509,2.289
	c0.175,0.782,0.352,1.57,0.534,2.372c0.178,0.781,0.36,1.578,0.546,2.377c0.192,0.838,0.386,1.677,0.587,2.534
	c0.187,0.798,0.379,1.613,0.571,2.427c0.212,0.899,0.424,1.798,0.645,2.719c0.197,0.823,0.402,1.668,0.605,2.51
	c0.229,0.947,0.457,1.893,0.695,2.863c0.208,0.853,0.426,1.731,0.641,2.603c0.246,1,0.491,1.993,0.746,3.016
	c0.217,0.87,0.443,1.765,0.665,2.652c0.268,1.068,0.534,2.128,0.811,3.221c0.214,0.842,0.436,1.711,0.655,2.567
	c0.299,1.174,0.597,2.339,0.906,3.54c0.204,0.792,0.419,1.614,0.627,2.417c0.336,1.298,0.668,2.585,1.016,3.913
	c0.138,0.528,0.285,1.08,0.424,1.614c1.386,5.283,2.856,10.806,4.41,16.563c0.177,0.654,0.348,1.291,0.526,1.95
	c0.415,1.529,0.842,3.095,1.268,4.657c0.239,0.88,0.474,1.745,0.718,2.635c0.416,1.52,0.845,3.076,1.272,4.627
	c0.262,0.954,0.521,1.896,0.788,2.862c0.412,1.491,0.835,3.014,1.258,4.533c0.305,1.097,0.607,2.185,0.916,3.296
	c0.416,1.491,0.842,3.013,1.268,4.531c0.318,1.132,0.632,2.259,0.954,3.406c0.436,1.548,0.88,3.124,1.325,4.698
	c0.335,1.184,0.668,2.365,1.007,3.563c0.439,1.547,0.885,3.115,1.332,4.687c0.362,1.272,0.724,2.546,1.091,3.833
	c0.437,1.534,0.882,3.087,1.328,4.642c0.392,1.37,0.786,2.744,1.185,4.131c0.446,1.55,0.896,3.115,1.35,4.688
	c0.405,1.405,0.812,2.816,1.224,4.238c0.46,1.59,0.925,3.192,1.392,4.805c0.211,0.728,0.416,1.437,0.628,2.17
	c-0.912,0.278-1.821,0.568-2.728,0.869c-72.561-95.613-85.948-120.056-88.311-126.16C123.355,97.738,135.178,70.976,158.888,61.795z
	 M342.352,356.747c0,42.521-38.1,73.985-65.918,96.958c-1.684,1.39-3.329,2.749-4.926,4.077c-1.887,1.57-3.57,2.613-5.349,3.718
	c-3.751,2.33-7.453,4.972-10.158,9.076c-2.701-4.097-6.4-6.735-10.142-9.061c-1.776-1.104-3.453-2.147-5.34-3.715
	c-1.603-1.333-3.255-2.697-4.943-4.091c-29.977-24.749-71.032-58.645-65.388-105.952c4.803-40.265,37.835-72.598,76.946-76.878
	c0.242-0.026,0.484-0.047,0.725-0.071c0.944-0.095,1.892-0.171,2.843-0.232c0.339-0.021,0.678-0.046,1.016-0.063
	c1.184-0.061,2.37-0.107,3.563-0.117c0.001,0,0.003,0,0.003,0l0,0l0.712-0.003C303.613,270.392,342.352,309.13,342.352,356.747z"/>
<g>
</g>
<g>
</g>
<g>
</g>
<g>
</g>
<g>
</g>
<g>
</g>
<g>
</g>
<g>
</g>
<g>
</g>
<g>
</g>
<g>
</g>
<g>
</g>
<g>
</g>
<g>
</g>
<g>
</g>
</svg>
