<?xml version="1.0" encoding="iso-8859-1"?>
<!-- Generator: Adobe Illustrator 19.0.0, SVG Export Plug-In . SVG Version: 6.00 Build 0)  -->
<svg version="1.1" id="Layer_1" xmlns="http://www.w3.org/2000/svg" xmlns:xlink="http://www.w3.org/1999/xlink" x="0px" y="0px"
	 viewBox="0 0 512 512" style="enable-background:new 0 0 512 512;" xml:space="preserve">
<g>
	<rect x="13.088" y="325.255" style="fill:#F4B2B0;" width="454.535" height="51.134"/>
	<path style="fill:#F4B2B0;" d="M400.935,325.255c4.801-10.545,7.495-22.249,7.495-34.589c0-46.175-37.432-83.607-83.607-83.607
		s-83.607,37.432-83.607,83.607c0,12.34,2.696,24.046,7.495,34.589H400.935z"/>
</g>
<path style="fill:#B3404A;" d="M508.841,242.543c-3.695-8.486-10.271-15.112-18.285-18.96c2.604-8.355,2.351-17.641-1.408-26.275
	c-6.001-13.784-19.595-22.691-34.631-22.691c-5.2,0-10.266,1.059-15.057,3.145c-9.246,4.026-16.374,11.411-20.066,20.796
	c-3.691,9.385-3.509,19.646,0.518,28.894c1.598,3.671,3.748,6.982,6.307,9.885l-16.453,7.163
	c-16.413-30.075-48.331-50.528-84.94-50.528c-53.317,0-96.694,43.378-96.694,96.694c0,7.311,0.827,14.493,2.428,21.502H84.226
	c-3.73-12.041-5.649-24.552-5.649-37.325c0-69.554,56.586-126.142,126.142-126.142c20.425,0,39.907,4.725,57.905,14.043
	c6.419,3.326,14.317,0.813,17.64-5.605c3.324-6.418,0.814-14.315-5.604-17.64c-21.448-11.105-45.631-16.975-69.939-16.975
	c-83.987,0-152.317,68.329-152.317,152.317c0,12.695,1.555,25.186,4.619,37.325H13.088C5.861,312.167,0,318.026,0,325.255v51.132
	c0,7.228,5.861,13.088,13.088,13.088H467.62c7.227,0,13.088-5.859,13.088-13.088v-51.132c0-7.228-5.861-13.088-13.088-13.088h-48.53
	c1.601-7.01,2.428-14.191,2.428-21.502c0-7.447-0.874-14.69-2.476-21.657l17.613-7.668c0.376,3.819,1.338,7.645,2.95,11.348
	c6.002,13.784,19.596,22.69,34.63,22.69c5.2,0,10.266-1.057,15.06-3.145c9.246-4.026,16.373-11.411,20.063-20.796
	C513.051,262.05,512.866,251.79,508.841,242.543z M454.532,363.299H26.175v-24.957h428.357V363.299z M257.656,312.167
	c-2.226-6.925-3.352-14.126-3.352-21.502c0-38.885,31.634-70.519,70.519-70.519s70.519,31.634,70.519,70.519
	c0,7.376-1.124,14.578-3.352,21.502H257.656z M443.752,208.138c1.132-2.879,3.318-5.145,6.155-6.38
	c1.476-0.643,3.027-0.968,4.608-0.968c4.616,0,8.79,2.734,10.631,6.965c2.549,5.855-0.14,12.692-5.994,15.242
	c-1.478,0.643-3.028,0.97-4.611,0.97c-4.616,0-8.79-2.734-10.631-6.965C442.675,214.165,442.618,211.018,443.752,208.138z
	 M485,261.854c-1.132,2.879-3.318,5.145-6.154,6.379c-1.478,0.643-3.027,0.969-4.611,0.969c-4.615,0-8.79-2.734-10.631-6.964
	c-1.234-2.836-1.29-5.984-0.158-8.862c1.132-2.878,3.318-5.145,6.155-6.38c1.476-0.643,3.027-0.968,4.609-0.968
	c4.615,0,8.788,2.734,10.63,6.965C486.076,255.828,486.132,258.975,485,261.854z"/>
<g>
</g>
<g>
</g>
<g>
</g>
<g>
</g>
<g>
</g>
<g>
</g>
<g>
</g>
<g>
</g>
<g>
</g>
<g>
</g>
<g>
</g>
<g>
</g>
<g>
</g>
<g>
</g>
<g>
</g>
</svg>
