<?xml version="1.0" encoding="iso-8859-1"?>
<!-- Generator: Adobe Illustrator 19.0.0, SVG Export Plug-In . SVG Version: 6.00 Build 0)  -->
<svg version="1.1" id="Layer_1" xmlns="http://www.w3.org/2000/svg" xmlns:xlink="http://www.w3.org/1999/xlink" x="0px" y="0px"
	 viewBox="0 0 512.002 512.002" style="enable-background:new 0 0 512.002 512.002;" xml:space="preserve">
<g>
	<path style="fill:#F4B2B0;" d="M83.699,394.385l-39.973,15.946c-29.757,11.868-37.665,50.307-15.012,72.959l0,0
		c22.652,22.652,61.091,14.745,72.959-15.012l15.946-39.973L83.699,394.385z"/>
	<path style="fill:#F4B2B0;" d="M410.332,43.724l-15.946,39.973l33.917,33.917l39.973-15.946
		c29.757-11.868,37.665-50.307,15.012-72.959l0,0C460.639,6.059,422.201,13.966,410.332,43.724z"/>
	
		<rect x="36.312" y="226.821" transform="matrix(-0.7071 0.7071 -0.7071 -0.7071 618.0526 256.0193)" style="fill:#F4B2B0;" width="439.381" height="58.384"/>
</g>
<path style="fill:#B3404A;" d="M510.752,72.387c4.095-19.903-2.039-40.363-16.405-54.732C482.962,6.27,467.88,0,451.877,0
	C427.008,0,405,14.889,395.809,37.931l-7.15,17.925L351.643,18.84c-6.107-6.104-16.005-6.104-22.114,0L18.841,329.527
	c-6.106,6.106-6.106,16.007,0,22.114l37.016,37.016l-17.927,7.15c-18.874,7.527-32.587,23.904-36.682,43.809
	c-4.095,19.903,2.039,40.361,16.407,54.73c11.386,11.385,26.468,17.655,42.472,17.655c24.867,0,46.877-14.889,56.066-37.931
	l7.15-17.925l37.016,37.017c2.932,2.932,6.91,4.58,11.056,4.58c4.147,0,8.124-1.648,11.056-4.58l201.794-201.796
	c6.106-6.106,6.106-16.007,0-22.114c-6.107-6.104-16.005-6.104-22.114,0L171.418,459.99l-28.006-28.006l288.574-288.574
	l28.006,28.006l-43.662,43.662c-6.106,6.106-6.106,16.007,0,22.114c6.107,6.104,16.005,6.104,22.114,0l54.718-54.718
	c6.106-6.106,6.106-16.007,0-22.114l-37.017-37.017l17.925-7.15C492.944,108.665,506.657,92.288,510.752,72.387z M340.585,52.01
	l28.005,28.006L80.017,368.589L52.01,340.583L340.585,52.01z M87.148,462.484c-4.42,11.083-15.026,18.244-27.02,18.244
	c-7.649,0-14.879-3.018-20.36-8.497c-7.011-7.011-9.887-16.602-7.888-26.315c1.998-9.713,8.428-17.39,17.637-21.065l30.407-12.129
	l19.353,19.353L87.148,462.484z M121.299,409.872l-9.585-9.585l-9.585-9.585l288.575-288.575l19.17,19.17L121.299,409.872z
	 M462.484,87.147l-30.406,12.129l-19.353-19.353l12.129-30.406c4.422-11.084,15.028-18.246,27.022-18.246
	c7.649,0,14.879,3.018,20.358,8.497c7.011,7.011,9.887,16.602,7.888,26.315C478.125,75.797,471.695,83.474,462.484,87.147z"/>
<g>
</g>
<g>
</g>
<g>
</g>
<g>
</g>
<g>
</g>
<g>
</g>
<g>
</g>
<g>
</g>
<g>
</g>
<g>
</g>
<g>
</g>
<g>
</g>
<g>
</g>
<g>
</g>
<g>
</g>
</svg>
