<?xml version="1.0" encoding="iso-8859-1"?>
<!-- Generator: Adobe Illustrator 19.0.0, SVG Export Plug-In . SVG Version: 6.00 Build 0)  -->
<svg version="1.1" id="Layer_1" xmlns="http://www.w3.org/2000/svg" xmlns:xlink="http://www.w3.org/1999/xlink" x="0px" y="0px"
	 viewBox="0 0 511.999 511.999" style="enable-background:new 0 0 511.999 511.999;" xml:space="preserve">
<circle style="fill:#F4B2B0;" cx="256.004" cy="77.699" r="63.824"/>
<path style="fill:#B3404A;" d="M333.698,77.699C333.698,34.855,298.841,0,255.999,0s-77.699,34.855-77.699,77.699
	c0,38.107,27.582,69.87,63.824,76.434v47.532c0,7.662,6.212,13.875,13.875,13.875c7.663,0,13.875-6.213,13.875-13.875v-47.532
	C306.116,147.569,333.698,115.806,333.698,77.699z M255.999,127.649c-27.543,0-49.949-22.406-49.949-49.949
	s22.407-49.949,49.949-49.949s49.949,22.406,49.949,49.949S283.542,127.649,255.999,127.649z"/>
<g>
	<path style="fill:#F4B2B0;" d="M200.499,297.331H61.751v-0.044c0-38.314,31.06-69.374,69.374-69.374l0,0
		c38.314,0,69.374,31.06,69.374,69.374V297.331z"/>
	<path style="fill:#F4B2B0;" d="M311.498,297.331h138.748v-0.044c0-38.314-31.06-69.374-69.374-69.374l0,0
		c-38.314,0-69.374,31.06-69.374,69.374L311.498,297.331L311.498,297.331z"/>
</g>
<path style="fill:#B3404A;" d="M482.177,484.25h-18.055V297.331c0-0.007-0.001-0.015-0.001-0.022l0.001-0.022
	c0-45.904-37.346-83.249-83.249-83.249s-83.249,37.346-83.249,83.292v52.323c0,7.662,6.212,13.875,13.875,13.875h83.249
	c7.663,0,13.875-6.213,13.875-13.875c0-7.662-6.212-13.875-13.875-13.875h-69.374v-24.574h110.999v173.044H325.373v-75.583
	c0-7.662-6.212-13.875-13.875-13.875c-7.663,0-13.875,6.213-13.875,13.875v75.583h-27.75V261.805
	c0-7.662-6.212-13.875-13.875-13.875c-7.663,0-13.875,6.213-13.875,13.875v222.444H75.626V363.528H145
	c7.663,0,13.875-6.213,13.875-13.875c0-7.662-6.212-13.875-13.875-13.875H75.626v-24.574h110.999v126.564
	c0,7.662,6.212,13.875,13.875,13.875s13.875-6.213,13.875-13.875V297.331c0-0.007-0.001-0.015-0.001-0.022l0.001-0.022
	c0-45.904-37.346-83.249-83.249-83.249s-83.249,37.346-83.249,83.292v186.919H29.822c-7.663,0-13.875,6.213-13.875,13.875
	c0,7.662,6.212,13.875,13.875,13.875h452.355c7.663,0,13.875-6.213,13.875-13.875C496.052,490.462,489.84,484.25,482.177,484.25z
	 M327.118,283.456c6.162-23.931,27.926-41.668,53.755-41.668c25.829,0,47.592,17.736,53.755,41.668H327.118z M131.125,241.789
	c25.828,0,47.592,17.736,53.755,41.668H77.371C83.533,259.525,105.297,241.789,131.125,241.789z"/>
<g>
</g>
<g>
</g>
<g>
</g>
<g>
</g>
<g>
</g>
<g>
</g>
<g>
</g>
<g>
</g>
<g>
</g>
<g>
</g>
<g>
</g>
<g>
</g>
<g>
</g>
<g>
</g>
<g>
</g>
</svg>
