<?xml version="1.0" encoding="iso-8859-1"?>
<!-- Generator: Adobe Illustrator 19.0.0, SVG Export Plug-In . SVG Version: 6.00 Build 0)  -->
<svg version="1.1" id="Layer_1" xmlns="http://www.w3.org/2000/svg" xmlns:xlink="http://www.w3.org/1999/xlink" x="0px" y="0px"
	 viewBox="0 0 512 512" style="enable-background:new 0 0 512 512;" xml:space="preserve">
<g>
	<path style="fill:#F4B2B0;" d="M193.075,442.427c1.093,5.75,3.1,12.964,6.781,20.293c10.861,21.577,31.313,33.461,57.591,33.461
		h56.99c7.202,0,13.047-5.837,13.047-13.047c0-1.658-0.225-16.653-7.918-32.096c-4.464-8.98-10.617-16.25-18.143-21.721
		c7.526-5.465,13.681-12.735,18.143-21.713c7.694-15.443,7.918-30.44,7.918-32.097c0-7.21-5.843-13.053-13.047-13.053h-56.99
		c-26.278,0-46.732,11.885-57.591,33.469c-3.651,7.252-5.652,14.407-6.749,20.125C192.651,415.991,192.632,442.402,193.075,442.427z
		"/>
	<path style="fill:#F4B2B0;" d="M421.549,109.489H305.734v183.534h54.764h3.538c1.348,0,2.687-0.017,4.018-0.051
		c63.281-1.617,113.276-54.427,113.276-117.729v-5.973C481.331,136.253,454.566,109.489,421.549,109.489z"/>
</g>
<path style="fill:#B3404A;" d="M421.549,93.671h-36.707V54.154C384.842,24.293,360.549,0,330.687,0H105.695
	C96.96,0,89.877,7.083,89.877,15.818s7.083,15.818,15.818,15.818h224.991c12.419,0,22.52,10.103,22.52,22.518V93.67h-47.474H197.689
	c-100.816,0-182.838,82.306-182.838,183.475c0,19.121,3.007,37.923,8.716,55.794c0.217,0.941,0.516,1.846,0.887,2.708
	c10.109,30.04,27.918,57.316,52.097,78.815c3.013,2.678,6.765,3.996,10.505,3.996c4.361,0,8.701-1.792,11.829-5.307
	c5.804-6.528,5.218-16.526-1.311-22.332c-15.452-13.739-27.759-30.327-36.422-48.614l56.326-8.024
	c-1.99,6.501-3.078,13.312-3.078,20.312c0,35.074,25.887,64.954,62.54,73.45c-0.006,1.911-0.003,3.879,0.011,5.791
	c0.019,2.575,0.055,4.913,0.109,6.612c0.06,1.859,0.267,3.524,0.592,5.016l-0.115,0.022c1.655,8.695,4.408,16.917,8.192,24.45
	C199.216,496.63,225.359,512,257.45,512h56.99c15.916,0,28.863-12.95,28.863-28.864c0-3.328-0.462-20.853-9.571-39.135
	c-2.656-5.342-5.811-10.245-9.445-14.677c3.632-4.431,6.786-9.326,9.437-14.663c9.117-18.296,9.579-35.823,9.579-39.151
	c0-15.919-12.948-28.871-28.863-28.871h-56.99c-32.093,0-58.235,15.373-71.723,42.175c-1.276,2.537-2.428,5.163-3.467,7.855
	c-21.345-5.69-36.224-22.594-36.224-42.175c0-10.653,4.41-20.59,11.666-28.458c0.799-0.669,1.526-1.413,2.175-2.221
	c9.557-9.143,23.176-14.973,38.018-14.973c8.735,0,15.818-7.083,15.818-15.818c0-2.531-0.609-4.913-1.666-7.034
	c-0.077-0.209-0.141-0.419-0.228-0.626l-64-151.56c15.623-5.498,32.404-8.499,49.874-8.499h92.224v167.716
	c0,8.735,7.083,15.818,15.818,15.818h58.303c1.484,0,2.956-0.019,4.423-0.055c34.712-0.889,67.169-15.31,91.389-40.607
	c24.053-25.125,37.3-58.129,37.3-92.934v-5.973C497.149,127.585,463.234,93.671,421.549,93.671z M208.716,418.648
	c1.114-5.626,2.885-10.876,5.269-15.612c10.299-20.465,29.32-24.761,43.464-24.761h54.067c-0.373,4.385-1.662,13.357-6.114,22.292
	c-3.26,6.558-7.725,11.925-13.273,15.954c-4.097,2.975-6.522,7.733-6.523,12.795c-0.002,5.063,2.42,9.821,6.517,12.798
	c5.552,4.038,10.019,9.408,13.284,15.981c4.446,8.923,5.734,17.885,6.107,22.271h-54.067c-14.143,0-33.165-4.295-43.459-24.744
	c-2.403-4.783-4.184-10.073-5.296-15.729C208.52,435.972,208.534,422.557,208.716,418.648z M175.31,280.228
	c-13.134,3.551-25.043,10.081-34.78,18.714l-90.022,12.823c-2.64-11.258-4.018-22.865-4.018-34.619
	c0-54.891,29.155-103.07,72.73-129.747L175.31,280.228z M465.513,175.244c0,54.817-43.901,100.538-97.862,101.916
	c-1.199,0.032-2.404,0.046-3.614,0.046h-42.485V125.307h99.999c24.241,0,43.964,19.723,43.964,43.964v5.973H465.513z"/>
<g>
</g>
<g>
</g>
<g>
</g>
<g>
</g>
<g>
</g>
<g>
</g>
<g>
</g>
<g>
</g>
<g>
</g>
<g>
</g>
<g>
</g>
<g>
</g>
<g>
</g>
<g>
</g>
<g>
</g>
</svg>
