<?xml version="1.0" encoding="iso-8859-1"?>
<!-- Generator: Adobe Illustrator 19.0.0, SVG Export Plug-In . SVG Version: 6.00 Build 0)  -->
<svg version="1.1" id="Layer_1" xmlns="http://www.w3.org/2000/svg" xmlns:xlink="http://www.w3.org/1999/xlink" x="0px" y="0px"
	 viewBox="0 0 512 512" style="enable-background:new 0 0 512 512;" xml:space="preserve">
<path style="fill:#B3404A;" d="M133.617,426.563c-6.435,6.435-14.99,9.978-24.09,9.978c-9.101,0-17.655-3.544-24.09-9.978
	c-6.435-6.435-9.98-14.99-9.98-24.09c0-9.1,3.544-17.655,9.98-24.09c6.433-6.435,14.99-9.978,24.09-9.978s17.654,3.544,24.09,9.978
	c5.875,5.874,15.396,5.874,21.273,0c5.874-5.874,5.874-15.398,0-21.273c-12.117-12.117-28.228-18.789-45.361-18.789
	c-17.136,0-33.245,6.674-45.361,18.789c-12.117,12.117-18.789,28.226-18.789,45.361c0,12.001,3.285,23.494,9.41,33.469
	L4.405,486.322c-5.874,5.874-5.874,15.398,0,21.271c2.938,2.938,6.787,4.406,10.636,4.406s7.698-1.47,10.636-4.406l50.382-50.38
	c9.975,6.125,21.468,9.41,33.469,9.41c17.135,0,33.245-6.674,45.361-18.789c5.874-5.874,5.874-15.398,0-21.271
	C149.016,420.689,139.495,420.689,133.617,426.563z"/>
<circle style="fill:#F4B2B0;" cx="318.615" cy="193.384" r="49.109"/>
<path style="fill:#B3404A;" d="M492.019,19.981C479.136,7.097,462.006,0.001,443.785,0.001c-18.219,0-35.35,7.096-48.232,19.979
	s-19.979,30.013-19.979,48.234c0,13.098,3.667,25.63,10.512,36.428l-6.54,6.54L360.035,91.67c-5.874-5.874-15.395-5.874-21.273,0
	c-5.874,5.874-5.874,15.398,0,21.271l19.511,19.513l-6.188,6.188c-9.975-6.125-21.468-9.41-33.469-9.41
	c-17.135,0-33.245,6.674-45.361,18.789c-12.117,12.117-18.789,28.228-18.789,45.362s6.674,33.245,18.789,45.361
	c12.116,12.116,28.228,18.789,45.361,18.789c17.136,0,33.245-6.674,45.361-18.789c12.117-12.117,18.789-28.226,18.789-45.361
	c0-12.001-3.285-23.494-9.41-33.469l6.188-6.188l19.511,19.511c2.938,2.938,6.787,4.406,10.636,4.406
	c3.849,0,7.698-1.47,10.636-4.406c5.874-5.874,5.874-15.398,0-21.271l-19.511-19.513l16.007-16.007
	c2.82-2.82,4.406-6.647,4.406-10.636c0-3.989-1.585-7.815-4.406-10.636c-7.202-7.202-11.169-16.777-11.169-26.961
	s3.968-19.759,11.169-26.963c7.203-7.202,16.778-11.17,26.963-11.17c10.186,0,19.761,3.966,26.963,11.17
	c7.202,7.202,11.17,16.777,11.17,26.961s-3.968,19.759-11.17,26.961c-5.874,5.874-5.874,15.398,0,21.271
	c5.875,5.875,15.396,5.875,21.273,0C504.903,103.563,512,86.433,512,68.212S504.903,32.864,492.019,19.981z M342.706,217.474
	c-6.433,6.435-14.99,9.978-24.09,9.978c-9.1,0-17.654-3.544-24.09-9.98c-6.435-6.435-9.98-14.99-9.98-24.09
	c0-9.1,3.544-17.655,9.98-24.09c6.435-6.435,14.99-9.978,24.09-9.978c9.101,0,17.655,3.544,24.09,9.978
	c6.435,6.435,9.98,14.99,9.98,24.09C352.686,202.484,349.141,211.038,342.706,217.474z"/>
<circle style="fill:#F4B2B0;" cx="214.064" cy="297.934" r="49.109"/>
<path style="fill:#B3404A;" d="M214.072,362.079c-17.136,0-33.245-6.674-45.361-18.791c-12.117-12.116-18.789-28.226-18.789-45.361
	s6.674-33.245,18.789-45.361c12.117-12.116,28.226-18.789,45.361-18.789s33.245,6.674,45.361,18.789
	c12.117,12.116,18.789,28.226,18.789,45.361s-6.674,33.245-18.789,45.361C247.317,355.405,231.208,362.079,214.072,362.079z
	 M214.072,263.86c-9.1,0-17.655,3.544-24.09,9.978c-6.435,6.435-9.98,14.99-9.98,24.09c0,9.1,3.544,17.655,9.98,24.09
	c6.433,6.435,14.99,9.98,24.09,9.98c9.1,0,17.655-3.544,24.09-9.978c6.435-6.435,9.98-14.99,9.98-24.09
	c0-9.1-3.544-17.655-9.98-24.09C231.729,267.404,223.172,263.86,214.072,263.86z"/>
<g>
</g>
<g>
</g>
<g>
</g>
<g>
</g>
<g>
</g>
<g>
</g>
<g>
</g>
<g>
</g>
<g>
</g>
<g>
</g>
<g>
</g>
<g>
</g>
<g>
</g>
<g>
</g>
<g>
</g>
</svg>
