<?xml version="1.0" encoding="iso-8859-1"?>
<!-- Generator: Adobe Illustrator 19.0.0, SVG Export Plug-In . SVG Version: 6.00 Build 0)  -->
<svg version="1.1" id="Layer_1" xmlns="http://www.w3.org/2000/svg" xmlns:xlink="http://www.w3.org/1999/xlink" x="0px" y="0px"
	 viewBox="0 0 512 512" style="enable-background:new 0 0 512 512;" xml:space="preserve">
<rect x="120.433" y="322.705" style="fill:#F4B2B0;" width="271.142" height="175.139"/>
<path style="fill:#B3404A;" d="M391.574,268.151c7.82,0,14.162-6.342,14.162-14.162V125.573c0-7.82-6.342-14.162-14.162-14.162
	H270.162V58.11l66.515-31.116c7.085-3.314,10.141-11.743,6.826-18.828C340.19,1.08,331.762-1.979,324.675,1.34L250,36.272
	c-4.981,2.33-8.161,7.33-8.161,12.828v62.312H120.425c-7.82,0-14.162,6.342-14.162,14.162v197.129v175.133v0.001
	c0,7.82,6.342,14.162,14.162,14.162h271.149c7.82,0,14.162-6.342,14.162-14.162V322.703c0-7.82-6.342-14.162-14.162-14.162H270.162
	v-62.083c0-7.82-6.342-14.162-14.162-14.162c-7.82,0-14.162,6.342-14.162,14.162v62.083H134.587V139.734h107.25v55.275
	c0,7.82,6.342,14.162,14.162,14.162s14.162-6.342,14.162-14.162v-55.275h107.252v114.255
	C377.413,261.81,383.754,268.151,391.574,268.151z M241.839,336.865v107.349c0,7.82,6.342,14.162,14.162,14.162
	c7.82,0,14.162-6.342,14.162-14.162V336.865h107.25v146.81H134.587v-146.81H241.839z"/>
<g>
</g>
<g>
</g>
<g>
</g>
<g>
</g>
<g>
</g>
<g>
</g>
<g>
</g>
<g>
</g>
<g>
</g>
<g>
</g>
<g>
</g>
<g>
</g>
<g>
</g>
<g>
</g>
<g>
</g>
</svg>
