<?xml version="1.0" encoding="iso-8859-1"?>
<!-- Generator: Adobe Illustrator 19.0.0, SVG Export Plug-In . SVG Version: 6.00 Build 0)  -->
<svg version="1.1" id="Layer_1" xmlns="http://www.w3.org/2000/svg" xmlns:xlink="http://www.w3.org/1999/xlink" x="0px" y="0px"
	 viewBox="0 0 512 512" style="enable-background:new 0 0 512 512;" xml:space="preserve">
<g>
	<path style="fill:#F4B2B0;" d="M259.549,152.129H195.25v-16.537c0-17.756,14.393-32.149,32.149-32.149l0,0
		c17.756,0,32.149,14.393,32.149,32.149V152.129z"/>
	<circle style="fill:#F4B2B0;" cx="255.999" cy="324.923" r="62.878"/>
</g>
<g>
	<path style="fill:#B3404A;" d="M255.999,402.089c-42.551,0-77.169-34.619-77.169-77.169s34.617-77.169,77.169-77.169
		c42.55,0,77.169,34.619,77.169,77.169S298.549,402.089,255.999,402.089z M255.999,276.332c-26.792,0-48.588,21.796-48.588,48.588
		c0,26.792,21.796,48.588,48.588,48.588s48.588-21.796,48.588-48.588S282.791,276.332,255.999,276.332z"/>
	<path style="fill:#B3404A;" d="M394.974,483.419h-12.361l20.044-27.947c1.742-2.428,2.678-5.34,2.678-8.328V202.695
		c0-7.891-6.399-14.29-14.291-14.29c-7.891,0-14.29,6.399-14.29,14.29v239.853l-29.313,40.871H164.557l-29.313-40.871V207.289
		l29.313-40.871h30.695h64.299h135.425c7.891,0,14.29-6.399,14.29-14.29c0-7.891-6.399-14.291-14.29-14.291H273.841v-2.245
		c0-25.607-20.833-46.44-46.44-46.44c-6.416,0-12.533,1.309-18.097,3.673V60.024c0-4.976-2.589-9.596-6.835-12.191l-74.786-45.73
		c-6.735-4.123-15.531-1.998-19.648,4.736c-4.117,6.734-1.996,15.529,4.736,19.647l67.951,41.55v69.803h-63.697
		c-7.893,0-14.29,6.399-14.29,14.29s6.398,14.29,14.29,14.29h12.361l-20.044,27.948c-1.742,2.428-2.678,5.34-2.678,8.329v244.449
		c0,2.988,0.936,5.901,2.678,8.328l20.044,27.945h-12.361c-7.893,0-14.29,6.399-14.29,14.29c0,7.891,6.398,14.29,14.29,14.29h40.196
		h197.558h40.196c7.891,0,14.29-6.399,14.29-14.29C409.265,489.818,402.866,483.419,394.974,483.419z M209.542,135.592
		c0-9.848,8.011-17.859,17.859-17.859c9.848,0,17.859,8.011,17.859,17.859v2.245h-35.718L209.542,135.592L209.542,135.592z"/>
</g>
<g>
</g>
<g>
</g>
<g>
</g>
<g>
</g>
<g>
</g>
<g>
</g>
<g>
</g>
<g>
</g>
<g>
</g>
<g>
</g>
<g>
</g>
<g>
</g>
<g>
</g>
<g>
</g>
<g>
</g>
</svg>
