<?xml version="1.0" encoding="iso-8859-1"?>
<!-- Generator: Adobe Illustrator 19.0.0, SVG Export Plug-In . SVG Version: 6.00 Build 0)  -->
<svg version="1.1" id="Layer_1" xmlns="http://www.w3.org/2000/svg" xmlns:xlink="http://www.w3.org/1999/xlink" x="0px" y="0px"
	 viewBox="0 0 512 512" style="enable-background:new 0 0 512 512;" xml:space="preserve">
<g>
	<rect x="211.553" y="14.033" style="fill:#F4B2B0;" width="88.902" height="41.199"/>
	<rect x="168.653" y="292.61" style="fill:#F4B2B0;" width="174.688" height="111.566"/>
</g>
<path style="fill:#B3404A;" d="M334.736,213.03c-5.727-5.222-14.603-4.813-19.825,0.915c-5.222,5.728-4.811,14.603,0.916,19.825
	c8.566,7.808,13.478,18.895,13.478,30.412v14.397H182.692v-14.397c0-11.517,4.913-22.602,13.479-30.412l3.826-3.487
	c2.916-2.659,4.579-6.423,4.579-10.371v-3.538c0-3.538-1.336-6.944-3.74-9.538l-3.12-3.367
	c-9.829-10.612-15.024-23.273-15.024-36.616c0-22.004,14.485-42.278,37.8-52.906l6.862-3.127c5.004-2.28,8.215-7.274,8.215-12.772
	V69.266h40.862v28.782c0,5.498,3.212,10.491,8.215,12.77l6.858,3.125c23.318,10.63,37.803,30.904,37.803,52.909
	c0,7.749,6.283,14.033,14.033,14.033c7.751,0,14.033-6.284,14.033-14.033c0-32.689-20.218-62.381-52.876-77.819V68.668
	c5.776-1.737,9.988-7.092,9.988-13.436V14.033C314.486,6.284,308.203,0,300.453,0h-88.906c-7.751,0-14.033,6.284-14.033,14.033
	v41.199c0,6.343,4.211,11.698,9.989,13.436v20.364c-32.656,15.437-52.878,45.13-52.878,77.819c0,18.415,6.253,35.799,18.156,50.654
	c-11.606,12.709-18.156,29.396-18.156,46.676v28.43v111.565v50.76c0,7.749,6.283,14.033,14.033,14.033
	c7.751,0,14.033-6.284,14.033-14.033v-36.727h146.615v49.079c0,9.178-7.466,16.644-16.644,16.644c-4.099,0-8.041-1.516-11.1-4.269
	l-7.843-7.06c-5.338-4.805-13.44-4.805-18.778,0l-7.843,7.06c-3.058,2.753-7,4.269-11.1,4.269c-4.101,0-8.041-1.516-11.099-4.269
	l-7.843-7.06c-5.338-4.805-13.44-4.805-18.778,0l-7.842,7.06c-3.059,2.753-7.001,4.269-11.102,4.269
	c-7.751,0-14.033,6.284-14.033,14.033S191.583,512,199.334,512c10.365,0,20.348-3.59,28.332-10.146
	c7.984,6.558,17.966,10.146,28.332,10.146c10.365,0,20.348-3.59,28.332-10.146c7.985,6.558,17.967,10.146,28.332,10.146
	c24.652,0,44.71-20.057,44.71-44.71v-63.112V292.612v-28.43C357.374,244.789,349.123,226.143,334.736,213.03z M225.58,28.067h60.839
	v13.132H225.58V28.067z M182.692,390.144v-83.499h146.615v83.499H182.692z"/>
<g>
</g>
<g>
</g>
<g>
</g>
<g>
</g>
<g>
</g>
<g>
</g>
<g>
</g>
<g>
</g>
<g>
</g>
<g>
</g>
<g>
</g>
<g>
</g>
<g>
</g>
<g>
</g>
<g>
</g>
</svg>
