<?xml version="1.0" encoding="iso-8859-1"?>
<!-- Generator: Adobe Illustrator 19.0.0, SVG Export Plug-In . SVG Version: 6.00 Build 0)  -->
<svg version="1.1" id="Layer_1" xmlns="http://www.w3.org/2000/svg" xmlns:xlink="http://www.w3.org/1999/xlink" x="0px" y="0px"
	 viewBox="0 0 511.997 511.997" style="enable-background:new 0 0 511.997 511.997;" xml:space="preserve">
<g>
	<path style="fill:#F4B2B0;" d="M278.301,62.702h-44.602c-13.55,0-24.535-10.985-24.535-24.535l0,0
		c0-13.55,10.985-24.535,24.535-24.535h44.602c13.55,0,24.535,10.985,24.535,24.535l0,0
		C302.836,51.717,291.851,62.702,278.301,62.702z"/>
	<path style="fill:#F4B2B0;" d="M336.842,251.063c0,12.444-0.423,25.884-1.268,40.141c-19.3,11.027-47.801,18.006-79.574,18.006
		c-31.772,0-60.273-6.979-79.574-18.006c-0.845-14.257-1.268-27.697-1.268-40.141c0-9.637,0.477-19.014,1.458-28.283
		c19.3-10.972,47.706-17.897,79.383-17.897s60.082,6.924,79.383,17.897C336.365,232.05,336.842,241.428,336.842,251.063z"/>
</g>
<path style="fill:#B3404A;" d="M349.075,445.127c-2.072-5.47-4.647-12.275-7.071-23.571c-4.339-20.231-4.512-41.007-0.515-61.745
	c2.869-14.887,4.983-31.226,6.459-49.941c0.498-6.255,0.913-12.274,1.231-17.86c0.322-5.421,0.583-10.745,0.785-15.956
	c0.337-8.688,0.507-17.049,0.507-24.993c0-7.191-0.263-14.122-0.767-20.995c-0.214-2.907-0.458-5.808-0.765-8.703
	c-0.915-8.753-2.309-17.71-4.148-26.621c-1.521-7.374-8.745-12.113-16.101-10.596c-7.373,1.52-12.117,8.73-10.596,16.101
	c0.022,0.105,0.04,0.21,0.061,0.313c-18.438-6.01-39.983-9.309-62.154-9.309s-43.716,3.3-62.154,9.309
	c0.022-0.104,0.04-0.207,0.06-0.312c3.845-18.637,9.374-28.621,15.226-39.191c2.827-5.107,5.752-10.388,8.53-16.652l0.12-0.273
	c4.921-11.103,9.17-20.691,11.391-29.29c3.438-13.238,4.934-26.998,5.524-38.514h42.618c0.593,11.546,2.087,25.324,5.508,38.499
	c2.226,8.614,6.474,18.202,11.395,29.305l0.12,0.273c2.254,5.087,7.242,8.111,12.469,8.111c1.844,0,3.72-0.376,5.515-1.172
	c6.882-3.049,9.988-11.102,6.939-17.984l-0.121-0.271c-4.431-10.002-8.26-18.641-9.928-25.096
	c-3.833-14.764-4.799-31.096-4.955-41.885c7.502-6.973,12.209-16.918,12.209-27.945C316.466,17.121,299.345,0,278.301,0h-44.602
	c-21.044,0-38.165,17.121-38.165,38.165c0,11.031,4.709,20.978,12.217,27.953c-0.147,10.747-1.11,27.034-4.967,41.89
	c-1.666,6.442-5.493,15.079-9.924,25.081l-0.12,0.269c-2.289,5.16-4.799,9.694-7.457,14.494
	c-6.275,11.336-13.39,24.186-18.076,46.888c-1.839,8.911-3.233,17.868-4.145,26.602c-1.033,9.757-1.535,19.478-1.535,29.718
	c0,7.944,0.17,16.306,0.507,24.993c0.202,5.21,0.463,10.535,0.785,15.956c0.031,0.532,0.102,1.051,0.192,1.563
	c0.025,0.135,0.056,0.266,0.083,0.399c0.082,0.395,0.18,0.785,0.294,1.165c0.038,0.124,0.075,0.249,0.116,0.372
	c0.149,0.447,0.316,0.882,0.508,1.306c0.019,0.041,0.033,0.085,0.052,0.124c0.224,0.481,0.474,0.945,0.75,1.392
	c0.044,0.072,0.095,0.14,0.14,0.211c0.229,0.357,0.474,0.702,0.735,1.036c0.089,0.113,0.179,0.225,0.27,0.335
	c0.259,0.311,0.532,0.609,0.818,0.896c0.079,0.079,0.153,0.162,0.233,0.24c0.365,0.349,0.75,0.676,1.15,0.983
	c0.091,0.069,0.189,0.132,0.284,0.2c0.333,0.241,0.676,0.467,1.03,0.679c0.065,0.038,0.123,0.086,0.189,0.124
	c0.139,0.079,0.288,0.153,0.427,0.232c0.041,0.02,0.079,0.044,0.12,0.064c21.999,12.397,53.213,19.505,85.789,19.505
	c23.061,0,45.431-3.571,64.345-10.048c-1.364,15.578-3.207,29.328-5.624,41.86c-4.693,24.356-4.482,48.788,0.63,72.621
	c2.856,13.307,5.961,21.513,8.229,27.503c2.073,5.482,2.917,7.831,2.917,10.937v19.028h-140.99v-19.028
	c0-3.106,0.842-5.455,2.917-10.937c2.268-5.991,5.373-14.196,8.229-27.505c5.111-23.831,5.323-48.263,0.63-72.619
	c-1.424-7.393-8.571-12.232-15.962-10.806c-7.393,1.424-12.23,8.571-10.806,15.962c3.996,20.741,3.823,41.516-0.515,61.747
	c-2.423,11.297-5,18.102-7.071,23.572c-2.407,6.361-4.682,12.37-4.682,20.587v32.658c0,7.527,6.104,13.63,13.63,13.63h168.251
	c7.527,0,13.63-6.104,13.63-13.63v-32.658C353.757,457.498,351.482,451.488,349.075,445.127z M233.7,27.263h44.602
	c6.012,0,10.904,4.892,10.904,10.904c0,2.238-0.68,4.319-1.84,6.052c-2.933,0.731-5.494,2.406-7.334,4.701
	c-0.564,0.091-1.139,0.151-1.73,0.151H233.7c-0.592,0-1.168-0.06-1.735-0.151c-1.84-2.291-4.397-3.966-7.326-4.698
	c-1.161-1.732-1.841-3.815-1.841-6.053C222.796,32.155,227.686,27.263,233.7,27.263z M189.618,282.692
	c-0.014-0.283-0.029-0.568-0.042-0.852c-0.115-2.388-0.221-4.76-0.311-7.099c-0.014-0.365-0.025-0.722-0.038-1.085
	c-0.076-2.088-0.142-4.152-0.199-6.196c-0.015-0.527-0.031-1.059-0.044-1.585c-0.056-2.193-0.098-4.359-0.129-6.498
	c-0.008-0.592-0.015-1.178-0.022-1.765c-0.025-2.039-0.04-4.058-0.042-6.042c0-0.168-0.001-0.341-0.001-0.507
	c0-2.105,0.03-4.176,0.078-6.236c0.012-0.513,0.027-1.024,0.042-1.535c0.048-1.657,0.11-3.303,0.188-4.94
	c0.02-0.438,0.038-0.876,0.061-1.313c0.1-1.874,0.222-3.737,0.364-5.595c17.625-8.265,41.386-12.931,66.478-12.931
	c25.092,0,48.852,4.666,66.478,12.931c0.142,1.854,0.263,3.714,0.363,5.586c0.025,0.448,0.042,0.9,0.063,1.348
	c0.078,1.625,0.14,3.259,0.187,4.906c0.015,0.515,0.03,1.03,0.042,1.548c0.046,2.058,0.078,4.127,0.078,6.23
	c0,0.168-0.001,0.339-0.001,0.507c-0.001,1.985-0.018,4.003-0.042,6.042c-0.007,0.587-0.014,1.172-0.022,1.764
	c-0.031,2.137-0.074,4.302-0.13,6.493c-0.014,0.53-0.03,1.067-0.045,1.6c-0.056,2.035-0.121,4.089-0.199,6.166
	c-0.014,0.372-0.025,0.739-0.04,1.112c-0.09,2.343-0.196,4.716-0.311,7.108c-0.014,0.278-0.027,0.556-0.041,0.833
	c-17.623,8.24-41.332,12.889-66.382,12.889C230.952,295.581,207.242,290.932,189.618,282.692z"/>
<g>
</g>
<g>
</g>
<g>
</g>
<g>
</g>
<g>
</g>
<g>
</g>
<g>
</g>
<g>
</g>
<g>
</g>
<g>
</g>
<g>
</g>
<g>
</g>
<g>
</g>
<g>
</g>
<g>
</g>
</svg>
