<?xml version="1.0" encoding="iso-8859-1"?>
<!-- Generator: Adobe Illustrator 19.0.0, SVG Export Plug-In . SVG Version: 6.00 Build 0)  -->
<svg version="1.1" id="Layer_1" xmlns="http://www.w3.org/2000/svg" xmlns:xlink="http://www.w3.org/1999/xlink" x="0px" y="0px"
	 viewBox="0 0 512 512" style="enable-background:new 0 0 512 512;" xml:space="preserve">
<polygon style="fill:#F4B2B0;" points="462.586,422.747 49.415,422.747 12.731,364.346 499.27,364.346 "/>
<path style="fill:#B3404A;" d="M174.811,336.075c-7.03,0-12.73-5.701-12.73-12.73c0-37.533-30.53-68.069-68.057-68.069
	c-18.619,0-35.996,7.377-48.932,20.771c-4.885,5.059-12.943,5.198-18.001,0.314c-5.058-4.883-5.199-12.943-0.314-18.001
	c17.775-18.408,41.658-28.547,67.246-28.547c51.566,0,93.517,41.957,93.517,93.53C187.542,330.376,181.841,336.075,174.811,336.075z
	"/>
<g>
	<circle style="fill:#F4B2B0;" cx="94.022" cy="323.339" r="36.079"/>
	<circle style="fill:#F4B2B0;" cx="417.976" cy="323.339" r="36.079"/>
</g>
<g>
	<path style="fill:#B3404A;" d="M485.223,258.362c-17.775-18.408-41.658-28.547-67.246-28.547
		c-34.534,0-64.734,18.833-80.931,46.755c-16.197-27.922-46.396-46.755-80.931-46.755h-0.232c-21.36,0-42.251,7.394-58.823,20.818
		c-5.463,4.426-6.304,12.441-1.879,17.905c4.426,5.463,12.443,6.303,17.905,1.879c12.226-9.906,27.025-15.141,42.796-15.141h0.232
		c37.527,0,68.057,30.535,68.057,68.069c0,7.03,5.701,12.73,12.73,12.73c0.048,0,0.095-0.006,0.144-0.008
		c0.048,0,0.095,0.008,0.144,0.008c7.03,0,12.73-5.701,12.73-12.73c0-37.533,30.53-68.069,68.057-68.069
		c18.619,0,35.996,7.377,48.932,20.771c4.885,5.059,12.944,5.198,18.001,0.314C489.965,271.479,490.107,263.419,485.223,258.362z"/>
	<path style="fill:#B3404A;" d="M510.412,358.187c-2.242-4.056-6.508-6.571-11.142-6.571h-41.543
		c5.697-7.984,9.061-17.741,9.061-28.274c0-26.915-21.895-48.81-48.81-48.81c-26.915,0-48.809,21.895-48.809,48.81
		c0,10.533,3.366,20.29,9.061,28.274h-82.372c5.697-7.984,9.061-17.741,9.061-28.274c0-7.03-5.701-12.73-12.73-12.73
		c-7.03,0-12.73,5.701-12.73,12.73c0,12.873-10.475,23.347-23.348,23.347c-12.874,0-23.349-10.475-23.349-23.347
		c0-12.874,10.475-23.349,23.349-23.349c7.03,0,12.73-5.701,12.73-12.73c0-7.03-5.701-12.73-12.73-12.73
		c-26.915,0-48.809,21.895-48.809,48.81c0,10.533,3.366,20.29,9.061,28.274h-82.597c5.697-7.984,9.061-17.741,9.061-28.274
		c0-26.915-21.895-48.81-48.81-48.81s-48.809,21.895-48.809,48.81c0,10.533,3.366,20.29,9.061,28.274h-41.54
		c-4.634,0-8.9,2.517-11.142,6.571s-2.103,9.007,0.362,12.929l36.683,58.404c2.328,3.708,6.4,5.959,10.78,5.959h413.173
		c4.379,0,8.452-2.251,10.78-5.959l36.683-58.404C512.515,367.193,512.652,362.24,510.412,358.187z M417.979,299.992
		c12.874,0,23.349,10.475,23.349,23.349c0,12.873-10.475,23.348-23.349,23.348c-12.874,0-23.349-10.475-23.349-23.348
		C394.63,310.466,405.105,299.992,417.979,299.992z M94.022,299.992c12.874,0,23.349,10.475,23.349,23.349
		c0,12.873-10.475,23.348-23.349,23.348s-23.349-10.475-23.349-23.348C70.673,310.466,81.146,299.992,94.022,299.992z
		 M455.549,410.017H56.452L35.76,377.075h440.481L455.549,410.017z"/>
	<path style="fill:#B3404A;" d="M256.114,174.139c-7.03,0-12.73-5.701-12.73-12.73s5.701-12.73,12.73-12.73
		c12.873,0,23.347-10.475,23.347-23.347c0-12.874-10.475-23.349-23.347-23.349c-12.874,0-23.349,10.475-23.349,23.349
		c0,7.03-5.701,12.73-12.73,12.73s-12.73-5.701-12.73-12.73c0-26.915,21.895-48.809,48.81-48.809
		c26.913,0,48.808,21.895,48.808,48.809C304.922,152.244,283.026,174.139,256.114,174.139z"/>
	<path style="fill:#B3404A;" d="M231.348,219.586c-4.397,0-8.673-2.28-11.032-6.359c-9.769-16.888-27.941-27.379-47.424-27.379
		c-17.407,0-33.388,8.002-43.841,21.956c-4.215,5.628-12.196,6.771-17.821,2.555c-5.627-4.216-6.77-12.194-2.555-17.821
		c15.308-20.432,38.714-32.151,64.217-32.151c28.541,0,55.158,15.362,69.463,40.092c3.521,6.085,1.441,13.872-4.645,17.393
		C235.703,219.034,233.51,219.586,231.348,219.586z"/>
	<path style="fill:#B3404A;" d="M393.439,219.586c-4.397,0-8.673-2.28-11.032-6.359c-9.769-16.888-27.941-27.379-47.424-27.379
		c-17.408,0-33.388,8.002-43.841,21.956c-4.216,5.628-12.194,6.771-17.821,2.555c-5.627-4.216-6.77-12.194-2.555-17.821
		c15.308-20.432,38.714-32.151,64.217-32.151c28.541,0,55.158,15.362,69.463,40.092c3.521,6.085,1.441,13.872-4.645,17.393
		C397.794,219.034,395.6,219.586,393.439,219.586z"/>
</g>
<g>
</g>
<g>
</g>
<g>
</g>
<g>
</g>
<g>
</g>
<g>
</g>
<g>
</g>
<g>
</g>
<g>
</g>
<g>
</g>
<g>
</g>
<g>
</g>
<g>
</g>
<g>
</g>
<g>
</g>
</svg>
