<?xml version="1.0" encoding="iso-8859-1"?>
<!-- Generator: Adobe Illustrator 19.0.0, SVG Export Plug-In . SVG Version: 6.00 Build 0)  -->
<svg version="1.1" id="Layer_1" xmlns="http://www.w3.org/2000/svg" xmlns:xlink="http://www.w3.org/1999/xlink" x="0px" y="0px"
	 viewBox="0 0 512 512" style="enable-background:new 0 0 512 512;" xml:space="preserve">
<g>
	<path style="fill:#F4B2B0;" d="M120.133,245.044v176.782h-16.808c-14.957,0-29.048-3.717-41.408-10.285V255.329
		c12.36-6.568,26.451-10.285,41.408-10.285H120.133z"/>
	<path style="fill:#F4B2B0;" d="M288.437,95.758v326.068h-58.216V124.508C247.298,111.342,267.016,101.46,288.437,95.758z"/>
	<path style="fill:#F4B2B0;" d="M456.74,147.6v216.801c-2.642,3.045-5.389,6.001-8.24,8.852
		c-14.315,14.315-31.228,26.018-49.976,34.347v-303.2c18.748,8.329,35.661,20.032,49.976,34.347
		C451.351,141.599,454.098,144.555,456.74,147.6z"/>
</g>
<path style="fill:#B3404A;" d="M512,256.001c0-43.398-15.614-85.362-43.986-118.185c-2.897-3.338-5.913-6.575-8.959-9.622
	c-3.03-3.03-6.181-5.905-9.394-8.697c-11.445-9.947-23.994-18.404-37.54-25.181c-2.479-1.24-4.992-2.427-7.535-3.557
	c-0.001-0.001-0.004-0.001-0.007-0.003c-23.137-10.291-47.816-15.508-73.346-15.508c-15.805,0-31.499,2.048-46.635,6.084
	c-2.891,0.77-5.756,1.608-8.591,2.515c-18.435,5.895-35.647,14.663-51.303,26.136c-1.208,0.885-2.408,1.787-3.597,2.703
	c-0.006,0.004-0.012,0.01-0.018,0.016c-4.715,3.62-9.306,7.522-13.648,11.604c-30.053,28.267-49.31,65.429-55.102,105.809h-32.205
	h-16.808c-2.108,0-4.214,0.064-6.314,0.194c-2.896,0.178-5.778,0.487-8.644,0.906c-0.676,0.099-1.352,0.208-2.026,0.319
	c-9.937,1.655-19.611,4.739-28.627,9.179c-0.94,0.463-1.875,0.94-2.8,1.433c-0.001,0-0.003,0.001-0.004,0.003
	C21.04,260.139,0,295.119,0,333.443c0,27.59,10.751,53.535,30.271,73.055c7.301,7.299,15.597,13.434,24.643,18.225
	c14.809,7.87,31.55,12.03,48.412,12.03h16.808h110.087h58.216c8.243,0,14.927-6.683,14.927-14.927V250.933
	c9.662,10.745,23.661,17.515,39.215,17.515c16.553,0,31.342-7.673,41.018-19.64v158.792c0,0.025,0.004,0.051,0.004,0.076
	c0.003,0.59,0.037,1.179,0.112,1.772c0.007,0.054,0.019,0.105,0.027,0.158c0.069,0.503,0.164,1.003,0.287,1.503
	c0.042,0.172,0.091,0.339,0.139,0.508c0.105,0.373,0.224,0.743,0.358,1.111c0.072,0.194,0.143,0.388,0.224,0.579
	c0.048,0.116,0.084,0.236,0.136,0.354c0.107,0.24,0.234,0.466,0.354,0.699c0.082,0.161,0.158,0.327,0.246,0.485
	c0.563,1.017,1.232,1.944,1.987,2.776c0.085,0.094,0.178,0.182,0.266,0.275c0.312,0.327,0.634,0.637,0.972,0.933
	c0.118,0.103,0.237,0.204,0.358,0.303c0.361,0.296,0.733,0.572,1.118,0.83c0.072,0.049,0.136,0.107,0.209,0.155
	c0.022,0.015,0.048,0.024,0.072,0.039c0.54,0.346,1.103,0.652,1.682,0.927c0.136,0.064,0.273,0.121,0.41,0.181
	c0.505,0.221,1.02,0.415,1.546,0.579c0.099,0.031,0.194,0.069,0.293,0.097c0.609,0.176,1.23,0.307,1.858,0.405
	c0.125,0.019,0.251,0.033,0.378,0.048c0.575,0.075,1.154,0.118,1.738,0.124c0.054,0,0.106,0.012,0.158,0.012
	c0.027,0,0.052-0.004,0.078-0.004c0.41-0.001,0.822-0.027,1.234-0.064c0.09-0.007,0.181-0.009,0.27-0.018
	c0.443-0.048,0.887-0.121,1.33-0.209c0.06-0.012,0.121-0.018,0.182-0.031c0.451-0.096,0.899-0.218,1.346-0.358
	c0.051-0.016,0.105-0.025,0.155-0.043c0.493-0.16,0.981-0.345,1.464-0.56c7.628-3.39,14.973-7.278,22.007-11.649
	c11.724-7.284,22.586-15.908,32.462-25.784c3.05-3.05,6.065-6.287,8.959-9.624c0.003-0.004,0.006-0.009,0.01-0.013
	c0.003-0.003,0.006-0.006,0.009-0.01C496.386,341.363,512,299.398,512,256.001z M441.778,358.722
	c-0.942,1.012-1.899,1.987-2.854,2.96c-0.328,0.334-0.651,0.687-0.981,1.017c-1.512,1.512-3.059,2.979-4.624,4.42
	c-0.222,0.204-0.44,0.412-0.664,0.615c-1.496,1.36-3.018,2.684-4.563,3.978c-0.29,0.243-0.581,0.485-0.872,0.727
	c-1.548,1.279-3.118,2.529-4.712,3.742c-0.254,0.193-0.511,0.382-0.766,0.573c-1.673,1.257-3.365,2.488-5.087,3.672
	c-0.049,0.034-0.099,0.066-0.148,0.099c-1.005,0.688-2.036,1.334-3.056,1.999V129.479c1.021,0.664,2.054,1.311,3.059,2
	c0.048,0.033,0.097,0.064,0.146,0.097c1.724,1.185,3.418,2.418,5.093,3.677c0.252,0.19,0.508,0.376,0.76,0.567
	c1.597,1.217,3.169,2.469,4.72,3.75c0.288,0.237,0.575,0.478,0.861,0.717c1.546,1.297,3.072,2.623,4.571,3.986
	c0.222,0.202,0.44,0.409,0.661,0.612c1.567,1.44,3.114,2.908,4.626,4.42c1.288,1.287,2.567,2.617,3.835,3.978
	c0.01,0.012,0.022,0.025,0.033,0.037v205.364C441.802,358.695,441.79,358.708,441.778,358.722z M471.667,200.836
	c6.847,17.438,10.479,36.128,10.479,55.165c0,19.038-3.632,37.731-10.479,55.168V200.836z M165.782,259.971
	c7.868,0,14.384-6.105,14.896-13.955c2.09-32.013,14.258-62.128,34.617-86.534v247.417h-80.235V259.971H165.782z M29.854,333.443
	c0-17.587,6.24-34.18,17.136-47.18v94.315C35.904,367.376,29.854,350.874,29.854,333.443z M103.325,406.899
	c-1.372,0-2.732-0.048-4.089-0.121c-0.406-0.021-0.809-0.054-1.214-0.082c-0.991-0.07-1.978-0.158-2.962-0.267
	c-0.408-0.045-0.815-0.088-1.221-0.139c-1.229-0.157-2.45-0.339-3.662-0.557c-0.107-0.019-0.216-0.033-0.322-0.052
	c-1.321-0.243-2.63-0.531-3.932-0.848c-0.36-0.087-0.716-0.185-1.075-0.279c-0.973-0.252-1.942-0.524-2.905-0.818
	c-0.379-0.115-0.758-0.23-1.134-0.351c-1.128-0.364-2.25-0.754-3.362-1.175c-0.149-0.057-0.3-0.105-0.449-0.163
	c-0.052-0.019-0.102-0.045-0.154-0.064V264.887c0.045-0.018,0.09-0.039,0.134-0.057c0.199-0.076,0.4-0.142,0.599-0.216
	c1.061-0.399,2.13-0.772,3.206-1.12c0.397-0.128,0.797-0.249,1.197-0.372c0.942-0.287,1.888-0.552,2.841-0.799
	c0.372-0.097,0.743-0.199,1.117-0.29c1.296-0.313,2.599-0.602,3.914-0.843c0.118-0.022,0.239-0.036,0.357-0.058
	c1.202-0.215,2.412-0.397,3.629-0.552c0.408-0.052,0.818-0.094,1.227-0.14c0.982-0.109,1.969-0.197,2.962-0.267
	c0.403-0.028,0.805-0.061,1.209-0.082c1.357-0.073,2.718-0.121,4.09-0.121h1.882v146.928h-1.884V406.899z M245.148,406.899V132.067
	c0.04-0.028,0.079-0.057,0.118-0.085c1.061-0.739,2.13-1.464,3.206-2.175c0.245-0.161,0.493-0.315,0.739-0.475
	c0.842-0.548,1.685-1.093,2.536-1.623c0.436-0.272,0.878-0.533,1.317-0.8c0.669-0.406,1.336-0.815,2.011-1.211
	c0.487-0.287,0.979-0.563,1.469-0.843c0.633-0.363,1.267-0.725,1.906-1.078c0.512-0.282,1.028-0.558,1.543-0.836
	c0.625-0.336,1.252-0.67,1.882-0.997c0.527-0.275,1.057-0.542,1.588-0.809c0.625-0.315,1.254-0.627,1.884-0.934
	c0.537-0.261,1.075-0.518,1.615-0.773c0.636-0.3,1.273-0.594,1.912-0.885c0.54-0.245,1.081-0.49,1.624-0.728
	c0.648-0.285,1.299-0.563,1.951-0.839c0.352-0.149,0.706-0.297,1.06-0.443v290.362h-28.361V406.899z M342.579,238.596
	c-12.621,0-22.889-10.267-22.889-22.888s10.268-22.888,22.889-22.888s22.888,10.267,22.888,22.888S355.2,238.596,342.579,238.596z
	 M342.579,162.965c-15.554,0-29.553,6.771-39.215,17.515v-72.789c9.15-1.709,18.481-2.588,27.869-2.588
	c18.096,0,35.664,3.145,52.364,9.34v68.162C373.921,170.637,359.131,162.965,342.579,162.965z"/>
<g>
</g>
<g>
</g>
<g>
</g>
<g>
</g>
<g>
</g>
<g>
</g>
<g>
</g>
<g>
</g>
<g>
</g>
<g>
</g>
<g>
</g>
<g>
</g>
<g>
</g>
<g>
</g>
<g>
</g>
</svg>
