<?xml version="1.0" encoding="iso-8859-1"?>
<!-- Generator: Adobe Illustrator 19.0.0, SVG Export Plug-In . SVG Version: 6.00 Build 0)  -->
<svg version="1.1" id="Layer_1" xmlns="http://www.w3.org/2000/svg" xmlns:xlink="http://www.w3.org/1999/xlink" x="0px" y="0px"
	 viewBox="0 0 512.001 512.001" style="enable-background:new 0 0 512.001 512.001;" xml:space="preserve">
<g>
	<circle style="fill:#F4B2B0;" cx="378.538" cy="356.593" r="49.057"/>
	<path style="fill:#F4B2B0;" d="M14.401,443.032h-0.094V273.403h0.831c6.454,18.254,51.19,32.393,105.457,32.393
		s99.003-14.138,105.457-32.393h0.831v169.629h-0.094c0.043,0.432,0.094,0.863,0.094,1.298c0,20.401-47.587,36.94-106.288,36.94
		S14.307,464.731,14.307,444.33C14.307,443.895,14.358,443.464,14.401,443.032z"/>
</g>
<g>
	<path style="fill:#B3404A;" d="M241.189,268.855c0-7.9-6.405-14.307-14.307-14.307c-7.81,0-14.154,6.259-14.299,14.035
		c-0.006,0.017-0.014,0.033-0.02,0.051c-1.292,3.655-11.564,10.419-30.771,15.644c-15.005,4.069-35.435,7.212-61.198,7.212
		c-1.83,0-3.631-0.016-5.406-0.047c-21.205-0.369-38.568-2.886-52.036-6.196c-0.044-0.011-0.09-0.021-0.134-0.031
		c-0.765-0.189-1.499-0.383-2.239-0.577c-0.391-0.103-0.794-0.203-1.176-0.306c-0.365-0.099-0.711-0.2-1.07-0.299
		c-18.38-5.117-28.338-11.61-29.832-15.241c2.668-6.505,33.646-22.57,91.896-22.57c16.989,0,33.735,1.484,48.429,4.289
		c7.758,1.476,15.255-3.607,16.736-11.368c1.482-7.761-3.607-15.254-11.368-16.736c-16.434-3.139-35.037-4.798-53.797-4.798
		C62.513,217.608,0,233.644,0,268.855c0,0.911,0.052,1.805,0.134,2.69C0.054,272.154,0,272.772,0,273.403v169.628
		c0,0.2,0.004,0.398,0.013,0.595C0.004,443.851,0,444.085,0,444.33c0,35.21,62.513,51.246,120.595,51.246
		s120.595-16.036,120.595-51.246c0-0.243-0.004-0.478-0.013-0.7c0.009-0.199,0.013-0.398,0.013-0.598V273.403
		c0-0.631-0.054-1.249-0.134-1.858C241.138,270.661,241.189,269.767,241.189,268.855z M212.537,444.29
		c-2.383,6.439-33.387,22.675-91.943,22.675s-89.559-16.235-91.943-22.675c0.083-0.95,0.069-1.9-0.039-2.833V303.54
		c22.099,10.525,54.122,15.859,85.573,16.497c0.106,0.001,0.212,0.004,0.316,0.007c2.034,0.039,4.066,0.06,6.092,0.06
		c2.026,0,4.057-0.021,6.092-0.06c0.106-0.001,0.212-0.004,0.316-0.007c31.452-0.637,63.474-5.97,85.573-16.497v137.853
		C212.466,442.345,212.451,443.317,212.537,444.29z"/>
	<path style="fill:#B3404A;" d="M472.913,131.322c-1.373,0-2.77-0.2-4.152-0.619c-7.562-2.29-11.836-10.278-9.544-17.84
		l24.782-81.812c2.29-7.56,10.276-11.837,17.839-9.544c7.562,2.29,11.836,10.278,9.545,17.84l-24.782,81.812
		C484.727,127.337,479.052,131.322,472.913,131.322z"/>
	<path style="fill:#B3404A;" d="M448.091,248.284l23.44-77.379c2.29-7.562-1.983-15.55-9.545-17.84
		c-7.562-2.295-15.55,1.984-17.839,9.544l-22.056,72.813c-9.119-3.288-18.712-5.571-28.645-6.721V30.732
		c0-7.9-6.405-14.307-14.307-14.307s-14.307,6.406-14.307,14.307v197.829c-64.58,6.863-115.058,61.66-115.058,128.03
		c0,70.998,57.761,128.759,128.759,128.759c35.682,0,68.862-14.261,93.426-40.154c5.438-5.733,5.199-14.789-0.534-20.227
		c-5.731-5.436-14.786-5.2-20.225,0.532c-19.108,20.142-44.916,31.236-72.667,31.236c-55.221,0-100.146-44.926-100.146-100.146
		c0-50.571,37.686-92.482,86.445-99.185v37.337c-28.369,6.281-49.657,31.618-49.657,61.847c0,34.937,28.423,63.358,63.358,63.358
		s63.358-28.421,63.358-63.358c0-29.799-20.684-54.843-48.445-61.568v-37.463c48.173,7.223,85.234,48.878,85.234,99.03
		c0,7.9,6.405,14.307,14.307,14.307s14.307-6.406,14.307-14.307C507.292,311.198,483.677,271.219,448.091,248.284z M343.787,356.592
		c0-14.294,8.68-26.596,21.044-31.922v63.847C352.467,383.189,343.787,370.887,343.787,356.592z M413.277,356.592
		c0,13.824-8.116,25.785-19.832,31.376v-62.75C405.16,330.808,413.277,342.769,413.277,356.592z"/>
</g>
<g>
</g>
<g>
</g>
<g>
</g>
<g>
</g>
<g>
</g>
<g>
</g>
<g>
</g>
<g>
</g>
<g>
</g>
<g>
</g>
<g>
</g>
<g>
</g>
<g>
</g>
<g>
</g>
<g>
</g>
</svg>
