<?xml version="1.0" encoding="iso-8859-1"?>
<!-- Generator: Adobe Illustrator 19.0.0, SVG Export Plug-In . SVG Version: 6.00 Build 0)  -->
<svg version="1.1" id="Layer_1" xmlns="http://www.w3.org/2000/svg" xmlns:xlink="http://www.w3.org/1999/xlink" x="0px" y="0px"
	 viewBox="0 0 511.999 511.999" style="enable-background:new 0 0 511.999 511.999;" xml:space="preserve">
<rect x="153.844" y="238.433" style="fill:#F4B2B0;" width="204.296" height="109.316"/>
<path style="fill:#B3404A;" d="M358.149,149.495c-7.641,0-13.837,6.196-13.837,13.837v61.26H167.687v-61.26
	c0-12.167,9.899-22.065,22.067-22.065h23.355c7.642,0,13.837-6.196,13.837-13.837V27.675h58.109v99.755
	c0,7.641,6.196,13.837,13.837,13.837c7.641,0,13.837-6.196,13.837-13.837V27.675h2.08c7.641,0,13.837-6.196,13.837-13.837
	S322.45,0,314.809,0h-15.917h-85.784h-15.917c-7.642,0-13.837,6.196-13.837,13.837s6.195,13.837,13.837,13.837h2.08v85.918h-9.517
	c-27.427,0-49.741,22.313-49.741,49.74v75.097v109.316v116.366c0,26.406,21.483,47.887,47.887,47.887
	c7.642,0,13.837-6.196,13.837-13.837s-6.195-13.837-13.837-13.837c-11.146,0-20.212-9.068-20.212-20.212V361.583h176.625v102.528
	c0,11.146-9.068,20.212-20.211,20.212c-11.146,0-20.212-9.068-20.212-20.212c0-7.641-6.196-13.837-13.837-13.837
	c-7.641,0-13.837,6.196-13.837,13.837c0,11.146-9.068,20.212-20.212,20.212c-11.145,0-20.212-9.068-20.212-20.212
	c0-7.641-6.195-13.837-13.837-13.837s-13.837,6.196-13.837,13.837c0,26.406,21.483,47.887,47.887,47.887
	c13.307,0,25.363-5.455,34.05-14.247c8.687,8.792,20.742,14.247,34.05,14.247c26.405,0,47.886-21.481,47.886-47.887V347.746V238.43
	v-75.097C371.987,155.692,365.79,149.495,358.149,149.495z M167.687,333.91v-81.641h176.625v81.641H167.687z"/>
<g>
</g>
<g>
</g>
<g>
</g>
<g>
</g>
<g>
</g>
<g>
</g>
<g>
</g>
<g>
</g>
<g>
</g>
<g>
</g>
<g>
</g>
<g>
</g>
<g>
</g>
<g>
</g>
<g>
</g>
</svg>
