<?xml version="1.0" encoding="iso-8859-1"?>
<!-- Generator: Adobe Illustrator 19.0.0, SVG Export Plug-In . SVG Version: 6.00 Build 0)  -->
<svg version="1.1" id="Layer_1" xmlns="http://www.w3.org/2000/svg" xmlns:xlink="http://www.w3.org/1999/xlink" x="0px" y="0px"
	 viewBox="0 0 512 512" style="enable-background:new 0 0 512 512;" xml:space="preserve">
<path style="fill:#F4B2B0;" d="M294.655,52.377c0-21.348-17.307-38.653-38.655-38.653l0,0c-21.348,0-38.655,17.307-38.655,38.655
	v143.444h77.308V52.377H294.655z"/>
<g>
	<path style="fill:#B3404A;" d="M256,512c-7.579,0-13.723-6.145-13.723-13.723V389.977c0-7.578,6.144-13.723,13.723-13.723
		c7.579,0,13.723,6.145,13.723,13.723v108.299C269.723,505.855,263.579,512,256,512z"/>
	<path style="fill:#B3404A;" d="M337.377,386.323l-28.145-62.763c-3.101-6.917-11.222-10.01-18.137-6.907
		s-10.007,11.223-6.907,18.138l28.145,62.763c8.603,19.184,6.917,41.17-4.509,58.817c-11.427,17.647-30.799,28.182-51.824,28.182
		s-40.398-10.535-51.824-28.182s-13.113-39.634-4.509-58.817l42.61-95.018v44.225c0,7.578,6.144,13.723,13.723,13.723
		c7.579,0,13.723-6.145,13.723-13.723V238.7c0,0,0-0.01,0-0.014v-29.14h24.931c7.579,0,13.723-6.145,13.723-13.723V52.377
		C308.377,23.496,284.881,0,256,0s-52.378,23.496-52.378,52.377V195.82c0,7.578,6.144,13.723,13.723,13.723h24.931v25.914
		l-67.654,150.865c-12.427,27.71-9.992,59.473,6.514,84.966S225.63,512,256,512s58.356-15.219,74.862-40.712
		C347.369,445.796,349.803,414.033,337.377,386.323z M231.069,52.377c0-13.747,11.183-24.93,24.931-24.93
		c13.748,0,24.931,11.183,24.931,24.93v129.72H231.07V52.377H231.069z"/>
</g>
<g>
</g>
<g>
</g>
<g>
</g>
<g>
</g>
<g>
</g>
<g>
</g>
<g>
</g>
<g>
</g>
<g>
</g>
<g>
</g>
<g>
</g>
<g>
</g>
<g>
</g>
<g>
</g>
<g>
</g>
</svg>
