<?xml version="1.0" encoding="iso-8859-1"?>
<!-- Generator: Adobe Illustrator 19.0.0, SVG Export Plug-In . SVG Version: 6.00 Build 0)  -->
<svg version="1.1" id="Layer_1" xmlns="http://www.w3.org/2000/svg" xmlns:xlink="http://www.w3.org/1999/xlink" x="0px" y="0px"
	 viewBox="0 0 512.001 512.001" style="enable-background:new 0 0 512.001 512.001;" xml:space="preserve">
<g>
	<path style="fill:#F4B2B0;" d="M266.603,334.884h-21.205c-27.872,0-50.466-22.594-50.466-50.466l0,0h122.137l0,0
		C317.068,312.29,294.475,334.884,266.603,334.884z"/>
	<path style="fill:#F4B2B0;" d="M87.029,149.554c-0.06,1.024-0.093,2.021-0.093,2.988c0,72.898,46.218,116.289,110.869,131.878
		h116.394c64.646-15.588,110.863-58.975,110.863-131.874c0-0.968-0.032-1.965-0.093-2.992L87.029,149.554L87.029,149.554z"/>
</g>
<g>
	<path style="fill:#B3404A;" d="M320.138,482.626h-49.45v-14.537c0-8.111-6.577-14.688-14.688-14.688
		c-8.112,0-14.688,6.577-14.688,14.688v14.537h-49.45c-8.112,0-14.688,6.577-14.688,14.688s6.576,14.688,14.688,14.688h128.274
		c8.111,0,14.688-6.577,14.688-14.688S328.248,482.626,320.138,482.626z"/>
	<path style="fill:#B3404A;" d="M439.722,150.71c-0.006-0.22-0.019-0.447-0.028-0.67c-0.016-0.404-0.031-0.808-0.054-1.221
		c-0.003-0.043-0.003-0.085-0.006-0.128c-0.001-0.028-0.007-0.053-0.009-0.079c-1.124-18.563-10.014-45.267-28.409-85.538
		c-3.369-7.379-12.085-10.631-19.461-7.257c-7.379,3.369-10.628,12.084-7.257,19.461c4.885,10.696,17.38,38.062,23.026,59.587
		H104.441c6.989-26.675,25.645-65.561,40.069-95.612c1.613-3.361,3.196-6.658,4.734-9.878h222.795
		c8.111,0,14.688-6.577,14.688-14.688S380.15,0,372.039,0H139.963c-5.684,0-10.859,3.278-13.284,8.419
		c-2.708,5.74-5.627,11.821-8.651,18.123c-20.496,42.702-43.586,90.83-45.616,121.747c-0.012,0.135-0.035,0.266-0.044,0.401
		c-0.013,0.228-0.019,0.448-0.031,0.673c-0.009,0.176-0.016,0.352-0.023,0.527c-0.038,0.906-0.063,1.798-0.063,2.648
		c0,69.842,39.475,121.143,108.877,142.518c4.879,29.567,29.728,52.474,60.185,54.37v67.722c0,8.111,6.576,14.688,14.688,14.688
		c8.111,0,14.688-6.577,14.688-14.688v-67.722c30.457-1.896,55.304-24.803,60.185-54.369c3.836-1.181,7.569-2.468,11.22-3.829
		c49.749-18.563,82.226-53.733,93.355-100.662c0.781-3.297,1.461-6.652,2.031-10.064c0.422-2.526,0.803-5.075,1.109-7.661
		c0.773-6.576,1.163-13.344,1.163-20.297C439.75,151.943,439.741,151.331,439.722,150.71z M266.603,320.196h-21.206
		c-14.497,0-27.007-8.666-32.622-21.089h86.45C293.608,311.531,281.099,320.196,266.603,320.196z M409.878,164.725
		c-0.165,2.006-0.361,3.98-0.605,5.915c-0.021,0.166-0.046,0.326-0.068,0.491c-0.26,2.005-0.555,3.977-0.897,5.906
		c-0.007,0.044-0.016,0.087-0.025,0.129c-0.344,1.924-0.73,3.806-1.152,5.655c-0.028,0.123-0.053,0.251-0.082,0.376
		c-0.416,1.795-0.872,3.55-1.357,5.274c-0.054,0.194-0.106,0.392-0.162,0.585c-0.479,1.667-0.994,3.297-1.535,4.901
		c-0.078,0.232-0.154,0.466-0.234,0.698c-0.541,1.563-1.112,3.095-1.708,4.597c-0.097,0.245-0.194,0.492-0.294,0.736
		c-0.601,1.481-1.229,2.93-1.882,4.351c-0.112,0.244-0.225,0.488-0.338,0.73c-0.661,1.41-1.347,2.792-2.056,4.146
		c-0.119,0.228-0.241,0.452-0.361,0.679c-0.723,1.353-1.467,2.681-2.237,3.977c-0.119,0.201-0.241,0.398-0.36,0.598
		c-0.787,1.307-1.595,2.589-2.428,3.841c-0.109,0.163-0.22,0.323-0.33,0.486c-0.859,1.275-1.736,2.526-2.638,3.744
		c-0.078,0.106-0.16,0.21-0.239,0.314c-0.941,1.262-1.904,2.497-2.888,3.697c-0.025,0.031-0.051,0.06-0.076,0.091
		c-0.98,1.193-1.983,2.352-3.002,3.485c-0.078,0.087-0.153,0.176-0.231,0.261c-0.994,1.1-2.011,2.168-3.039,3.214
		c-0.123,0.125-0.247,0.254-0.37,0.38c-1.002,1.009-2.021,1.989-3.051,2.949c-0.157,0.147-0.314,0.295-0.471,0.441
		c-1.015,0.934-2.043,1.843-3.08,2.732c-0.178,0.153-0.357,0.305-0.536,0.458c-1.033,0.872-2.075,1.721-3.129,2.55
		c-0.188,0.148-0.376,0.295-0.564,0.442c-1.055,0.82-2.117,1.619-3.187,2.396c-0.189,0.137-0.379,0.273-0.568,0.408
		c-1.08,0.774-2.165,1.529-3.258,2.26c-0.181,0.12-0.361,0.238-0.54,0.358c-1.11,0.734-2.225,1.453-3.346,2.147
		c-0.154,0.095-0.31,0.188-0.464,0.283c-1.152,0.706-2.306,1.395-3.465,2.059c-0.112,0.063-0.223,0.125-0.336,0.188
		c-1.194,0.68-2.393,1.342-3.591,1.98c-0.047,0.025-0.094,0.05-0.141,0.073c-1.199,0.635-2.397,1.246-3.597,1.839
		c-0.104,0.051-0.209,0.106-0.313,0.156c-1.172,0.576-2.343,1.129-3.512,1.667c-0.148,0.069-0.298,0.14-0.447,0.207
		c-1.135,0.518-2.269,1.015-3.399,1.498c-0.181,0.078-0.361,0.156-0.542,0.232c-1.109,0.469-2.213,0.919-3.314,1.357
		c-0.192,0.076-0.385,0.153-0.579,0.229c-1.09,0.429-2.172,0.84-3.25,1.237c-0.197,0.072-0.392,0.144-0.589,0.216
		c-1.075,0.392-2.141,0.768-3.202,1.131c-0.187,0.063-0.372,0.126-0.558,0.189c-1.066,0.361-2.125,0.708-3.174,1.04
		c-0.165,0.053-0.328,0.103-0.492,0.154c-1.063,0.333-2.118,0.655-3.158,0.961c-0.132,0.038-0.263,0.076-0.397,0.115
		c-1.069,0.311-2.128,0.611-3.171,0.893c-0.075,0.021-0.148,0.04-0.222,0.06c-1.091,0.295-2.169,0.577-3.227,0.842H199.581
		c-1.053-0.264-2.127-0.545-3.215-0.839c-0.079-0.022-0.159-0.043-0.238-0.063c-1.041-0.282-2.102-0.582-3.171-0.893
		c-0.129-0.038-0.257-0.075-0.388-0.113c-1.043-0.305-2.099-0.629-3.164-0.962c-0.163-0.051-0.325-0.1-0.488-0.153
		c-1.047-0.332-2.106-0.68-3.173-1.04c-0.188-0.063-0.375-0.126-0.564-0.191c-1.056-0.361-2.121-0.737-3.193-1.128
		c-0.2-0.072-0.4-0.147-0.599-0.22c-1.072-0.395-2.15-0.805-3.234-1.229c-0.2-0.078-0.401-0.159-0.602-0.238
		c-1.091-0.433-2.186-0.88-3.286-1.345c-0.194-0.082-0.388-0.166-0.582-0.25c-1.115-0.476-2.234-0.968-3.355-1.478
		c-0.167-0.076-0.335-0.156-0.502-0.234c-1.15-0.529-2.303-1.072-3.456-1.639c-0.126-0.062-0.251-0.126-0.377-0.188
		c-1.16-0.574-2.321-1.166-3.48-1.779c-0.093-0.048-0.187-0.098-0.279-0.148c-1.157-0.615-2.313-1.254-3.468-1.911
		c-0.138-0.078-0.276-0.154-0.414-0.234c-1.132-0.649-2.262-1.323-3.389-2.014c-0.182-0.112-0.366-0.222-0.548-0.335
		c-1.096-0.679-2.186-1.381-3.27-2.099c-0.207-0.137-0.413-0.272-0.62-0.41c-1.066-0.714-2.127-1.451-3.18-2.206
		c-0.217-0.156-0.435-0.311-0.652-0.469c-1.044-0.758-2.081-1.538-3.109-2.335c-0.216-0.167-0.432-0.336-0.648-0.507
		c-1.025-0.808-2.043-1.636-3.049-2.487c-0.207-0.175-0.413-0.351-0.618-0.527c-1.012-0.867-2.014-1.752-3.002-2.663
		c-0.185-0.17-0.369-0.345-0.554-0.517c-1.003-0.936-1.996-1.892-2.973-2.874c-0.153-0.153-0.301-0.31-0.454-0.464
		c-1.002-1.019-1.99-2.059-2.96-3.13c-0.106-0.116-0.209-0.238-0.314-0.354c-0.974-1.085-1.931-2.194-2.87-3.333
		c-0.072-0.088-0.145-0.175-0.217-0.263c-0.943-1.152-1.864-2.335-2.769-3.544c-0.103-0.138-0.209-0.273-0.311-0.411
		c-0.883-1.193-1.742-2.418-2.584-3.666c-0.126-0.188-0.256-0.373-0.382-0.563c-0.817-1.226-1.607-2.485-2.381-3.767
		c-0.137-0.226-0.275-0.449-0.408-0.677c-0.755-1.275-1.486-2.579-2.197-3.907c-0.134-0.25-0.267-0.498-0.398-0.751
		c-0.699-1.334-1.375-2.695-2.025-4.085c-0.122-0.261-0.245-0.524-0.366-0.789c-0.645-1.406-1.266-2.838-1.859-4.299
		c-0.106-0.261-0.21-0.524-0.314-0.789c-0.59-1.489-1.157-3.005-1.692-4.556c-0.084-0.244-0.165-0.491-0.247-0.734
		c-0.538-1.592-1.049-3.211-1.525-4.866c-0.059-0.204-0.113-0.411-0.17-0.615c-0.483-1.717-0.937-3.462-1.351-5.249
		c-0.031-0.131-0.057-0.264-0.087-0.395c-0.42-1.842-0.805-3.718-1.147-5.634c-0.009-0.047-0.018-0.093-0.026-0.14
		c-0.342-1.931-0.639-3.907-0.899-5.916c-0.021-0.159-0.046-0.314-0.065-0.474c-0.245-1.943-0.444-3.928-0.608-5.944
		c-0.013-0.153-0.026-0.306-0.04-0.46h307.838C409.907,164.405,409.891,164.565,409.878,164.725z"/>
</g>
<g>
</g>
<g>
</g>
<g>
</g>
<g>
</g>
<g>
</g>
<g>
</g>
<g>
</g>
<g>
</g>
<g>
</g>
<g>
</g>
<g>
</g>
<g>
</g>
<g>
</g>
<g>
</g>
<g>
</g>
</svg>
